<svg width="32" height="32" viewBox="0 0 32 32" fill="none" xmlns="http://www.w3.org/2000/svg">
<path d="M0 16C0 7.16344 7.16344 0 16 0C24.8366 0 32 7.16344 32 16C32 24.8366 24.8366 32 16 32C7.16344 32 0 24.8366 0 16Z" fill="#6200FF"/>
<path d="M24.125 14.75H16.625V12.875H17.25C17.5815 12.875 17.8995 12.7433 18.1339 12.5089C18.3683 12.2745 18.5 11.9565 18.5 11.625V9.125C18.5 8.79348 18.3683 8.47554 18.1339 8.24112C17.8995 8.0067 17.5815 7.875 17.25 7.875H14.75C14.4185 7.875 14.1005 8.0067 13.8661 8.24112C13.6317 8.47554 13.5 8.79348 13.5 9.125V11.625C13.5 11.9565 13.6317 12.2745 13.8661 12.5089C14.1005 12.7433 14.4185 12.875 14.75 12.875H15.375V14.75H7.875C7.70924 14.75 7.55027 14.8158 7.43306 14.9331C7.31585 15.0503 7.25 15.2092 7.25 15.375C7.25 15.5408 7.31585 15.6997 7.43306 15.8169C7.55027 15.9342 7.70924 16 7.875 16H10.375V18.5H9.75C9.41848 18.5 9.10054 18.6317 8.86612 18.8661C8.6317 19.1005 8.5 19.4185 8.5 19.75V22.25C8.5 22.5815 8.6317 22.8995 8.86612 23.1339C9.10054 23.3683 9.41848 23.5 9.75 23.5H12.25C12.5815 23.5 12.8995 23.3683 13.1339 23.1339C13.3683 22.8995 13.5 22.5815 13.5 22.25V19.75C13.5 19.4185 13.3683 19.1005 13.1339 18.8661C12.8995 18.6317 12.5815 18.5 12.25 18.5H11.625V16H20.375V18.5H19.75C19.4185 18.5 19.1005 18.6317 18.8661 18.8661C18.6317 19.1005 18.5 19.4185 18.5 19.75V22.25C18.5 22.5815 18.6317 22.8995 18.8661 23.1339C19.1005 23.3683 19.4185 23.5 19.75 23.5H22.25C22.5815 23.5 22.8995 23.3683 23.1339 23.1339C23.3683 22.8995 23.5 22.5815 23.5 22.25V19.75C23.5 19.4185 23.3683 19.1005 23.1339 18.8661C22.8995 18.6317 22.5815 18.5 22.25 18.5H21.625V16H24.125C24.2908 16 24.4497 15.9342 24.5669 15.8169C24.6842 15.6997 24.75 15.5408 24.75 15.375C24.75 15.2092 24.6842 15.0503 24.5669 14.9331C24.4497 14.8158 24.2908 14.75 24.125 14.75ZM14.75 9.125H17.25V11.625H14.75V9.125ZM12.25 22.25H9.75V19.75H12.25V22.25ZM22.25 22.25H19.75V19.75H22.25V22.25Z" fill="white"/>
</svg>
