<svg width="33" height="32" viewBox="0 0 33 32" fill="none" xmlns="http://www.w3.org/2000/svg">
<path d="M0.666992 16C0.666992 7.16344 7.83044 0 16.667 0C25.5035 0 32.667 7.16344 32.667 16C32.667 24.8366 25.5035 32 16.667 32C7.83044 32 0.666992 24.8366 0.666992 16Z" fill="#6200FF"/>
<path d="M24.0332 15.6141L17.1582 6.86405C17.0997 6.78964 17.0251 6.72948 16.94 6.68811C16.8548 6.64674 16.7614 6.62524 16.6668 6.62524C16.5721 6.62524 16.4787 6.64674 16.3936 6.68811C16.3085 6.72948 16.2339 6.78964 16.1754 6.86405L9.30039 15.6141C9.21396 15.7241 9.16699 15.86 9.16699 16C9.16699 16.1399 9.21396 16.2758 9.30039 16.3859L16.1754 25.1359C16.2339 25.2103 16.3085 25.2705 16.3936 25.3119C16.4787 25.3532 16.5721 25.3747 16.6668 25.3747C16.7614 25.3747 16.8548 25.3532 16.94 25.3119C17.0251 25.2705 17.0997 25.2103 17.1582 25.1359L24.0332 16.3859C24.1196 16.2758 24.1666 16.1399 24.1666 16C24.1666 15.86 24.1196 15.7241 24.0332 15.6141ZM17.2918 9.05702L22.559 15.7601L17.2918 18.1547V9.05702ZM16.0418 18.1547L10.7746 15.7601L16.0418 9.05702V18.1547ZM16.0418 19.5273V22.943L11.8676 17.6305L16.0418 19.5273ZM17.2918 19.5273L21.466 17.6297L17.2918 22.9422V19.5273Z" fill="white"/>
</svg>
