<svg width="33" height="32" viewBox="0 0 33 32" fill="none" xmlns="http://www.w3.org/2000/svg">
<path d="M0.333008 16C0.333008 7.16344 7.49645 0 16.333 0C25.1696 0 32.333 7.16344 32.333 16C32.333 24.8366 25.1696 32 16.333 32C7.49645 32 0.333008 24.8366 0.333008 16Z" fill="#6200FF"/>
<path d="M21.333 15.0625C21.333 15.2479 21.278 15.4292 21.175 15.5833C21.072 15.7375 20.9256 15.8577 20.7543 15.9286C20.583 15.9996 20.3945 16.0182 20.2126 15.982C20.0308 15.9458 19.8637 15.8565 19.7326 15.7254C19.6015 15.5943 19.5122 15.4273 19.476 15.2454C19.4398 15.0635 19.4584 14.875 19.5294 14.7037C19.6003 14.5324 19.7205 14.386 19.8747 14.283C20.0288 14.18 20.2101 14.125 20.3955 14.125C20.6441 14.125 20.8826 14.2238 21.0584 14.3996C21.2342 14.5754 21.333 14.8139 21.333 15.0625ZM18.208 11H15.083C14.9172 11 14.7583 11.0658 14.6411 11.1831C14.5239 11.3003 14.458 11.4592 14.458 11.625C14.458 11.7908 14.5239 11.9497 14.6411 12.0669C14.7583 12.1842 14.9172 12.25 15.083 12.25H18.208C18.3738 12.25 18.5327 12.1842 18.65 12.0669C18.7672 11.9497 18.833 11.7908 18.833 11.625C18.833 11.4592 18.7672 11.3003 18.65 11.1831C18.5327 11.0658 18.3738 11 18.208 11ZM25.708 14.75V17.25C25.708 17.7473 25.5105 18.2242 25.1588 18.5758C24.8072 18.9275 24.3303 19.125 23.833 19.125H23.6486L22.3822 22.6703C22.2955 22.9132 22.1358 23.1232 21.9251 23.2718C21.7143 23.4203 21.4627 23.5 21.2049 23.5H20.2111C19.9533 23.5 19.7017 23.4203 19.4909 23.2718C19.2802 23.1232 19.1205 22.9132 19.0338 22.6703L18.8838 22.25H14.4072L14.2572 22.6703C14.1705 22.9132 14.0108 23.1232 13.8001 23.2718C13.5893 23.4203 13.3377 23.5 13.0799 23.5H12.0861C11.8283 23.5 11.5767 23.4203 11.366 23.2718C11.1552 23.1232 10.9955 22.9132 10.9088 22.6703L9.92676 19.9234C8.99252 18.8661 8.40755 17.5461 8.25176 16.1437C8.05006 16.2497 7.88115 16.4087 7.76328 16.6037C7.64542 16.7987 7.58308 17.0222 7.58301 17.25C7.58301 17.4158 7.51716 17.5747 7.39995 17.6919C7.28274 17.8092 7.12377 17.875 6.95801 17.875C6.79225 17.875 6.63328 17.8092 6.51607 17.6919C6.39886 17.5747 6.33301 17.4158 6.33301 17.25C6.33396 16.6926 6.52115 16.1516 6.86483 15.7128C7.20851 15.274 7.68897 14.9626 8.22988 14.8281C8.36951 13.1057 9.15177 11.4988 10.4214 10.3265C11.6909 9.15418 13.355 8.50219 15.083 8.5H23.208C23.3738 8.5 23.5327 8.56585 23.65 8.68306C23.7672 8.80027 23.833 8.95924 23.833 9.125C23.833 9.29076 23.7672 9.44973 23.65 9.56694C23.5327 9.68415 23.3738 9.75 23.208 9.75H21.5369C22.5741 10.4777 23.3899 11.4782 23.8939 12.6406C23.9275 12.7188 23.9604 12.7969 23.9916 12.875C24.4609 12.9148 24.898 13.1298 25.216 13.4772C25.5341 13.8246 25.7097 14.279 25.708 14.75ZM24.458 14.75C24.458 14.5842 24.3922 14.4253 24.275 14.3081C24.1577 14.1908 23.9988 14.125 23.833 14.125H23.5471C23.414 14.1251 23.2843 14.0828 23.1769 14.0041C23.0696 13.9254 22.9901 13.8145 22.9502 13.6875C22.5921 12.5448 21.8782 11.5464 20.9127 10.8381C19.9471 10.1297 18.7805 9.7485 17.583 9.75H15.083C13.9914 9.74994 12.9233 10.0675 12.0091 10.664C11.0948 11.2605 10.3739 12.1101 9.9342 13.1093C9.4945 14.1085 9.35503 15.214 9.5328 16.291C9.71057 17.3681 10.1979 18.3701 10.9354 19.175C10.9917 19.2363 11.0353 19.3083 11.0635 19.3867L12.0861 22.25H13.0799L13.3783 21.4148C13.4216 21.2935 13.5014 21.1885 13.6067 21.1142C13.7121 21.04 13.8377 21.0001 13.9666 21H19.3244C19.4533 21.0001 19.579 21.04 19.6843 21.1142C19.7896 21.1885 19.8694 21.2935 19.9127 21.4148L20.2111 22.25H21.2049L22.6197 18.2898C22.6631 18.1685 22.7428 18.0635 22.8481 17.9892C22.9535 17.915 23.0791 17.8751 23.208 17.875H23.833C23.9988 17.875 24.1577 17.8092 24.275 17.6919C24.3922 17.5747 24.458 17.4158 24.458 17.25V14.75Z" fill="white"/>
</svg>
