<svg width="32" height="32" viewBox="0 0 32 32" fill="none" xmlns="http://www.w3.org/2000/svg">
<path d="M0 16C0 7.16344 7.16344 0 16 0C24.8366 0 32 7.16344 32 16C32 24.8366 24.8366 32 16 32C7.16344 32 0 24.8366 0 16Z" fill="#6200FF"/>
<path d="M22.875 12.875H19.125V9.125C19.125 8.95924 19.0592 8.80027 18.9419 8.68306C18.8247 8.56585 18.6658 8.5 18.5 8.5H9.125C8.95924 8.5 8.80027 8.56585 8.68306 8.68306C8.56585 8.80027 8.5 8.95924 8.5 9.125V18.5C8.5 18.6658 8.56585 18.8247 8.68306 18.9419C8.80027 19.0592 8.95924 19.125 9.125 19.125H12.875V22.875C12.875 23.0408 12.9408 23.1997 13.0581 23.3169C13.1753 23.4342 13.3342 23.5 13.5 23.5H22.875C23.0408 23.5 23.1997 23.4342 23.3169 23.3169C23.4342 23.1997 23.5 23.0408 23.5 22.875V13.5C23.5 13.3342 23.4342 13.1753 23.3169 13.0581C23.1997 12.9408 23.0408 12.875 22.875 12.875ZM9.75 17.875V9.75H17.875V12.875H13.5C13.3342 12.875 13.1753 12.9408 13.0581 13.0581C12.9408 13.1753 12.875 13.3342 12.875 13.5V17.875H9.75ZM14.125 15.0086L16.9914 17.875H14.125V15.0086ZM17.875 16.9914L15.0086 14.125H17.875V16.9914ZM22.25 22.25H14.125V19.125H18.5C18.6658 19.125 18.8247 19.0592 18.9419 18.9419C19.0592 18.8247 19.125 18.6658 19.125 18.5V14.125H22.25V22.25Z" fill="white"/>
</svg>
