<svg width="21" height="21" viewBox="0 0 21 21" fill="none" xmlns="http://www.w3.org/2000/svg">
<path d="M0 10.155C0 4.54655 4.54655 0 10.155 0C15.7635 0 20.31 4.54655 20.31 10.155C20.31 15.7635 15.7635 20.31 10.155 20.31C4.54655 20.31 0 15.7635 0 10.155Z" fill="white"/>
<path d="M10.155 -0.00146484C8.14629 -0.00146484 6.18268 0.594189 4.51249 1.71017C2.84231 2.82615 1.54055 4.41234 0.771852 6.26816C0.00314933 8.12397 -0.197978 10.1661 0.193903 12.1362C0.585784 14.1063 1.55307 15.916 2.97345 17.3363C4.39383 18.7567 6.2035 19.724 8.17362 20.1159C10.1437 20.5078 12.1858 20.3066 14.0416 19.5379C15.8974 18.7692 17.4836 17.4675 18.5996 15.7973C19.7156 14.1271 20.3113 12.1635 20.3113 10.1548C20.3084 7.46205 19.2375 4.88042 17.3334 2.97637C15.4294 1.07232 12.8477 0.00137873 10.155 -0.00146484ZM14.614 8.36377L9.14524 13.8325C9.07268 13.9052 8.98652 13.9628 8.89167 14.0021C8.79683 14.0414 8.69517 14.0616 8.5925 14.0616C8.48983 14.0616 8.38817 14.0414 8.29333 14.0021C8.19849 13.9628 8.11233 13.9052 8.03977 13.8325L5.69602 11.4888C5.54942 11.3422 5.46707 11.1434 5.46707 10.936C5.46707 10.7287 5.54942 10.5299 5.69602 10.3833C5.84261 10.2367 6.04144 10.1544 6.24875 10.1544C6.45607 10.1544 6.65489 10.2367 6.80149 10.3833L8.5925 12.1753L13.5085 7.2583C13.5811 7.18571 13.6673 7.12814 13.7621 7.08885C13.857 7.04957 13.9586 7.02935 14.0613 7.02935C14.1639 7.02935 14.2656 7.04957 14.3604 7.08885C14.4552 7.12814 14.5414 7.18571 14.614 7.2583C14.6866 7.33089 14.7442 7.41706 14.7834 7.5119C14.8227 7.60674 14.8429 7.70838 14.8429 7.81104C14.8429 7.91369 14.8227 8.01534 14.7834 8.11017C14.7442 8.20501 14.6866 8.29118 14.614 8.36377Z" fill="#6200FF"/>
</svg>
