<svg width="17" height="18" viewBox="0 0 17 18" fill="none" xmlns="http://www.w3.org/2000/svg">
<path d="M6.7638 13.1924C6.46431 13.8472 5.46489 15.3745 2.65657 15.3745C2.51568 15.3745 2.38055 15.3185 2.28092 15.2189C2.18129 15.1193 2.12532 14.9842 2.12532 14.8433C2.12532 12.0349 3.65267 11.0355 4.30743 10.736C4.37092 10.7071 4.43948 10.6909 4.50922 10.6885C4.57895 10.686 4.64848 10.6973 4.71385 10.7217C4.77921 10.7462 4.83912 10.7832 4.89017 10.8308C4.94121 10.8784 4.98239 10.9355 5.01134 10.999C5.04029 11.0625 5.05645 11.1311 5.05891 11.2008C5.06136 11.2705 5.05006 11.3401 5.02564 11.4054C5.00122 11.4708 4.96416 11.5307 4.91659 11.5817C4.86902 11.6328 4.81185 11.674 4.74837 11.7029C4.32138 11.8975 3.37907 12.5237 3.21306 14.2868C4.97614 14.1208 5.60368 13.1785 5.79692 12.7515C5.82588 12.688 5.86705 12.6308 5.91809 12.5832C5.96914 12.5357 6.02905 12.4986 6.09441 12.4742C6.15978 12.4498 6.22931 12.4385 6.29904 12.4409C6.36878 12.4434 6.43734 12.4595 6.50083 12.4885C6.56432 12.5175 6.62148 12.5586 6.66905 12.6097C6.71663 12.6607 6.75368 12.7206 6.7781 12.786C6.80252 12.8514 6.81382 12.9209 6.81137 12.9906C6.80892 13.0604 6.79275 13.1289 6.7638 13.1924ZM14.8654 3.62991C14.8496 3.37088 14.7396 3.12656 14.5561 2.94306C14.3726 2.75956 14.1283 2.64956 13.8693 2.63381C13.0339 2.58401 10.8989 2.66038 9.12786 4.43143L5.84407 7.71788C5.79476 7.76728 5.73619 7.80648 5.67173 7.83325C5.60726 7.86002 5.53815 7.87383 5.46835 7.8739C5.32738 7.87402 5.19213 7.81814 5.09235 7.71854C4.99258 7.61895 4.93646 7.48379 4.93634 7.34282C4.93621 7.20184 4.99209 7.06659 5.09169 6.96682L6.85544 5.20241C6.89236 5.16527 6.91748 5.11804 6.92764 5.06666C6.9378 5.01528 6.93254 4.96204 6.91253 4.91364C6.89251 4.86524 6.85864 4.82384 6.81516 4.79464C6.77169 4.76544 6.72055 4.74974 6.66817 4.74952H4.93763C4.79767 4.74878 4.65896 4.77588 4.52957 4.82923C4.40017 4.88258 4.28268 4.96113 4.18392 5.0603L1.90618 7.33936C1.76649 7.47895 1.66847 7.65471 1.62312 7.84692C1.57777 8.03912 1.58688 8.24016 1.64944 8.42747C1.71199 8.61478 1.82551 8.78095 1.97725 8.90733C2.12899 9.03372 2.31295 9.11531 2.50849 9.14296L5.06313 9.49956L7.99895 12.4354L8.35556 14.9914C8.38298 15.1869 8.46455 15.3709 8.59105 15.5225C8.71756 15.6741 8.88395 15.7873 9.07142 15.8493C9.18061 15.8858 9.29497 15.9044 9.41009 15.9044C9.54948 15.9047 9.68755 15.8774 9.81634 15.824C9.94513 15.7707 10.0621 15.6924 10.1605 15.5937L12.4395 13.3159C12.5384 13.2169 12.6168 13.0994 12.6701 12.9701C12.7234 12.8407 12.7507 12.7021 12.7503 12.5622V10.8317C12.7502 10.7792 12.7346 10.7279 12.7053 10.6842C12.6761 10.6406 12.6346 10.6066 12.5861 10.5866C12.5375 10.5666 12.4841 10.5614 12.4327 10.5716C12.3812 10.5819 12.3339 10.6073 12.2968 10.6444L10.5324 12.4082C10.4807 12.4598 10.419 12.5003 10.3511 12.527C10.2832 12.5538 10.2104 12.5662 10.1375 12.5636C10.0645 12.561 9.99285 12.5434 9.927 12.5118C9.86115 12.4803 9.80251 12.4355 9.75474 12.3803C9.66759 12.2748 9.62331 12.1405 9.63069 12.0039C9.63807 11.8674 9.69658 11.7386 9.79458 11.6432L13.0664 8.37132C14.8388 6.5996 14.9152 4.46464 14.8654 3.62858V3.62991Z" fill="black"/>
</svg>
