<svg width="44" height="44" viewBox="0 0 44 44" fill="none" xmlns="http://www.w3.org/2000/svg">
<path d="M34.7189 21.9998C34.7189 11.8746 31.8753 3.66651 28.3675 3.66651C27.2107 3.66651 26.1261 4.55929 25.1919 6.11919M34.7189 21.9998C34.7189 32.1251 31.8753 40.3332 28.3675 40.3332M34.7189 21.9998C34.7189 11.8746 31.9113 3.6665 28.4481 3.66651L15.6676 3.66651M34.7189 21.9998C34.7189 32.1251 31.9113 40.3332 28.4481 40.3332H15.5773M28.3675 40.3332C27.2107 40.3332 26.1261 39.4404 25.1919 37.8805M28.3675 40.3332H22.0162M22.0162 21.9998C22.0162 15.2139 23.2934 9.28911 25.1919 6.11919M22.0162 21.9998C22.0162 15.2139 20.7389 9.2891 18.8405 6.11918M22.0162 21.9998C22.0162 28.7858 23.2934 34.7106 25.1919 37.8805M22.0162 21.9998C22.0162 28.7858 20.7389 34.7106 18.8405 37.8805M22.0162 40.3332C23.173 40.3332 24.2577 39.4404 25.1919 37.8805M22.0162 40.3332C20.8593 40.3332 19.7747 39.4404 18.8405 37.8805M22.0162 40.3332L15.6648 40.3332M15.6648 40.3332C12.1571 40.3332 9.31348 32.1251 9.31348 21.9998M15.6648 40.3332C16.8217 40.3332 17.9063 39.4404 18.8405 37.8805M9.31348 21.9998C9.31348 11.8746 12.1571 3.6665 15.6648 3.6665C15.6658 3.6665 15.6667 3.6665 15.6676 3.66651M9.31348 21.9998C9.31348 32.1251 12.121 40.3332 15.5842 40.3332M9.31348 21.9998C9.31348 11.8746 12.121 3.6665 15.5842 3.6665M15.5773 3.66651L15.6676 3.66651M15.6676 3.66651C16.8234 3.66794 17.9071 4.56054 18.8405 6.11918M18.8405 6.11918C19.7747 4.55929 20.8593 3.66651 22.0162 3.66651C23.173 3.66651 24.2577 4.55929 25.1919 6.11919M18.8405 6.11918C16.9421 9.2891 15.6648 15.2139 15.6648 21.9998C15.6648 28.7858 16.9421 34.7106 18.8405 37.8805M25.1919 6.11919C27.0903 9.28911 28.3675 15.2139 28.3675 21.9998C28.3675 28.7858 27.0903 34.7106 25.1919 37.8805" stroke="white" stroke-linecap="round" stroke-linejoin="round"/>
</svg>
