<svg width="44" height="44" viewBox="0 0 44 44" fill="none" xmlns="http://www.w3.org/2000/svg">
<mask id="path-1-inside-1_314_540" fill="white">
<path fill-rule="evenodd" clip-rule="evenodd" d="M0.0732422 0.0732422H4.37058V1.63596H19.8515V0.0732422H24.1488V1.63596H39.6291V0.0732422H43.9265V4.37058H42.2779V19.8513H43.9265V24.1486H42.2779V39.6292H43.9265V43.9266H39.6291V42.3635H24.1488V43.9266H19.8515V42.3635H4.37058V43.9266H0.0732422V39.6292H1.72225V24.1486H0.0732422V19.8513H1.72225V4.37058H0.0732422V0.0732422ZM4.37058 41.3635V39.6292H2.72225V24.1486H4.37058V19.8513H2.72225V4.37058H4.37058V2.63596H19.8515V4.37058H24.1488V2.63596H39.6291V4.37058H41.2779V19.8513H39.6291V24.1486H41.2779V39.6292H39.6291V41.3635H24.1488V39.6292H19.8515V41.3635H4.37058Z"/>
</mask>
<path d="M4.37058 0.0732422H5.37058C5.37058 -0.479043 4.92286 -0.926758 4.37058 -0.926758V0.0732422ZM0.0732422 0.0732422V-0.926758C-0.479043 -0.926758 -0.926758 -0.479043 -0.926758 0.0732422L0.0732422 0.0732422ZM4.37058 1.63596H3.37058C3.37058 2.18824 3.81829 2.63596 4.37058 2.63596V1.63596ZM19.8515 1.63596V2.63596C20.4038 2.63596 20.8515 2.18824 20.8515 1.63596H19.8515ZM19.8515 0.0732422V-0.926758C19.2992 -0.926758 18.8515 -0.479043 18.8515 0.0732422L19.8515 0.0732422ZM24.1488 0.0732422H25.1488C25.1488 -0.479043 24.7011 -0.926758 24.1488 -0.926758V0.0732422ZM24.1488 1.63596H23.1488C23.1488 2.18824 23.5965 2.63596 24.1488 2.63596V1.63596ZM39.6291 1.63596V2.63596C40.1814 2.63596 40.6291 2.18824 40.6291 1.63596H39.6291ZM39.6291 0.0732422V-0.926758C39.0768 -0.926758 38.6291 -0.479043 38.6291 0.0732422L39.6291 0.0732422ZM43.9265 0.0732422H44.9265C44.9265 -0.479043 44.4787 -0.926758 43.9265 -0.926758V0.0732422ZM43.9265 4.37058V5.37058C44.4787 5.37058 44.9265 4.92286 44.9265 4.37058H43.9265ZM42.2779 4.37058V3.37058C41.7256 3.37058 41.2779 3.81829 41.2779 4.37058H42.2779ZM42.2779 19.8513H41.2779C41.2779 20.4035 41.7256 20.8513 42.2779 20.8513V19.8513ZM43.9265 19.8513H44.9265C44.9265 19.299 44.4787 18.8513 43.9265 18.8513V19.8513ZM43.9265 24.1486V25.1486C44.4787 25.1486 44.9265 24.7009 44.9265 24.1486H43.9265ZM42.2779 24.1486V23.1486C41.7256 23.1486 41.2779 23.5963 41.2779 24.1486H42.2779ZM42.2779 39.6292H41.2779C41.2779 40.1815 41.7256 40.6292 42.2779 40.6292V39.6292ZM43.9265 39.6292H44.9265C44.9265 39.077 44.4787 38.6292 43.9265 38.6292V39.6292ZM43.9265 43.9266V44.9266C44.4787 44.9266 44.9265 44.4789 44.9265 43.9266H43.9265ZM39.6291 43.9266H38.6291C38.6291 44.4789 39.0768 44.9266 39.6291 44.9266V43.9266ZM39.6291 42.3635H40.6291C40.6291 41.8112 40.1814 41.3635 39.6291 41.3635V42.3635ZM24.1488 42.3635V41.3635C23.5965 41.3635 23.1488 41.8112 23.1488 42.3635H24.1488ZM24.1488 43.9266V44.9266C24.7011 44.9266 25.1488 44.4789 25.1488 43.9266H24.1488ZM19.8515 43.9266H18.8515C18.8515 44.4789 19.2992 44.9266 19.8515 44.9266V43.9266ZM19.8515 42.3635H20.8515C20.8515 41.8112 20.4038 41.3635 19.8515 41.3635V42.3635ZM4.37058 42.3635V41.3635C3.81829 41.3635 3.37058 41.8112 3.37058 42.3635H4.37058ZM4.37058 43.9266V44.9266C4.92286 44.9266 5.37058 44.4789 5.37058 43.9266H4.37058ZM0.0732422 43.9266H-0.926758C-0.926758 44.4789 -0.479043 44.9266 0.0732422 44.9266L0.0732422 43.9266ZM0.0732422 39.6292V38.6292C-0.479043 38.6292 -0.926758 39.077 -0.926758 39.6292H0.0732422ZM1.72225 39.6292V40.6292C2.27454 40.6292 2.72225 40.1815 2.72225 39.6292H1.72225ZM1.72225 24.1486H2.72225C2.72225 23.5963 2.27454 23.1486 1.72225 23.1486V24.1486ZM0.0732422 24.1486H-0.926758C-0.926758 24.7009 -0.479043 25.1486 0.0732422 25.1486L0.0732422 24.1486ZM0.0732422 19.8513V18.8513C-0.479043 18.8513 -0.926758 19.299 -0.926758 19.8513H0.0732422ZM1.72225 19.8513V20.8513C2.27454 20.8513 2.72225 20.4035 2.72225 19.8513H1.72225ZM1.72225 4.37058H2.72225C2.72225 3.81829 2.27454 3.37058 1.72225 3.37058V4.37058ZM0.0732422 4.37058H-0.926758C-0.926758 4.92286 -0.479043 5.37058 0.0732422 5.37058L0.0732422 4.37058ZM4.37058 39.6292H5.37058C5.37058 39.077 4.92286 38.6292 4.37058 38.6292V39.6292ZM4.37058 41.3635H3.37058C3.37058 41.9158 3.81829 42.3635 4.37058 42.3635V41.3635ZM2.72225 39.6292H1.72225C1.72225 40.1815 2.16997 40.6292 2.72225 40.6292V39.6292ZM2.72225 24.1486V23.1486C2.16997 23.1486 1.72225 23.5963 1.72225 24.1486H2.72225ZM4.37058 24.1486V25.1486C4.92286 25.1486 5.37058 24.7009 5.37058 24.1486H4.37058ZM4.37058 19.8513H5.37058C5.37058 19.299 4.92286 18.8513 4.37058 18.8513V19.8513ZM2.72225 19.8513H1.72225C1.72225 20.4035 2.16997 20.8513 2.72225 20.8513V19.8513ZM2.72225 4.37058V3.37058C2.16997 3.37058 1.72225 3.81829 1.72225 4.37058H2.72225ZM4.37058 4.37058V5.37058C4.92286 5.37058 5.37058 4.92286 5.37058 4.37058H4.37058ZM4.37058 2.63596V1.63596C3.81829 1.63596 3.37058 2.08367 3.37058 2.63596H4.37058ZM19.8515 2.63596H20.8515C20.8515 2.08367 20.4038 1.63596 19.8515 1.63596V2.63596ZM19.8515 4.37058H18.8515C18.8515 4.92286 19.2992 5.37058 19.8515 5.37058V4.37058ZM24.1488 4.37058V5.37058C24.7011 5.37058 25.1488 4.92286 25.1488 4.37058H24.1488ZM24.1488 2.63596V1.63596C23.5965 1.63596 23.1488 2.08367 23.1488 2.63596H24.1488ZM39.6291 2.63596H40.6291C40.6291 2.08367 40.1814 1.63596 39.6291 1.63596V2.63596ZM39.6291 4.37058H38.6291C38.6291 4.92286 39.0768 5.37058 39.6291 5.37058V4.37058ZM41.2779 4.37058H42.2779C42.2779 3.81829 41.8302 3.37058 41.2779 3.37058V4.37058ZM41.2779 19.8513V20.8513C41.8302 20.8513 42.2779 20.4035 42.2779 19.8513H41.2779ZM39.6291 19.8513V18.8513C39.0768 18.8513 38.6291 19.299 38.6291 19.8513H39.6291ZM39.6291 24.1486H38.6291C38.6291 24.7009 39.0768 25.1486 39.6291 25.1486V24.1486ZM41.2779 24.1486H42.2779C42.2779 23.5963 41.8302 23.1486 41.2779 23.1486V24.1486ZM41.2779 39.6292V40.6292C41.8302 40.6292 42.2779 40.1815 42.2779 39.6292H41.2779ZM39.6291 39.6292V38.6292C39.0768 38.6292 38.6291 39.077 38.6291 39.6292H39.6291ZM39.6291 41.3635V42.3635C40.1814 42.3635 40.6291 41.9158 40.6291 41.3635H39.6291ZM24.1488 41.3635H23.1488C23.1488 41.9158 23.5965 42.3635 24.1488 42.3635V41.3635ZM24.1488 39.6292H25.1488C25.1488 39.077 24.7011 38.6292 24.1488 38.6292V39.6292ZM19.8515 39.6292V38.6292C19.2992 38.6292 18.8515 39.077 18.8515 39.6292H19.8515ZM19.8515 41.3635V42.3635C20.4038 42.3635 20.8515 41.9158 20.8515 41.3635H19.8515ZM4.37058 0.0732422V-0.926758H0.0732422V0.0732422V1.07324H4.37058V0.0732422ZM4.37058 1.63596H5.37058V0.0732422H4.37058H3.37058V1.63596H4.37058ZM19.8515 1.63596V0.635957H4.37058V1.63596V2.63596H19.8515V1.63596ZM19.8515 0.0732422H18.8515V1.63596H19.8515H20.8515V0.0732422H19.8515ZM24.1488 0.0732422V-0.926758H19.8515V0.0732422V1.07324H24.1488V0.0732422ZM24.1488 1.63596H25.1488V0.0732422H24.1488H23.1488V1.63596H24.1488ZM39.6291 1.63596V0.635957H24.1488V1.63596V2.63596H39.6291V1.63596ZM39.6291 0.0732422H38.6291V1.63596H39.6291H40.6291V0.0732422H39.6291ZM43.9265 0.0732422V-0.926758H39.6291V0.0732422V1.07324H43.9265V0.0732422ZM43.9265 4.37058H44.9265V0.0732422H43.9265H42.9265V4.37058H43.9265ZM42.2779 4.37058V5.37058H43.9265V4.37058V3.37058H42.2779V4.37058ZM42.2779 19.8513H43.2779V4.37058H42.2779H41.2779V19.8513H42.2779ZM43.9265 19.8513V18.8513H42.2779V19.8513V20.8513H43.9265V19.8513ZM43.9265 24.1486H44.9265V19.8513H43.9265H42.9265V24.1486H43.9265ZM42.2779 24.1486V25.1486H43.9265V24.1486V23.1486H42.2779V24.1486ZM42.2779 39.6292H43.2779V24.1486H42.2779H41.2779V39.6292H42.2779ZM43.9265 39.6292V38.6292H42.2779V39.6292V40.6292H43.9265V39.6292ZM43.9265 43.9266H44.9265V39.6292H43.9265H42.9265V43.9266H43.9265ZM39.6291 43.9266V44.9266H43.9265V43.9266V42.9266H39.6291V43.9266ZM39.6291 42.3635H38.6291V43.9266H39.6291H40.6291V42.3635H39.6291ZM24.1488 42.3635V43.3635H39.6291V42.3635V41.3635H24.1488V42.3635ZM24.1488 43.9266H25.1488V42.3635H24.1488H23.1488V43.9266H24.1488ZM19.8515 43.9266V44.9266H24.1488V43.9266V42.9266H19.8515V43.9266ZM19.8515 42.3635H18.8515V43.9266H19.8515H20.8515V42.3635H19.8515ZM4.37058 42.3635V43.3635H19.8515V42.3635V41.3635H4.37058V42.3635ZM4.37058 42.3635H3.37058V43.9266H4.37058H5.37058V42.3635H4.37058ZM4.37058 43.9266V42.9266H0.0732422V43.9266V44.9266H4.37058V43.9266ZM0.0732422 43.9266H1.07324V39.6292H0.0732422H-0.926758V43.9266H0.0732422ZM0.0732422 39.6292V40.6292H1.72225V39.6292V38.6292H0.0732422V39.6292ZM1.72225 24.1486H0.722253V39.6292H1.72225H2.72225V24.1486H1.72225ZM0.0732422 24.1486V25.1486H1.72225V24.1486V23.1486H0.0732422V24.1486ZM0.0732422 19.8513H-0.926758V24.1486H0.0732422H1.07324V19.8513H0.0732422ZM1.72225 19.8513V18.8513H0.0732422V19.8513V20.8513H1.72225V19.8513ZM1.72225 4.37058H0.722253V19.8513H1.72225H2.72225V4.37058H1.72225ZM0.0732422 4.37058V5.37058H1.72225V4.37058V3.37058H0.0732422V4.37058ZM0.0732422 0.0732422H-0.926758V4.37058H0.0732422H1.07324V0.0732422H0.0732422ZM4.37058 39.6292H3.37058V41.3635H4.37058H5.37058V39.6292H4.37058ZM2.72225 39.6292V40.6292H4.37058V39.6292V38.6292H2.72225V39.6292ZM2.72225 24.1486H1.72225V39.6292H2.72225H3.72225V24.1486H2.72225ZM4.37058 24.1486V23.1486H2.72225V24.1486V25.1486H4.37058V24.1486ZM4.37058 19.8513H3.37058V24.1486H4.37058H5.37058V19.8513H4.37058ZM2.72225 19.8513V20.8513H4.37058V19.8513V18.8513H2.72225V19.8513ZM2.72225 4.37058H1.72225V19.8513H2.72225H3.72225V4.37058H2.72225ZM4.37058 4.37058V3.37058H2.72225V4.37058V5.37058H4.37058V4.37058ZM4.37058 2.63596H3.37058V4.37058H4.37058H5.37058V2.63596H4.37058ZM19.8515 2.63596V1.63596H4.37058V2.63596V3.63596H19.8515V2.63596ZM19.8515 4.37058H20.8515V2.63596H19.8515H18.8515V4.37058H19.8515ZM24.1488 4.37058V3.37058H19.8515V4.37058V5.37058H24.1488V4.37058ZM24.1488 2.63596H23.1488V4.37058H24.1488H25.1488V2.63596H24.1488ZM39.6291 2.63596V1.63596H24.1488V2.63596V3.63596H39.6291V2.63596ZM39.6291 4.37058H40.6291V2.63596H39.6291H38.6291V4.37058H39.6291ZM41.2779 4.37058V3.37058H39.6291V4.37058V5.37058H41.2779V4.37058ZM41.2779 19.8513H42.2779V4.37058H41.2779H40.2779V19.8513H41.2779ZM39.6291 19.8513V20.8513H41.2779V19.8513V18.8513H39.6291V19.8513ZM39.6291 24.1486H40.6291V19.8513H39.6291H38.6291V24.1486H39.6291ZM41.2779 24.1486V23.1486H39.6291V24.1486V25.1486H41.2779V24.1486ZM41.2779 39.6292H42.2779V24.1486H41.2779H40.2779V39.6292H41.2779ZM39.6291 39.6292V40.6292H41.2779V39.6292V38.6292H39.6291V39.6292ZM39.6291 41.3635H40.6291V39.6292H39.6291H38.6291V41.3635H39.6291ZM24.1488 41.3635V42.3635H39.6291V41.3635V40.3635H24.1488V41.3635ZM24.1488 39.6292H23.1488V41.3635H24.1488H25.1488V39.6292H24.1488ZM19.8515 39.6292V40.6292H24.1488V39.6292V38.6292H19.8515V39.6292ZM19.8515 41.3635H20.8515V39.6292H19.8515H18.8515V41.3635H19.8515ZM4.37058 41.3635V42.3635H19.8515V41.3635V40.3635H4.37058V41.3635Z" fill="white" mask="url(#path-1-inside-1_314_540)"/>
<path d="M25.4545 23.0113C25.4545 24.9369 23.9169 26.4979 22.0202 26.4979M25.4545 23.0113C25.4545 21.0857 23.9169 19.5248 22.0202 19.5248M25.4545 23.0113H28M22.0202 26.4979C20.1235 26.4979 18.5859 24.9369 18.5859 23.0113C18.5859 21.0857 20.1235 19.5248 22.0202 19.5248M22.0202 26.4979V29M22.0202 19.5248V17M16 23.0113H18.5455" stroke="white" stroke-linecap="round" stroke-linejoin="round"/>
</svg>
