<svg width="44" height="44" viewBox="0 0 44 44" fill="none" xmlns="http://www.w3.org/2000/svg">
<path d="M3.5197 21.4867C3.5197 17.9631 5.17774 15.1067 7.22303 15.1067C9.26833 15.1067 10.9264 17.9631 10.9264 21.4867M3.5197 21.4867C3.5197 14.4395 6.83578 8.72668 10.9264 8.72668C15.017 8.72668 18.333 14.4395 18.333 21.4867M3.5197 21.4867C3.5197 10.9159 8.49382 2.34668 14.6297 2.34668C20.7656 2.34668 25.7397 10.9159 25.7397 21.4867M33.1464 21.4867C33.1464 17.9631 34.8044 15.1067 36.8497 15.1067C38.895 15.1067 40.553 17.9631 40.553 21.4867M18.333 26.4C18.333 29.9236 19.9911 32.78 22.0364 32.78C24.0817 32.78 25.7397 29.9236 25.7397 26.4M10.9264 26.4C10.9264 34.8242 15.9005 41.6533 22.0364 41.6533C28.1722 41.6533 33.1464 34.8242 33.1464 26.4M5.9397 23.9433C5.9397 25.3001 4.83981 26.4 3.48303 26.4C2.12625 26.4 1.02637 25.3001 1.02637 23.9433C1.02637 22.5866 2.12625 21.4867 3.48303 21.4867C4.83981 21.4867 5.9397 22.5866 5.9397 23.9433ZM13.3464 23.9433C13.3464 25.3001 12.2465 26.4 10.8897 26.4C9.53292 26.4 8.43303 25.3001 8.43303 23.9433C8.43303 22.5866 9.53292 21.4867 10.8897 21.4867C12.2465 21.4867 13.3464 22.5866 13.3464 23.9433ZM20.753 23.9433C20.753 25.3001 19.6531 26.4 18.2964 26.4C16.9396 26.4 15.8397 25.3001 15.8397 23.9433C15.8397 22.5866 16.9396 21.4867 18.2964 21.4867C19.6531 21.4867 20.753 22.5866 20.753 23.9433ZM28.1597 23.9433C28.1597 25.3001 27.0598 26.4 25.703 26.4C24.3463 26.4 23.2464 25.3001 23.2464 23.9433C23.2464 22.5866 24.3463 21.4867 25.703 21.4867C27.0598 21.4867 28.1597 22.5866 28.1597 23.9433ZM35.5664 23.9433C35.5664 25.3001 34.4665 26.4 33.1097 26.4C31.7529 26.4 30.653 25.3001 30.653 23.9433C30.653 22.5866 31.7529 21.4867 33.1097 21.4867C34.4665 21.4867 35.5664 22.5866 35.5664 23.9433ZM42.973 23.9433C42.973 25.3001 41.8731 26.4 40.5164 26.4C39.1596 26.4 38.0597 25.3001 38.0597 23.9433C38.0597 22.5866 39.1596 21.4867 40.5164 21.4867C41.8731 21.4867 42.973 22.5866 42.973 23.9433Z" stroke="white" stroke-linecap="round" stroke-linejoin="round"/>
</svg>
