<svg width="44" height="44" viewBox="0 0 44 44" fill="none" xmlns="http://www.w3.org/2000/svg">
<path d="M29.8255 5.89045L28.9771 14.1758M29.8255 5.89045L34.2971 8.74913M29.8255 5.89045H28.7076M27.1426 32.0902H19.541M27.1426 32.0902L27.991 23.8048M27.1426 32.0902L31.167 34.2735M19.541 32.0902L21.3855 33.1819M19.541 32.0902L20.2117 26.8503M19.541 32.0902H7.17758M37.8743 37.9124L38.6796 29.627M37.8743 37.9124L34.7442 36.2143M37.8743 37.9124H29.3784L26.5091 36.2143M21.8341 14.1758H28.9771M21.8341 14.1758L22.178 11.4887M21.8341 14.1758L20.7903 22.3302M28.9771 14.1758L39.5719 20.4459M28.9771 14.1758L27.991 23.8048M39.5719 20.4459L40.3337 12.6083L37.5315 10.8169M39.5719 20.4459L38.6796 29.627M20.6015 23.8048H27.991M20.6015 23.8048L20.2117 26.8503M20.6015 23.8048L20.7903 22.3302M27.991 23.8048L38.6796 29.627M37.5315 10.8169L34.7442 36.2143M37.5315 10.8169L34.2971 8.74913M34.7442 36.2143L31.167 34.2735M34.7442 36.2143H26.5091M34.2971 8.74913L31.167 34.2735M31.167 34.2735H23.23M26.5091 36.2143L23.23 34.2735M26.5091 36.2143L22.8946 39.4799M23.23 34.2735L21.3855 33.1819M28.7076 5.89045H22.8946L22.694 7.45796M28.7076 5.89045V4.54688H21.7767M3.66699 16.1912L8.18153 11.4887M3.66699 16.1912H10.9333M3.66699 16.1912L5.34812 23.8048M18.1995 16.1912L22.178 11.4887M18.1995 16.1912H10.9333M18.1995 16.1912L19.6368 23.8048M22.178 11.4887L22.694 7.45796M22.178 11.4887H8.18153M12.0511 7.45796L14.8459 4.54688H21.7767M12.0511 7.45796H22.694M12.0511 7.45796L8.18153 11.4887M10.9333 16.1912L21.7767 4.54688M10.9333 16.1912L15.7402 39.4799M22.8946 39.4799L21.3855 33.1819M22.8946 39.4799H15.7402M15.7402 39.4799H8.80927L7.17758 32.0902M5.34812 23.8048L7.17758 32.0902M5.34812 23.8048H19.6368M20.2117 26.8503L19.6368 23.8048M19.6368 23.8048L20.7903 22.3302" stroke="white" stroke-linecap="round" stroke-linejoin="round"/>
</svg>
