<svg width="44" height="44" viewBox="0 0 44 44" fill="none" xmlns="http://www.w3.org/2000/svg">
<path d="M17.7131 26.3394C20.3978 27.5244 23.5348 27.5957 26.3606 26.3486M17.7131 26.3394C18.056 23.2843 19.6807 20.6173 22.0363 18.8898M17.7131 26.3394C17.6684 26.7369 17.6455 27.141 17.6455 27.5505C17.6455 33.4763 22.4452 38.2801 28.3659 38.2801C34.2866 38.2801 39.0863 33.4763 39.0863 27.5505C39.0863 21.6247 34.2866 16.8209 28.3659 16.8209C25.9984 16.8209 23.8101 17.589 22.0363 18.8898M17.7131 26.3394C15.7026 25.452 13.9457 23.9401 12.7629 21.8897C9.80251 16.7578 11.5593 10.1956 16.6868 7.23274C21.8143 4.26984 28.3708 6.02816 31.3311 11.1601C34.2915 16.2919 32.5347 22.8541 27.4072 25.817C27.0642 26.0152 26.7149 26.1922 26.3606 26.3486M26.3606 26.3486C26.0199 23.2896 24.3943 20.619 22.0363 18.8898M26.3606 26.3486C26.4046 26.7431 26.4271 27.1442 26.4271 27.5505C26.4271 33.4763 21.6274 38.2801 15.7067 38.2801C9.78602 38.2801 4.98633 33.4763 4.98633 27.5505C4.98633 21.6247 9.78602 16.8209 15.7067 16.8209C18.0742 16.8209 20.2625 17.589 22.0363 18.8898M19.4786 21.5482L22.8852 19.5814M18.4824 23.3873L23.6849 20.3836M17.9622 24.9516L24.3817 21.2453M17.7326 26.348L24.9801 22.1637M19.0784 26.8349L25.4815 23.1381M20.6894 27.1687L25.884 24.1696M22.7679 27.2326L26.1825 25.2612" stroke="white" stroke-linecap="round" stroke-linejoin="round"/>
</svg>
