<svg width="32" height="32" viewBox="0 0 32 32" fill="none" xmlns="http://www.w3.org/2000/svg">
<rect width="32" height="32" rx="16" fill="#313131"/>
<path d="M21.0306 19.9695C21.1715 20.1104 21.2506 20.3015 21.2506 20.5007C21.2506 20.7 21.1715 20.8911 21.0306 21.032C20.8897 21.1729 20.6986 21.252 20.4993 21.252C20.3001 21.252 20.109 21.1729 19.9681 21.032L16 17.0626L12.0306 21.0307C11.8897 21.1716 11.6986 21.2508 11.4993 21.2508C11.3001 21.2508 11.109 21.1716 10.9681 21.0307C10.8272 20.8898 10.748 20.6987 10.748 20.4995C10.748 20.3002 10.8272 20.1091 10.9681 19.9682L14.9375 16.0001L10.9693 12.0307C10.8285 11.8898 10.7493 11.6987 10.7493 11.4995C10.7493 11.3002 10.8285 11.1091 10.9693 10.9682C11.1102 10.8273 11.3013 10.7482 11.5006 10.7482C11.6999 10.7482 11.891 10.8273 12.0318 10.9682L16 14.9376L19.9693 10.9676C20.1102 10.8267 20.3013 10.7476 20.5006 10.7476C20.6999 10.7476 20.891 10.8267 21.0318 10.9676C21.1727 11.1085 21.2519 11.2996 21.2519 11.4989C21.2519 11.6981 21.1727 11.8892 21.0318 12.0301L17.0625 16.0001L21.0306 19.9695Z" fill="white"/>
</svg>
