<svg width="24" height="24" viewBox="0 0 24 24" fill="none" xmlns="http://www.w3.org/2000/svg">
<path d="M11.9998 17.7508C13.7218 18.7469 15.7209 19.3174 17.8533 19.3174C19.3378 19.3174 20.7578 19.0407 22.0646 18.5367C19.9244 21.8254 16.2163 24 12 24C7.7838 24 4.07563 21.8255 1.93535 18.5369C3.24204 19.0408 4.66176 19.3174 6.14609 19.3174C8.27855 19.3174 10.2778 18.747 11.9998 17.7508ZM12 0C18.6274 0 24 5.37258 24 12C24 12.2336 23.9929 12.4656 23.9797 12.6959C22.519 14.4533 20.3171 15.5729 17.8533 15.5729C16.902 15.5728 15.9898 15.4056 15.1441 15.0996C16.8356 13.0697 17.8535 10.4588 17.8535 7.60996H14.109L14.1064 7.81543C14.0557 9.81741 13.2658 11.6354 11.9998 13.0076C10.6906 11.5886 9.89045 9.69286 9.89043 7.60996H6.14609L6.14707 7.76133C6.18244 10.5512 7.19382 13.1059 8.85527 15.0998C8.00959 15.4057 7.09734 15.5729 6.14609 15.5729C3.68264 15.5728 1.48074 14.4539 0.0201172 12.6969C0.00691205 12.4663 0 12.2339 0 12C0 5.37258 5.37258 0 12 0Z" fill="black"/>
</svg>
