<svg width="102" height="100" viewBox="0 0 102 100" fill="none" xmlns="http://www.w3.org/2000/svg">
<path d="M24.891 70.5938C25.1636 70.6225 25.4362 70.6512 25.7088 70.6799C25.9813 70.7086 26.2396 70.7229 26.5122 70.7516C26.7848 70.766 27.043 70.7947 27.3156 70.8091C27.5739 70.8234 27.8465 70.8378 28.1047 70.8521C28.363 70.8665 28.6356 70.8665 28.8938 70.8808C29.1521 70.8808 29.4103 70.8952 29.6686 70.8952C29.9268 70.8952 30.1851 70.8952 30.4433 70.8952C30.7016 70.8952 30.9598 70.8808 31.2181 70.8665C31.4763 70.8521 31.7346 70.8378 31.9785 70.8234C32.2224 70.8091 32.4806 70.7947 32.7389 70.766C32.9971 70.7373 33.241 70.7229 33.4993 70.6942C33.7575 70.6655 34.0014 70.6368 34.2597 70.5794C34.5179 70.522 34.7618 70.4646 35.0201 70.4072C35.2783 70.3498 35.5222 70.278 35.7661 70.2062C36.01 70.1344 36.2683 70.0483 36.5122 69.9766C36.7561 69.8904 37.0143 69.8043 37.2582 69.7182C37.5022 69.6321 37.7461 69.5316 38.0043 69.4311C38.2482 69.3307 38.4921 69.2302 38.736 69.1297C38.9799 69.0292 39.2238 68.9144 39.4677 68.7996C39.7116 68.6848 39.9555 68.5699 40.1994 68.4551C40.4433 68.3403 40.6872 68.2255 40.9311 68.0963C41.175 67.9815 41.4189 67.8523 41.6485 67.7231C41.878 67.5939 42.122 67.4647 42.3659 67.3356C42.6098 67.2064 42.8393 67.0772 43.0832 66.948C43.3271 66.8188 43.5567 66.6753 43.8006 66.5461C44.0301 66.417 44.274 66.2734 44.5036 66.1442C44.7331 66.0007 44.977 65.8715 45.2066 65.728C45.4362 65.5845 45.6801 65.4553 45.9096 65.3118C46.1392 65.1682 46.3687 65.039 46.6126 64.8955C46.8422 64.752 47.0717 64.6084 47.3013 64.4793C47.5308 64.3501 47.7604 64.1922 47.99 64.063C48.2195 63.9195 48.4491 63.776 48.6786 63.6468C48.9082 63.5176 49.1377 63.3741 49.3673 63.2305C49.5968 63.087 49.8264 62.9578 50.0416 62.8143C50.2568 62.6708 50.5007 62.5416 50.7159 62.398C50.9455 62.2545 51.1607 62.1253 51.3902 61.9962C51.6198 61.867 51.835 61.7234 52.0646 61.5943C52.2941 61.4651 52.5093 61.3359 52.7389 61.1924C52.9541 61.0632 53.1836 60.934 53.3989 60.8048C53.6141 60.6757 53.8436 60.5465 54.0588 60.4316C54.274 60.3025 54.5036 60.1876 54.7188 60.0585C54.934 59.9293 55.1636 59.8145 55.3788 59.6996C55.594 59.5848 55.8092 59.47 56.0387 59.3408C56.2683 59.2116 56.4692 59.1111 56.6987 58.9963C56.9139 58.8815 57.1291 58.781 57.3443 58.6662C57.5595 58.5514 57.7748 58.4509 57.99 58.3504C58.2052 58.25 58.4204 58.1495 58.6356 58.049C58.8508 57.9485 59.066 57.8481 59.2812 57.7619C59.4964 57.6758 59.7116 57.5754 59.9268 57.4749C60.142 57.3888 60.3572 57.2883 60.5725 57.2022C60.7877 57.116 61.0029 57.0299 61.2181 56.9438C61.4333 56.8577 61.6485 56.7859 61.8637 56.7142C62.0789 56.6424 62.2941 56.5706 62.495 56.4989C62.6958 56.4271 62.9254 56.3553 63.1263 56.2979C63.3415 56.2261 63.5567 56.1687 63.7575 56.1113C63.9727 56.0539 64.1736 55.9965 64.3888 55.9391C64.604 55.8817 64.8049 55.8386 65.0201 55.7812C65.2353 55.7238 65.4362 55.6951 65.6514 55.652C65.8666 55.609 66.0674 55.5659 66.2826 55.5372C66.4978 55.5085 66.6987 55.4654 66.9139 55.4367C67.1291 55.408 67.33 55.3793 67.5452 55.3649C67.7604 55.3362 67.9613 55.3219 68.1765 55.3075C68.3917 55.2932 68.5925 55.2932 68.8077 55.2788C69.023 55.2788 69.2238 55.2788 69.439 55.2788C69.6542 55.2788 69.8551 55.2788 70.0703 55.2788C70.2855 55.2788 70.4864 55.2932 70.7016 55.2932C70.9168 55.2932 71.1176 55.3075 71.3329 55.3219C71.5481 55.3362 71.7489 55.3362 71.9641 55.3506C72.1793 55.365 72.3946 55.3793 72.5954 55.3937C72.7963 55.408 73.0258 55.4224 73.2267 55.4367C73.4419 55.4511 73.6571 55.4654 73.8723 55.4941C74.0875 55.5228 74.3027 55.5372 74.5179 55.5515C74.7331 55.5659 74.9483 55.5946 75.1636 55.609C75.3788 55.6233 75.594 55.652 75.8092 55.6807C76.0244 55.7094 76.2396 55.7238 76.4548 55.7525C76.67 55.7812 76.8852 55.8099 77.1148 55.8243C77.33 55.853 77.5452 55.8817 77.7748 55.9104C77.99 55.9391 78.2195 55.9678 78.4347 55.9965C78.6499 56.0252 78.8795 56.0539 79.0947 56.0826C79.3099 56.1113 79.5395 56.14 79.7547 56.1687C79.9699 56.1974 80.1994 56.2261 80.429 56.2549C80.6585 56.2836 80.8737 56.3123 81.1033 56.341C81.3329 56.3697 81.5624 56.3984 81.7776 56.4271C82.0072 56.4558 82.2367 56.4845 82.4663 56.5132C82.6958 56.5419 82.9254 56.5706 83.1549 56.5993C83.3845 56.628 83.6141 56.6567 83.8436 56.6855C84.0732 56.7142 84.3027 56.7429 84.5466 56.7716C84.7905 56.8003 85.0201 56.829 85.2496 56.8577C85.4792 56.8864 85.7231 56.9151 85.9527 56.9438C86.1966 56.9725 86.4261 57.0012 86.67 57.0299C86.9139 57.0586 87.1435 57.0873 87.3874 57.116C87.6313 57.1448 87.8752 57.1735 88.1191 57.1878C88.363 57.2165 88.6069 57.2309 88.8508 57.2596C89.0947 57.2883 89.3386 57.3026 89.5825 57.3313C89.8264 57.3457 90.0703 57.3744 90.3285 57.3888C90.5868 57.4031 90.8307 57.4318 91.0746 57.4462C91.3329 57.4605 91.5768 57.4749 91.835 57.4892C92.0933 57.5036 92.3372 57.5179 92.5954 57.5323C92.8537 57.5466 93.1119 57.561 93.3702 57.561C93.6284 57.5754 93.8867 57.5754 94.1449 57.5897C94.4032 57.5897 94.6614 57.6041 94.934 57.6041C95.1923 57.6041 95.4649 57.6041 95.7231 57.6041C95.9814 57.6041 96.2539 57.6041 96.5265 57.5897C96.7991 57.5897 97.0717 57.5754 97.33 57.5754C97.6026 57.561 97.8752 57.561 98.1478 57.5466C98.4204 57.5323 98.693 57.5179 98.9799 57.5036M22.6241 66.5892C22.8967 66.6179 23.1693 66.6322 23.4419 66.661C23.7145 66.6897 23.9871 66.704 24.2597 66.7184C24.5323 66.7327 24.8049 66.7471 25.0632 66.7614C25.3358 66.7758 25.594 66.7901 25.8666 66.7901C26.1392 66.8045 26.3974 66.8045 26.6557 66.8188C26.9139 66.8188 27.1865 66.8332 27.4448 66.8332C27.703 66.8332 27.9613 66.8332 28.2339 66.8332C28.4921 66.8332 28.7504 66.8332 29.0086 66.8188C29.2669 66.8188 29.5251 66.8045 29.7834 66.7901C30.0416 66.7758 30.2999 66.7614 30.5438 66.7471C30.802 66.7327 31.0459 66.7184 31.3042 66.6897C31.5624 66.6753 31.8063 66.6466 32.0646 66.6179C32.3228 66.5892 32.5667 66.5748 32.8106 66.5461C33.0545 66.5174 33.3128 66.4887 33.5567 66.46C33.8006 66.4313 34.0589 66.4026 34.3028 66.3452C34.5467 66.3021 34.8049 66.2447 35.0488 66.1873C35.2927 66.1299 35.5366 66.0725 35.7805 66.0007C36.0244 65.9289 36.2683 65.8715 36.5122 65.7998C36.7561 65.728 37 65.6562 37.2439 65.5701C37.4878 65.4983 37.7317 65.4122 37.9756 65.3261C38.2195 65.24 38.4634 65.1539 38.693 65.0677C38.9226 64.9816 39.1665 64.8812 39.4104 64.795C39.6543 64.7089 39.8838 64.6084 40.1277 64.508C40.3716 64.4075 40.6012 64.307 40.8451 64.2065C41.089 64.1061 41.3185 64.0056 41.5481 63.9051C41.7776 63.8047 42.0216 63.7042 42.2511 63.5894C42.4807 63.4889 42.7246 63.3741 42.9541 63.2736C43.1837 63.1731 43.4132 63.0583 43.6571 62.9435C43.901 62.8286 44.1162 62.7282 44.3458 62.6133C44.5753 62.4985 44.8049 62.398 45.0345 62.2832C45.264 62.1684 45.4936 62.0536 45.7231 61.9531C45.9527 61.8526 46.1822 61.7234 46.4118 61.623C46.6413 61.5081 46.8709 61.3933 47.1005 61.2928C47.33 61.178 47.5596 61.0632 47.7748 60.9627C48.0043 60.8479 48.2195 60.7474 48.4491 60.6326C48.6786 60.5178 48.8939 60.4173 49.1234 60.3025C49.353 60.1876 49.5682 60.0872 49.7977 59.9723C50.0273 59.8575 50.2425 59.757 50.4721 59.6422C50.6873 59.5417 50.9168 59.4269 51.132 59.3264C51.3472 59.226 51.5768 59.1111 51.792 59.0107C52.0072 58.9102 52.2368 58.8097 52.452 58.7093C52.6672 58.6088 52.8967 58.5083 53.1119 58.4078C53.3271 58.3074 53.5567 58.2069 53.7719 58.1064C53.9871 58.0059 54.2023 57.9198 54.4319 57.8194C54.6471 57.7189 54.8623 57.6328 55.0775 57.5466C55.2927 57.4605 55.5079 57.36 55.7231 57.2739C55.9383 57.1878 56.1535 57.1017 56.3688 57.0156C56.584 56.9294 56.7992 56.8433 57.0144 56.7572C57.2296 56.6711 57.4448 56.5993 57.66 56.5132C57.8752 56.4271 58.0904 56.3553 58.3056 56.2836C58.5208 56.2118 58.736 56.14 58.9513 56.0683C59.1665 55.9965 59.3817 55.9247 59.5969 55.853C59.8121 55.7812 60.0273 55.7238 60.2425 55.652C60.4577 55.5946 60.6729 55.5228 60.8881 55.4654C61.1033 55.408 61.3185 55.3506 61.5337 55.2932C61.749 55.2358 61.9642 55.1784 62.1794 55.1353C62.3946 55.0779 62.6098 55.0348 62.825 54.9918C63.0402 54.9487 63.2554 54.8913 63.4563 54.8482C63.6715 54.8052 63.8867 54.7621 64.0875 54.719C64.2884 54.676 64.518 54.6473 64.7188 54.6042C64.9197 54.5612 65.1492 54.5325 65.3501 54.5037C65.551 54.475 65.7805 54.4463 65.9814 54.4176C66.1966 54.3889 66.4118 54.3746 66.6127 54.3602C66.8279 54.3459 67.0431 54.3315 67.2583 54.3172C67.4735 54.3028 67.6887 54.2884 67.9039 54.2884C68.1191 54.2741 68.3343 54.2741 68.5495 54.2597C68.7647 54.2454 68.9799 54.2454 69.1952 54.2454C69.4104 54.2454 69.6256 54.231 69.8408 54.231C70.056 54.231 70.2712 54.231 70.4864 54.231C70.7016 54.231 70.9168 54.231 71.132 54.231C71.3472 54.231 71.5624 54.231 71.7776 54.231C71.9929 54.231 72.2081 54.231 72.4376 54.2454C72.6528 54.2454 72.868 54.2597 73.0976 54.2597C73.3272 54.2597 73.5424 54.2741 73.7576 54.2741C73.9728 54.2741 74.2023 54.2884 74.4175 54.3028C74.6327 54.3172 74.8623 54.3172 75.0775 54.3315C75.2927 54.3459 75.5223 54.3459 75.7518 54.3602C75.9814 54.3746 76.1966 54.3889 76.4261 54.3889C76.6557 54.3889 76.8709 54.4176 77.1005 54.432C77.33 54.4463 77.5596 54.4607 77.7748 54.475C78.0043 54.4894 78.2339 54.5037 78.4634 54.5181C78.693 54.5325 78.9226 54.5468 79.1521 54.5612C79.3817 54.5755 79.6112 54.5899 79.8408 54.6042C80.0703 54.6186 80.2999 54.6329 80.5438 54.6473C80.7733 54.6616 81.0172 54.676 81.2468 54.6903C81.4764 54.7047 81.7203 54.719 81.9498 54.7334C82.1794 54.7478 82.4233 54.7621 82.6672 54.7765C82.9111 54.7908 83.1406 54.8052 83.3845 54.8195C83.6284 54.8339 83.858 54.8482 84.1019 54.8626C84.3458 54.8769 84.5897 54.8913 84.8336 54.8913C85.0775 54.9056 85.3214 54.92 85.5653 54.92C85.8092 54.9343 86.0531 54.9343 86.3114 54.9487C86.5553 54.9631 86.8135 54.9631 87.0574 54.9774C87.3013 54.9918 87.5596 54.9918 87.8035 55.0061C88.0617 55.0061 88.3056 55.0205 88.5639 55.0205C88.8221 55.0205 89.066 55.0348 89.3243 55.0348C89.5825 55.0348 89.8408 55.0348 90.099 55.0348C90.3573 55.0348 90.6155 55.0348 90.8738 55.0348C91.132 55.0348 91.3903 55.0348 91.6629 55.0348C91.9211 55.0348 92.1937 55.0348 92.452 55.0205C92.7246 55.0205 92.9828 55.0061 93.2554 55.0061C93.528 54.9918 93.8006 54.9918 94.0589 54.9774C94.3171 54.9631 94.604 54.9631 94.8766 54.9487C95.1492 54.9343 95.4218 54.92 95.7088 54.9056C95.9814 54.8913 96.2683 54.8769 96.5409 54.8482M20.3573 62.5272C20.6299 62.5416 20.9025 62.5559 21.1751 62.5559C21.4477 62.5703 21.7203 62.5703 21.9929 62.5846C22.2655 62.599 22.5381 62.599 22.7963 62.599C23.0546 62.599 23.3272 62.6133 23.5998 62.6133C23.8724 62.6133 24.1306 62.6133 24.4032 62.6133C24.6758 62.6133 24.9341 62.6133 25.1923 62.6133C25.4506 62.6133 25.7232 62.6133 25.9814 62.599C26.2397 62.599 26.4979 62.5846 26.7562 62.5846C27.0144 62.5703 27.2727 62.5703 27.5309 62.5559C27.7891 62.5416 28.0474 62.5272 28.2913 62.5129C28.5495 62.4985 28.7935 62.4842 29.0517 62.4698C29.31 62.4555 29.5539 62.4267 29.8121 62.4124C30.0704 62.398 30.3143 62.3693 30.5582 62.3406C30.8021 62.3119 31.0603 62.2976 31.3042 62.2689C31.5481 62.2402 31.792 62.2114 32.0503 62.1827C32.2942 62.154 32.5381 62.1253 32.782 62.0823C33.0259 62.0392 33.2698 62.0105 33.5137 61.9818C33.7576 61.9531 34.0015 61.91 34.2454 61.867C34.4893 61.8239 34.7332 61.7808 34.9627 61.7378C35.2067 61.6947 35.4362 61.6517 35.6801 61.5943C35.924 61.5512 36.1536 61.4938 36.3975 61.4364C36.6414 61.379 36.8709 61.3215 37.1148 61.2641C37.3444 61.2067 37.5883 61.1493 37.8178 61.0775C38.0474 61.0201 38.2913 60.9484 38.5209 60.8766C38.7504 60.8048 38.9943 60.7474 39.2239 60.6756C39.4534 60.6039 39.683 60.5321 39.9269 60.4603C40.1564 60.3886 40.386 60.3168 40.6155 60.245C40.8451 60.1733 41.0747 60.1015 41.3042 60.0154C41.5338 59.9436 41.7633 59.8575 41.9929 59.7857C42.2224 59.714 42.452 59.6279 42.6815 59.5561C42.9111 59.4843 43.1407 59.3982 43.3559 59.3121C43.5854 59.226 43.815 59.1542 44.0302 59.0681C44.2597 58.982 44.4749 58.9102 44.7045 58.8241C44.9341 58.738 45.1493 58.6662 45.3788 58.5801C45.6084 58.494 45.8236 58.4222 46.0531 58.3361C46.2827 58.2499 46.4979 58.1782 46.7131 58.0921C46.9283 58.0059 47.1579 57.9342 47.3731 57.8481C47.5883 57.7619 47.8178 57.6902 48.0331 57.6041C48.2483 57.5179 48.4778 57.4462 48.693 57.36C48.9082 57.2883 49.1378 57.2022 49.353 57.1304C49.5682 57.0586 49.7834 56.9725 50.013 56.9007C50.2282 56.829 50.4434 56.7429 50.6586 56.6711C50.8738 56.5993 51.089 56.5276 51.3042 56.4414C51.5194 56.3697 51.7346 56.2979 51.9498 56.2261C52.165 56.1544 52.3803 56.0826 52.5955 56.0108C52.8107 55.9391 53.0259 55.8673 53.2411 55.7955C53.4563 55.7238 53.6715 55.6664 53.8867 55.5946C54.1019 55.5228 54.3171 55.4654 54.5323 55.3937C54.7475 55.3362 54.9628 55.2645 55.178 55.2071C55.3932 55.1496 55.6084 55.0779 55.8236 55.0205C56.0388 54.9631 56.254 54.9056 56.4692 54.8482C56.6844 54.7908 56.8996 54.7334 57.1148 54.676C57.33 54.6186 57.5452 54.5612 57.7605 54.5181C57.9757 54.4607 58.1909 54.4176 58.3917 54.3602C58.6069 54.3172 58.8221 54.2597 59.023 54.2167C59.2382 54.1736 59.4534 54.1306 59.6543 54.0732C59.8695 54.0301 60.0847 53.987 60.2856 53.944C60.5008 53.9009 60.716 53.8579 60.9168 53.8291C61.1177 53.8004 61.3473 53.7574 61.5481 53.7143C61.7633 53.6856 61.9785 53.6426 62.1794 53.6138C62.3946 53.5851 62.6098 53.5564 62.8107 53.5277C63.0115 53.499 63.2411 53.4703 63.4419 53.4416C63.6572 53.4129 63.8724 53.3842 64.0876 53.3698C64.3028 53.3411 64.518 53.3268 64.7332 53.3124C64.9484 53.2981 65.1636 53.2694 65.3788 53.255C65.594 53.2407 65.8092 53.2263 66.0244 53.212C66.2397 53.1976 66.4549 53.1832 66.6701 53.1832C66.8853 53.1689 67.1005 53.1689 67.3157 53.1545C67.5309 53.1402 67.7461 53.1402 67.9613 53.1402C68.1765 53.1402 68.3917 53.1258 68.6069 53.1115C68.8221 53.0971 69.0374 53.0828 69.2669 53.0684C69.4821 53.0541 69.6973 53.0397 69.9269 53.0397C70.1421 53.0254 70.3717 53.0254 70.5869 53.011C70.8021 52.9967 71.0316 52.9967 71.2468 52.9823C71.462 52.9679 71.6916 52.968 71.9068 52.9536C72.122 52.9392 72.3516 52.9392 72.5811 52.9392C72.8107 52.9392 73.0259 52.9249 73.2554 52.9249C73.485 52.9249 73.7002 52.9105 73.9298 52.9105C74.1593 52.9105 74.3745 52.8962 74.6041 52.8962C74.8336 52.8962 75.0632 52.8818 75.2927 52.8818C75.5223 52.8818 75.7518 52.8675 75.9814 52.8675C76.211 52.8675 76.4405 52.8675 76.6701 52.8531C76.8996 52.8388 77.1292 52.8531 77.3587 52.8388C77.5883 52.8244 77.8178 52.8388 78.0617 52.8244C78.2913 52.8244 78.5352 52.8244 78.7648 52.8101C78.9943 52.8101 79.2382 52.8101 79.4678 52.7957C79.7117 52.7957 79.9412 52.7957 80.1851 52.7814C80.429 52.7814 80.6586 52.7814 80.9025 52.767C81.1464 52.767 81.3903 52.7527 81.6342 52.7527C81.8781 52.7527 82.122 52.7383 82.3659 52.7383C82.6098 52.7383 82.8537 52.7239 83.0976 52.7239C83.3415 52.7239 83.5854 52.7096 83.8437 52.7096C84.0876 52.7096 84.3458 52.6952 84.5897 52.6952C84.8336 52.6809 85.0919 52.6809 85.3501 52.6665C85.6084 52.6522 85.8523 52.6522 86.1105 52.6378C86.3688 52.6235 86.627 52.6235 86.8853 52.6091C87.1435 52.5948 87.4018 52.5948 87.66 52.5804C87.9183 52.5661 88.1765 52.5517 88.4348 52.5374C88.693 52.523 88.9656 52.5086 89.2239 52.4943C89.4821 52.4799 89.7547 52.4656 90.013 52.4512C90.2712 52.4369 90.5438 52.4225 90.8164 52.4082C91.089 52.3938 91.3616 52.3795 91.6342 52.3508C91.9068 52.3364 92.1794 52.3077 92.452 52.2933C92.7246 52.279 92.9972 52.2503 93.2841 52.2359C93.5711 52.2216 93.8437 52.1929 94.1163 52.1642M18.0764 58.6662C18.3633 58.6662 18.6359 58.6662 18.9085 58.6518C19.1811 58.6518 19.468 58.6518 19.7406 58.6375C20.0132 58.6375 20.2858 58.6231 20.5584 58.6231C20.831 58.6231 21.1036 58.6088 21.3762 58.6088C21.6488 58.6088 21.9214 58.5944 22.1797 58.5801C22.4523 58.5657 22.7105 58.5657 22.9831 58.5514C23.2557 58.537 23.5139 58.5227 23.7722 58.5083C24.0304 58.494 24.303 58.4796 24.5613 58.4652C24.8195 58.4509 25.0778 58.4365 25.336 58.4222C25.5943 58.4078 25.8525 58.3935 26.1108 58.3648C26.369 58.3504 26.6273 58.3217 26.8855 58.3074C27.1438 58.293 27.402 58.2643 27.6459 58.2356C27.9042 58.2069 28.1481 58.1925 28.4063 58.1638C28.6646 58.1351 28.9085 58.1064 29.1524 58.0921C29.3963 58.0634 29.6546 58.0347 29.8985 58.0059C30.1424 57.9772 30.4006 57.9485 30.6445 57.9198C30.8884 57.8911 31.1323 57.8624 31.3762 57.8194C31.6201 57.7763 31.864 57.7476 32.1079 57.7189C32.3518 57.6902 32.5957 57.6471 32.8396 57.6184C33.0835 57.5753 33.3274 57.5466 33.557 57.5036C33.8009 57.4605 34.0305 57.4318 34.2744 57.3888C34.5183 57.3457 34.7478 57.317 34.9917 57.2883C35.2213 57.2596 35.4652 57.2165 35.6947 57.1878C35.9243 57.1591 36.1682 57.116 36.3977 57.073C36.6273 57.0299 36.8712 57.0012 37.1008 56.9582C37.3303 56.9151 37.5599 56.872 37.8038 56.829C38.0333 56.7859 38.2629 56.7429 38.4924 56.6998C38.722 56.6567 38.9515 56.6137 39.1811 56.5563C39.4106 56.5132 39.6402 56.4558 39.8698 56.4127C40.0993 56.3697 40.3289 56.3123 40.5584 56.2692C40.788 56.2118 41.0175 56.1687 41.2327 56.1113C41.4623 56.0539 41.6775 56.0108 41.9071 55.9534C42.1366 55.896 42.3518 55.853 42.5814 55.7955C42.8109 55.7381 43.0261 55.6951 43.2557 55.6377C43.4853 55.5802 43.7005 55.5372 43.93 55.4798C44.1452 55.4224 44.3748 55.3793 44.59 55.3219C44.8052 55.2645 45.0348 55.2214 45.25 55.164C45.4652 55.1066 45.6947 55.0635 45.9099 55.0061C46.1251 54.9487 46.3547 54.9056 46.5699 54.8482C46.7851 54.7908 47.0147 54.7478 47.2299 54.6903C47.4451 54.6329 47.6603 54.5899 47.8898 54.5325C48.1194 54.475 48.3203 54.432 48.5355 54.3746C48.7507 54.3172 48.9659 54.2741 49.1811 54.2167C49.3963 54.1736 49.6115 54.1162 49.8267 54.0732C50.0419 54.0301 50.2571 53.9727 50.4723 53.9296C50.6876 53.8866 50.9028 53.8291 51.118 53.7861C51.3332 53.743 51.5484 53.6856 51.7636 53.6426C51.9788 53.5995 52.194 53.5564 52.4092 53.5134C52.6244 53.4703 52.8396 53.4273 53.0548 53.3842C53.2701 53.3411 53.4853 53.2981 53.7005 53.255C53.9157 53.212 54.1309 53.1689 54.3461 53.1258C54.5613 53.0828 54.7765 53.0397 54.9917 53.011C55.2069 52.968 55.4221 52.9392 55.6373 52.8962C55.8525 52.8531 56.0677 52.8244 56.283 52.7814C56.4982 52.7383 56.7134 52.7096 56.9286 52.6809C57.1438 52.6522 57.359 52.6091 57.5742 52.5804C57.7894 52.5517 58.0046 52.5087 58.2198 52.4799C58.435 52.4512 58.6502 52.4225 58.8655 52.3938C59.0807 52.3651 59.2959 52.3364 59.5111 52.3077C59.7263 52.279 59.9415 52.2503 60.1567 52.2216C60.3719 52.1929 60.5871 52.1642 60.8023 52.1498C61.0175 52.1211 61.2327 52.1068 61.448 52.0781C61.6632 52.0493 61.8784 52.035 62.0936 52.0063C62.3088 51.9776 62.524 51.9632 62.7392 51.9489C62.9544 51.9345 63.1696 51.9058 63.3848 51.8915C63.6 51.8771 63.8152 51.8628 64.0304 51.834C64.2457 51.8197 64.4609 51.8053 64.6761 51.791C64.8913 51.7766 65.1065 51.7623 65.3361 51.7479C65.5513 51.7336 65.7665 51.7192 65.996 51.7049C66.2112 51.6905 66.4408 51.6762 66.656 51.6762C66.8712 51.6618 67.1008 51.6618 67.316 51.6475C67.5312 51.6331 67.7607 51.6331 67.9759 51.6187C68.1911 51.6187 68.4207 51.59 68.6503 51.5757C68.8798 51.5613 69.095 51.5326 69.3246 51.5183C69.5541 51.5039 69.7693 51.4752 69.9989 51.4609C70.2284 51.4465 70.4436 51.4178 70.6732 51.4034C70.9028 51.3891 71.1323 51.3604 71.3619 51.346C71.5914 51.3317 71.821 51.3173 72.0505 51.2886C72.2801 51.2743 72.5097 51.2599 72.7392 51.2312C72.9688 51.2169 73.1983 51.2025 73.4279 51.1738C73.6574 51.1594 73.887 51.1451 74.1309 51.1164C74.3748 51.0877 74.6043 51.0877 74.8339 51.059C75.0634 51.0303 75.3073 51.0303 75.5369 51.0016C75.7808 50.9872 76.0104 50.9729 76.2543 50.9441C76.4982 50.9154 76.7277 50.9154 76.9716 50.8867C77.2155 50.8724 77.4594 50.858 77.689 50.8293C77.9329 50.815 78.1768 50.7863 78.4207 50.7719C78.6646 50.7576 78.9085 50.7288 79.1524 50.7145C79.3963 50.7001 79.6402 50.6714 79.8985 50.6571C80.1567 50.6427 80.4006 50.614 80.6445 50.5997C80.8884 50.5853 81.1467 50.5566 81.3906 50.5423C81.6488 50.5279 81.8927 50.4992 82.151 50.4848C82.4092 50.4705 82.6531 50.4418 82.9114 50.4274C83.1696 50.3987 83.4279 50.3844 83.6861 50.3557C83.9444 50.327 84.2026 50.3126 84.4609 50.2839C84.7191 50.2552 84.9774 50.2408 85.25 50.2121C85.5226 50.1834 85.7808 50.1691 86.0391 50.1404C86.2973 50.1117 86.5699 50.0973 86.8425 50.0686C87.1151 50.0399 87.3733 50.0112 87.6459 49.9968C87.9185 49.9681 88.1911 49.9394 88.4637 49.9107C88.7363 49.882 89.0089 49.8533 89.2815 49.8246C89.5541 49.7959 89.8267 49.7672 90.1137 49.7385C90.3863 49.7098 90.6732 49.6811 90.9458 49.6524C91.2327 49.6236 91.5053 49.5949 91.7923 49.5662M15.7523 55.1353C16.0393 55.1209 16.3118 55.1066 16.5988 55.0922C16.8714 55.0779 17.1583 55.0635 17.4309 55.0492C17.7035 55.0348 17.9761 55.0205 18.2487 54.9918C18.5213 54.9774 18.7939 54.9631 19.0665 54.9343C19.3391 54.92 19.6117 54.8913 19.87 54.8769C20.1426 54.8626 20.4008 54.8339 20.6734 54.8195C20.946 54.8052 21.2042 54.7765 21.4625 54.7621C21.7207 54.7478 21.9933 54.719 22.2516 54.7047C22.5098 54.6903 22.7681 54.6616 23.0407 54.6329C23.3133 54.6042 23.5572 54.5899 23.8154 54.5612C24.0737 54.5325 24.3319 54.5181 24.5902 54.4894C24.8484 54.4607 25.1067 54.4463 25.3506 54.4176C25.6088 54.3889 25.8527 54.3602 26.111 54.3459C26.3692 54.3315 26.6131 54.2884 26.857 54.2597C27.1009 54.231 27.3592 54.2023 27.6031 54.1736C27.847 54.1449 28.1053 54.1162 28.3492 54.0875C28.5931 54.0588 28.837 54.0301 29.0809 54.0014C29.3248 53.9727 29.5687 53.944 29.8126 53.9009C30.0565 53.8722 30.3004 53.8435 30.5443 53.8004C30.7882 53.7717 31.0321 53.7287 31.2616 53.7C31.5055 53.6713 31.7351 53.6282 31.979 53.5995C32.2229 53.5708 32.4525 53.5277 32.6964 53.499C32.9259 53.4703 33.1698 53.4273 33.3994 53.3985C33.6289 53.3698 33.8728 53.3268 34.1024 53.2837C34.3319 53.2407 34.5758 53.212 34.8054 53.1832C35.0349 53.1545 35.2645 53.1402 35.4941 53.1115C35.7236 53.0828 35.9532 53.0541 36.1827 53.0397C36.4123 53.011 36.6418 52.9823 36.8714 52.9536C37.1009 52.9249 37.3305 52.8962 37.5457 52.8675C37.7753 52.8388 38.0048 52.8101 38.22 52.7814C38.4352 52.7526 38.6648 52.7239 38.8943 52.6952C39.1239 52.6665 39.3391 52.6378 39.5687 52.5948C39.7982 52.5661 40.0134 52.5374 40.243 52.4943C40.4582 52.4656 40.6877 52.4225 40.903 52.3938C41.1182 52.3651 41.3477 52.3221 41.5629 52.2933C41.7781 52.2646 42.0077 52.2216 42.2229 52.1929C42.4381 52.1642 42.6677 52.1211 42.8829 52.0924C43.0981 52.0637 43.3133 52.0206 43.5428 51.9919C43.758 51.9632 43.9733 51.9202 44.2028 51.8915C44.418 51.8627 44.6332 51.8197 44.8484 51.791C45.0636 51.7623 45.2789 51.7192 45.4941 51.6905C45.7093 51.6618 45.9245 51.6331 46.1397 51.59C46.3549 51.5613 46.5701 51.5326 46.7853 51.4896C47.0005 51.4609 47.2157 51.4322 47.4309 51.3891C47.6461 51.346 47.8613 51.3317 48.0766 51.303C48.2918 51.2743 48.507 51.2456 48.7222 51.2169C48.9374 51.1881 49.1526 51.1594 49.3678 51.1307C49.583 51.102 49.7982 51.0733 50.0134 51.0446C50.2286 51.0159 50.4438 50.9872 50.659 50.9585C50.8743 50.9298 51.0895 50.9011 51.2903 50.8724C51.5055 50.8437 51.7207 50.815 51.9216 50.7863C52.1368 50.7575 52.352 50.7288 52.5529 50.7001C52.7681 50.6714 52.9833 50.6427 53.1842 50.6284C53.385 50.614 53.6146 50.571 53.8154 50.5566C54.0163 50.5422 54.2459 50.5135 54.4467 50.4848C54.6619 50.4561 54.8771 50.4418 55.078 50.4131C55.2932 50.3844 55.5084 50.37 55.7093 50.3413C55.9245 50.3126 56.1397 50.2982 56.3549 50.2695C56.5701 50.2408 56.7853 50.2265 57.0005 50.1978C57.2157 50.1691 57.4309 50.1547 57.6461 50.126C57.8613 50.1117 58.0766 50.0829 58.2918 50.0686C58.507 50.0542 58.7222 50.0255 58.9374 50.0112C59.1526 49.9968 59.3678 49.9681 59.583 49.9538C59.7982 49.9394 60.0134 49.9107 60.2286 49.8964C60.4438 49.882 60.6591 49.8533 60.8743 49.8389C61.0895 49.8246 61.3047 49.7959 61.5199 49.7815C61.7351 49.7672 61.9503 49.7385 62.1655 49.7241C62.3807 49.7098 62.5959 49.6811 62.8255 49.6667C63.055 49.6523 63.2559 49.6236 63.4855 49.6093C63.715 49.5949 63.9302 49.5662 64.1454 49.5519C64.3606 49.5375 64.5902 49.5088 64.8054 49.4945C65.0206 49.4801 65.2502 49.4514 65.4654 49.4227C65.6949 49.394 65.9101 49.3796 66.1397 49.3509C66.3692 49.3222 66.5844 49.3079 66.814 49.2792C67.0436 49.2505 67.2588 49.2361 67.4883 49.2074C67.7179 49.1787 67.9474 49.1643 68.1626 49.1356C68.3922 49.1069 68.6217 49.0782 68.8513 49.0639C69.0809 49.0352 69.3104 49.0065 69.54 48.9921C69.7695 48.9634 69.9991 48.9347 70.2286 48.9203C70.4582 48.906 70.6877 48.8629 70.9173 48.8342C71.1469 48.8055 71.3764 48.7768 71.6203 48.7481C71.8499 48.7194 72.0938 48.6907 72.3233 48.662C72.5529 48.6333 72.7968 48.6046 73.0263 48.5759C73.2702 48.5471 73.4998 48.5184 73.7437 48.4897C73.9876 48.461 74.2172 48.4323 74.4611 48.4036C74.705 48.3749 74.9489 48.3462 75.1784 48.3175C75.4223 48.2888 75.6662 48.2601 75.9101 48.2314C76.154 48.2027 76.3979 48.174 76.6418 48.1453C76.8857 48.1166 77.1296 48.0878 77.3879 48.0591C77.6461 48.0304 77.89 48.0017 78.1339 47.973C78.3778 47.9443 78.6361 47.9156 78.88 47.8869C79.1382 47.8582 79.3821 47.8295 79.6404 47.8008C79.8986 47.7721 80.1425 47.7434 80.4008 47.7147C80.659 47.686 80.9173 47.6572 81.1755 47.6285C81.4338 47.5998 81.6921 47.5711 81.9503 47.5424C82.2086 47.5137 82.4668 47.485 82.7394 47.4563C82.9976 47.4276 83.2702 47.3989 83.5285 47.3702C83.7867 47.3415 84.0593 47.3128 84.3319 47.2841C84.6045 47.2554 84.8628 47.2266 85.1354 47.1979C85.408 47.1692 85.6806 47.1405 85.9532 47.1262C86.2258 47.0975 86.4984 47.0688 86.771 47.0544C87.0436 47.0257 87.3161 46.997 87.6031 46.9826C87.89 46.9683 88.1626 46.9252 88.4352 46.9109C88.7222 46.8822 88.9948 46.8535 89.2817 46.8391M13.3844 52.035C13.6713 52.0063 13.9439 51.9776 14.2308 51.9632C14.5034 51.9345 14.7904 51.9058 15.063 51.8915C15.3356 51.8771 15.6225 51.834 15.8951 51.8197C16.1677 51.8053 16.4403 51.7623 16.7129 51.7479C16.9855 51.7192 17.2581 51.6905 17.5307 51.6762C17.8033 51.6474 18.0616 51.6187 18.3342 51.6044C18.6067 51.5757 18.865 51.547 19.1376 51.5326C19.4102 51.5183 19.6684 51.4752 19.9267 51.4465C20.1849 51.4178 20.4575 51.3891 20.7158 51.3604C20.974 51.3317 21.2323 51.303 21.4905 51.2743C21.7488 51.2456 22.007 51.2169 22.2653 51.1881C22.5235 51.1594 22.7818 51.1307 23.0257 51.102C23.2839 51.0733 23.5278 51.0446 23.7861 51.0159C24.0443 50.9872 24.2882 50.9585 24.5321 50.9298C24.776 50.9011 25.0343 50.8724 25.2782 50.8437C25.5221 50.815 25.7803 50.7863 26.0243 50.7575C26.2682 50.7288 26.5121 50.7001 26.756 50.6714C26.9999 50.6427 27.2438 50.614 27.4877 50.5853C27.7316 50.5566 27.9755 50.5279 28.2194 50.4992C28.4633 50.4705 28.7072 50.4418 28.9367 50.4131C29.1806 50.3844 29.4102 50.3557 29.6541 50.3269C29.898 50.2982 30.1276 50.2695 30.3571 50.2408C30.5867 50.2121 30.8306 50.1834 31.0601 50.1547C31.2897 50.126 31.5336 50.0973 31.7631 50.0686C31.9927 50.0399 32.2222 50.0112 32.4661 49.9825C32.6957 49.9538 32.9253 49.9251 33.1548 49.8964C33.3844 49.8676 33.6139 49.8389 33.8435 49.8246C34.073 49.7959 34.3026 49.7672 34.5321 49.7528C34.7617 49.7241 34.9913 49.7098 35.2065 49.6811C35.4217 49.6523 35.6512 49.638 35.8808 49.6093C36.1103 49.5806 36.3255 49.5662 36.5551 49.5375C36.7847 49.5088 36.9999 49.4945 37.2294 49.4658C37.459 49.437 37.6742 49.4227 37.8894 49.394C38.1046 49.3796 38.3342 49.3509 38.5494 49.3366C38.7646 49.3222 38.9941 49.2935 39.2093 49.2792C39.4245 49.2648 39.6541 49.2361 39.8693 49.2217C40.0845 49.2074 40.2997 49.1787 40.5293 49.1643C40.7588 49.15 40.9597 49.1213 41.1749 49.1069C41.3901 49.0926 41.6053 49.0639 41.8205 49.0495C42.0357 49.0352 42.2509 49.0065 42.4661 48.9921C42.6814 48.9777 42.8966 48.949 43.1118 48.9347C43.327 48.9203 43.5422 48.8916 43.7574 48.8773C43.9726 48.8629 44.1878 48.8342 44.403 48.8199C44.6182 48.8055 44.8334 48.7768 45.0486 48.7624C45.2639 48.7481 45.4791 48.7194 45.6943 48.705C45.9095 48.6763 46.1247 48.662 46.3399 48.6333C46.5551 48.6046 46.7703 48.5902 46.9712 48.5615C47.1864 48.5328 47.4016 48.5184 47.6024 48.4897C47.8177 48.461 48.0329 48.4467 48.2337 48.418C48.4489 48.3893 48.6641 48.3749 48.865 48.3462C49.0659 48.3175 49.2954 48.3031 49.4963 48.2744C49.7115 48.2457 49.9267 48.2314 50.1276 48.2027C50.3428 48.174 50.558 48.1453 50.7588 48.1309C50.9597 48.1165 51.1892 48.0735 51.3901 48.0448C51.6053 48.0161 51.8205 47.9874 52.0214 47.9587C52.2366 47.93 52.4518 47.9012 52.6527 47.8725C52.8535 47.8438 53.0831 47.8151 53.2839 47.7864C53.4991 47.7577 53.7144 47.729 53.9152 47.7003C54.1304 47.6716 54.3456 47.6429 54.5608 47.6142C54.776 47.5855 54.9913 47.5568 55.2065 47.5281C55.4217 47.4994 55.6369 47.4707 55.8521 47.4419C56.0673 47.4132 56.2825 47.3845 56.4977 47.3558C56.7129 47.3271 56.9281 47.2984 57.1433 47.2554C57.3585 47.2123 57.5738 47.1979 57.789 47.1549C58.0042 47.1262 58.2194 47.0975 58.4346 47.0544C58.6498 47.0257 58.865 46.997 59.0802 46.9539C59.2954 46.9109 59.5106 46.8965 59.7258 46.8535C59.941 46.8248 60.1562 46.796 60.3858 46.753C60.6154 46.7099 60.8306 46.6956 61.0458 46.6525C61.261 46.6095 61.4905 46.5951 61.7057 46.552C61.921 46.509 62.1505 46.4946 62.3657 46.4516C62.5809 46.4229 62.8105 46.3942 63.0257 46.3655C63.2409 46.3367 63.4705 46.308 63.7 46.2793C63.9296 46.2506 64.1448 46.2219 64.3743 46.1932C64.6039 46.1645 64.8191 46.1358 65.0486 46.1071C65.2782 46.0784 65.5078 46.0497 65.723 46.021C65.9525 45.9923 66.1821 45.9636 66.4116 45.9492C66.6412 45.9205 66.8707 45.9061 67.1003 45.8774C67.3299 45.8487 67.5594 45.8344 67.789 45.8057C68.0185 45.777 68.2481 45.7483 68.4776 45.7196C68.7072 45.6908 68.9367 45.6478 69.1806 45.6191C69.4102 45.5904 69.6541 45.5473 69.8837 45.5186C70.1132 45.4899 70.3571 45.4468 70.5867 45.4181C70.8306 45.3894 71.0601 45.3464 71.304 45.3177C71.5479 45.289 71.7775 45.2602 72.0214 45.2172C72.2653 45.1885 72.5092 45.1598 72.7387 45.1311C72.9683 45.1024 73.2265 45.0737 73.4705 45.045C73.7144 45.0162 73.9583 44.9875 74.2022 44.9588C74.4461 44.9301 74.69 44.9014 74.9482 44.8727C75.1921 44.844 75.4504 44.8153 75.6943 44.7866C75.9382 44.7579 76.1964 44.7292 76.4403 44.7005C76.6842 44.6718 76.9425 44.6431 77.2007 44.6287C77.459 44.6144 77.7029 44.5713 77.9611 44.5569C78.2194 44.5282 78.4776 44.5139 78.7359 44.4852C78.9941 44.4565 79.2524 44.4421 79.5106 44.4134C79.7689 44.3847 80.0271 44.3703 80.2997 44.3416C80.558 44.3129 80.8306 44.2986 81.0888 44.2699C81.3471 44.2412 81.6197 44.2268 81.8923 44.2125C82.1649 44.1981 82.4231 44.1694 82.6957 44.1551C82.9683 44.1407 83.2409 44.112 83.5135 44.0976C83.7861 44.0833 84.0587 44.0546 84.3313 44.0402C84.6039 44.0259 84.8765 43.9972 85.1634 43.9828C85.4504 43.9685 85.723 43.9397 85.9956 43.9254C86.2682 43.911 86.5551 43.8967 86.842 43.868M10.989 49.3222C11.2759 49.2935 11.5485 49.2648 11.8355 49.2361C12.1224 49.2074 12.395 49.1787 12.6676 49.15C12.9402 49.1213 13.2271 49.0926 13.4997 49.0639C13.7723 49.0352 14.0449 49.0065 14.3175 48.9777C14.5901 48.949 14.8627 48.9203 15.1353 48.8916C15.4079 48.8629 15.6805 48.8342 15.9388 48.8199C16.2114 48.7912 16.4696 48.7625 16.7422 48.7481C17.0005 48.7194 17.2731 48.705 17.5313 48.6763C17.7896 48.6476 18.0622 48.6333 18.3204 48.6046C18.5787 48.5759 18.8369 48.5615 19.0952 48.5328C19.3534 48.5041 19.6117 48.4897 19.8699 48.461C20.1282 48.4467 20.3864 48.418 20.6303 48.4036C20.8742 48.3893 21.1325 48.3606 21.3907 48.3462C21.649 48.3319 21.8929 48.3031 22.1368 48.2888C22.3807 48.2744 22.6389 48.2457 22.8828 48.2314C23.1267 48.217 23.3706 48.1883 23.6289 48.174C23.8728 48.1596 24.1167 48.1453 24.3606 48.1166C24.6045 48.0878 24.8484 48.0879 25.0923 48.0591C25.3362 48.0448 25.5801 48.0304 25.8096 48.0017C26.0535 47.9874 26.2831 47.973 26.527 47.9587C26.7709 47.9443 27.0005 47.93 27.2444 47.9156C27.4883 47.9013 27.7178 47.8869 27.9474 47.8725C28.1769 47.8582 28.4208 47.8438 28.6504 47.8295C28.8799 47.8151 29.1238 47.8008 29.3534 47.7864C29.583 47.7721 29.8125 47.7577 30.0421 47.7434C30.2716 47.729 30.5012 47.7147 30.7307 47.7003C30.9603 47.686 31.1898 47.6716 31.4194 47.6429C31.649 47.6285 31.8785 47.6142 32.1081 47.5855C32.3376 47.5711 32.5672 47.5568 32.7824 47.5281C32.9976 47.4994 33.2271 47.485 33.4567 47.4707C33.6863 47.4563 33.9015 47.4276 34.131 47.4132C34.3606 47.3989 34.5758 47.3702 34.8053 47.3702C35.0349 47.3702 35.2501 47.3558 35.4653 47.3558C35.6805 47.3415 35.9101 47.3415 36.1253 47.3271C36.3405 47.3128 36.57 47.3128 36.7853 47.2984C37.0005 47.2841 37.23 47.2697 37.4452 47.2697C37.6604 47.2697 37.8756 47.241 38.1052 47.2267C38.3204 47.2123 38.5356 47.1979 38.7508 47.1836C38.966 47.1692 39.1812 47.1549 39.3964 47.1405C39.6117 47.1262 39.8269 47.1118 40.0421 47.0831C40.2573 47.0544 40.4725 47.0401 40.6877 47.0257C40.9029 47.0114 41.1181 46.9826 41.3333 46.9683C41.5485 46.9539 41.7637 46.9252 41.9789 46.8965C42.1941 46.8678 42.4094 46.8535 42.6246 46.8248C42.8398 46.7961 43.055 46.7673 43.2702 46.753C43.4854 46.7243 43.7006 46.6956 43.9158 46.6669C44.131 46.6382 44.3462 46.6095 44.5471 46.5808C44.7623 46.5521 44.9775 46.5233 45.1784 46.4946C45.3936 46.4659 45.6088 46.4372 45.8096 46.3942C46.0105 46.3511 46.2401 46.3224 46.4409 46.2937C46.6561 46.265 46.8713 46.2219 47.0722 46.1932C47.2874 46.1502 47.5026 46.1215 47.7035 46.0784C47.9187 46.0353 48.1339 46.0066 48.3347 45.9636C48.55 45.9205 48.7652 45.8774 48.966 45.8487C49.1812 45.8057 49.3964 45.7626 49.5973 45.7196C49.7982 45.6765 50.0277 45.6334 50.2286 45.5904C50.4438 45.5473 50.659 45.5043 50.8599 45.4612C51.0751 45.4181 51.2903 45.3751 51.4911 45.332C51.692 45.289 51.9216 45.2459 52.1368 45.1885C52.352 45.1454 52.5672 45.088 52.7824 45.045C52.9976 45.0019 53.2128 44.9445 53.428 44.9014C53.6432 44.8584 53.8584 44.801 54.0736 44.7579C54.2888 44.7148 54.504 44.6574 54.7193 44.6144C54.9345 44.5713 55.1497 44.5139 55.3649 44.4565C55.5801 44.3991 55.7953 44.356 56.0105 44.2986C56.2257 44.2412 56.4409 44.1981 56.6561 44.1407C56.8713 44.0833 57.0865 44.0402 57.3017 43.9828C57.517 43.9254 57.7322 43.8823 57.9617 43.8249C58.1769 43.7675 58.3921 43.7245 58.6217 43.667C58.8513 43.6096 59.0665 43.5666 59.2817 43.5092C59.4969 43.4517 59.7264 43.4087 59.9416 43.3513C60.1568 43.2939 60.3864 43.2508 60.6016 43.1934C60.8168 43.136 61.0464 43.0929 61.2759 43.0355C61.5055 42.9924 61.7207 42.935 61.9502 42.892C62.1798 42.8489 62.395 42.7915 62.6246 42.7484C62.8541 42.7054 63.0837 42.648 63.2989 42.6049C63.5284 42.5618 63.758 42.5188 63.9876 42.4757C64.2171 42.4327 64.4467 42.3896 64.6762 42.3465C64.9058 42.3035 65.1353 42.2604 65.3649 42.2174C65.5944 42.1743 65.824 42.1456 66.0535 42.1025C66.2831 42.0595 66.5127 42.0308 66.7566 42.0021C66.9861 41.9734 67.23 41.9303 67.4596 41.9016C67.6891 41.8729 67.933 41.8442 68.1626 41.8155C68.4065 41.7724 68.636 41.7437 68.8799 41.7007C69.1238 41.6576 69.3534 41.6289 69.5973 41.5858C69.8412 41.5571 70.0851 41.5141 70.3147 41.4854C70.5586 41.4566 70.8025 41.4136 71.0464 41.3849C71.2903 41.3562 71.5342 41.3275 71.7781 41.2988C72.022 41.2701 72.2659 41.2413 72.5241 41.2126C72.768 41.1839 73.0263 41.1552 73.2702 41.1265C73.5141 41.0978 73.7723 41.0691 74.0162 41.0548C74.2745 41.026 74.5184 41.0117 74.7767 40.983C75.0349 40.9543 75.2788 40.9399 75.537 40.9112C75.7953 40.8825 76.0535 40.8682 76.3118 40.8538C76.57 40.8395 76.8283 40.8107 77.0865 40.7964C77.3448 40.782 77.603 40.7677 77.8756 40.739C78.1339 40.7246 78.4065 40.7103 78.6647 40.6959C78.923 40.6816 79.1956 40.6672 79.4682 40.6529C79.7408 40.6385 79.999 40.6242 80.2716 40.6098C80.5442 40.5955 80.8168 40.5811 81.0894 40.5811C81.362 40.5667 81.6346 40.5667 81.9072 40.5524C82.1798 40.538 82.4524 40.538 82.7393 40.5237C83.0119 40.5093 83.2989 40.5093 83.5715 40.495C83.8584 40.495 84.131 40.4806 84.418 40.4806M8.57871 46.6812C8.86566 46.6525 9.13826 46.6382 9.4252 46.6095C9.71214 46.5951 9.98474 46.5664 10.2573 46.552C10.5299 46.5377 10.8169 46.509 11.0895 46.4946C11.3621 46.4803 11.6347 46.4659 11.9073 46.4372C12.1799 46.4229 12.4525 46.4085 12.7251 46.3942C12.9977 46.3798 13.2559 46.3655 13.5285 46.3511C13.8011 46.3367 14.0593 46.3224 14.3319 46.308C14.5902 46.2937 14.8628 46.2793 15.121 46.2793C15.3793 46.2793 15.6375 46.265 15.9101 46.2506C16.1827 46.2363 16.4266 46.2363 16.6849 46.2219C16.9431 46.2076 17.2014 46.2076 17.4596 46.2076C17.7179 46.2076 17.9761 46.1932 18.22 46.1932C18.4783 46.1932 18.7222 46.1789 18.9804 46.1789C19.2387 46.1789 19.4826 46.1645 19.7265 46.1645C19.9704 46.1645 20.2286 46.1645 20.4725 46.1502C20.7164 46.1502 20.9604 46.1502 21.2186 46.1502C21.4625 46.1502 21.7064 46.1502 21.9503 46.1502C22.1942 46.1502 22.4381 46.1502 22.682 46.1502C22.9259 46.1502 23.1698 46.1502 23.3994 46.1502C23.6433 46.1502 23.8728 46.1502 24.1167 46.1502C24.3606 46.1502 24.5902 46.1502 24.8341 46.1502C25.078 46.1502 25.3076 46.1502 25.5371 46.1502C25.7667 46.1502 26.0106 46.1502 26.2401 46.1502C26.4697 46.1502 26.7136 46.1502 26.9431 46.1502C27.1727 46.1502 27.4022 46.1502 27.6318 46.1502C27.8614 46.1502 28.0909 46.1502 28.3205 46.1502C28.55 46.1502 28.7796 46.1502 29.0091 46.1358C29.2387 46.1358 29.4682 46.1358 29.6978 46.1214C29.9274 46.1214 30.1569 46.1071 30.3721 46.1071C30.6017 46.1071 30.8169 46.0927 31.0464 46.0927C31.276 46.0927 31.4912 46.0784 31.7208 46.0784C31.9503 46.0784 32.1655 46.064 32.3951 46.0497C32.6103 46.0353 32.8398 46.0353 33.055 46.021C33.2703 46.0066 33.4998 46.0066 33.715 45.9923C33.9302 45.9779 34.1598 45.9636 34.375 45.9492C34.5902 45.9349 34.8197 45.9349 35.035 45.9349C35.2502 45.9349 35.4654 45.9349 35.6949 45.9205C35.9101 45.9205 36.1253 45.9061 36.3405 45.8918C36.5558 45.8774 36.771 45.8774 36.9862 45.8631C37.2014 45.8487 37.4166 45.8344 37.6318 45.82C37.847 45.8057 38.0622 45.7913 38.2774 45.7626C38.4926 45.7483 38.7078 45.7196 38.923 45.7052C39.1383 45.6765 39.3535 45.6621 39.5687 45.6334C39.7839 45.6047 39.9991 45.576 40.2143 45.5473C40.4295 45.5186 40.6447 45.4899 40.8599 45.4612C41.0751 45.4325 41.2903 45.3894 41.5055 45.3607C41.7208 45.332 41.936 45.289 42.1368 45.2459C42.352 45.2028 42.5672 45.1741 42.7681 45.1311C42.9833 45.088 43.1985 45.045 43.3994 45.0019C43.6146 44.9588 43.8298 44.9158 44.0307 44.8584C44.2459 44.8153 44.4611 44.7579 44.6619 44.7148C44.8771 44.6718 45.0923 44.6144 45.2932 44.5569C45.5084 44.4995 45.7236 44.4565 45.9245 44.3991C46.1253 44.3416 46.3549 44.2842 46.5558 44.2268C46.771 44.1694 46.9862 44.112 47.187 44.0546C47.4022 43.9972 47.6175 43.9397 47.8183 43.868C48.0335 43.8106 48.2487 43.7388 48.4496 43.6814C48.6648 43.624 48.88 43.5522 49.0809 43.4804C49.2817 43.4087 49.5113 43.3513 49.7265 43.2795C49.9417 43.2077 50.1569 43.136 50.3721 43.0786C50.5873 43.0068 50.8025 42.935 51.0177 42.8633C51.2329 42.7915 51.4482 42.7197 51.6634 42.648C51.8786 42.5762 52.0938 42.5044 52.309 42.4327C52.5242 42.3609 52.7394 42.2891 52.9546 42.203C53.1698 42.1169 53.385 42.0451 53.6002 41.9734C53.8154 41.9016 54.0306 41.8155 54.2459 41.7437C54.4611 41.6719 54.6763 41.5858 54.8915 41.514C55.1067 41.4423 55.3219 41.3562 55.5515 41.2844C55.781 41.2126 55.9819 41.1265 56.2114 41.0404C56.4266 40.9543 56.6562 40.8825 56.8714 40.7964C57.0866 40.7103 57.3162 40.6385 57.5314 40.5524C57.7466 40.4663 57.9761 40.3945 58.1913 40.3084C58.4065 40.2223 58.6361 40.1505 58.8657 40.0787C59.0952 40.007 59.3104 39.9208 59.54 39.8491C59.7695 39.7773 59.9847 39.6912 60.2143 39.6194C60.4438 39.5477 60.6734 39.4615 60.8886 39.3898C61.1182 39.318 61.3477 39.2462 61.5773 39.1745C61.8068 39.1027 62.0364 39.0309 62.2659 38.9592C62.4955 38.8874 62.7251 38.8156 62.9546 38.7439C63.1842 38.6721 63.4137 38.6147 63.6433 38.5429C63.8728 38.4712 64.1024 38.4137 64.3463 38.3563C64.5758 38.2989 64.8197 38.2272 65.0493 38.1697C65.2789 38.1123 65.5228 38.0549 65.7523 37.9975C65.9962 37.9401 66.2258 37.897 66.4697 37.8396C66.7136 37.7822 66.9431 37.7391 67.187 37.6961C67.4309 37.653 67.6748 37.61 67.9044 37.5669C68.134 37.5238 68.3922 37.4951 68.6361 37.4521C68.88 37.4234 69.1239 37.3803 69.3678 37.3516C69.6117 37.3229 69.8556 37.2798 70.1139 37.2511C70.3578 37.2224 70.616 37.1937 70.8599 37.165C71.1038 37.1363 71.3621 37.1076 71.606 37.0932C71.8499 37.0789 72.1081 37.0502 72.3664 37.0215C72.6246 36.9928 72.8685 36.9784 73.1268 36.9641C73.385 36.9497 73.6433 36.921 73.9015 36.9067C74.1598 36.8923 74.418 36.8779 74.6763 36.8636C74.9345 36.8492 75.1928 36.8349 75.4654 36.8205C75.7236 36.8062 75.9962 36.7918 76.2545 36.7918C76.5127 36.7775 76.7853 36.7775 77.0579 36.7631C77.3305 36.7631 77.5888 36.7488 77.8614 36.7488C78.1339 36.7488 78.4065 36.7344 78.6791 36.7344C78.9517 36.7344 79.2243 36.7344 79.4969 36.7344C79.7695 36.7344 80.0421 36.7344 80.3291 36.7344C80.616 36.7344 80.8886 36.7344 81.1612 36.7488C81.4482 36.7488 81.7207 36.7631 82.0077 36.7631M6.16766 44.0976C6.4546 44.0833 6.7272 44.0689 7.01414 44.0546C7.30109 44.0402 7.57369 44.0259 7.84628 44.0115C8.11888 43.9972 8.40582 43.9972 8.67842 43.9828C8.95102 43.9685 9.22361 43.9685 9.49621 43.9685C9.76881 43.9685 10.0414 43.9541 10.314 43.9541C10.5866 43.9541 10.8448 43.9541 11.1174 43.9541C11.39 43.9541 11.6483 43.9541 11.9209 43.9541C12.1791 43.9541 12.4517 43.9541 12.71 43.9685C12.9682 43.9685 13.2265 43.9828 13.4991 43.9828C13.7573 43.9828 14.0156 43.9972 14.2738 44.0115C14.5321 44.0259 14.7903 44.0259 15.0486 44.0402C15.3068 44.0546 15.5651 44.0689 15.809 44.0689C16.0672 44.0833 16.3111 44.0976 16.5694 44.112C16.8276 44.1264 17.0715 44.1407 17.3154 44.1551C17.5593 44.1694 17.8176 44.1838 18.0615 44.1981C18.3054 44.2125 18.5493 44.2268 18.7932 44.2412C19.0371 44.2555 19.281 44.2699 19.5249 44.2986C19.7688 44.3129 20.0127 44.3273 20.2566 44.356C20.5005 44.3704 20.7444 44.3847 20.974 44.4134C21.2035 44.4421 21.4474 44.4565 21.6913 44.4708C21.9352 44.4852 22.1648 44.5139 22.4087 44.5282C22.6382 44.5426 22.8822 44.5713 23.1117 44.5857C23.3413 44.6 23.5852 44.6287 23.8147 44.6431C24.0443 44.6574 24.2738 44.6861 24.5177 44.7005C24.7473 44.7148 24.9768 44.7292 25.2064 44.7579C25.436 44.7722 25.6655 44.7866 25.8951 44.8153C26.1246 44.8297 26.3542 44.844 26.5837 44.8584C26.8133 44.8727 27.0428 44.8871 27.258 44.9014C27.4733 44.9158 27.7172 44.9301 27.9324 44.9445C28.1619 44.9588 28.3771 44.9732 28.6067 44.9875C28.8362 45.0019 29.0515 45.0163 29.281 45.0163C29.5106 45.0306 29.7258 45.0306 29.9553 45.045C30.1705 45.0593 30.4001 45.0593 30.6153 45.0737C30.8305 45.088 31.0601 45.088 31.2753 45.088C31.4905 45.088 31.72 45.1024 31.9352 45.1024C32.1504 45.1024 32.38 45.1024 32.5952 45.1024C32.8104 45.1024 33.0256 45.1024 33.2552 45.1024C33.4704 45.1024 33.6856 45.1024 33.9008 45.088C34.116 45.088 34.3312 45.0737 34.5464 45.0737C34.7616 45.0737 34.9768 45.0593 35.1921 45.0593C35.4073 45.0593 35.6225 45.045 35.8377 45.0306C36.0529 45.0163 36.2681 45.0019 36.4833 44.9732C36.6985 44.9588 36.9137 44.9301 37.1289 44.9014C37.3441 44.8727 37.5593 44.844 37.7745 44.8153C37.9898 44.7866 38.205 44.7579 38.4202 44.7148C38.6354 44.6861 38.8506 44.6431 39.0658 44.6C39.281 44.5569 39.4962 44.5139 39.6971 44.4708C39.9123 44.4278 40.1275 44.3847 40.3284 44.3273C40.5436 44.2842 40.7588 44.2268 40.9596 44.1694C41.1748 44.112 41.39 44.0689 41.5909 44.0115C41.8061 43.9541 42.0213 43.8967 42.2222 43.8393C42.423 43.7819 42.6526 43.7101 42.8535 43.6527C43.0687 43.5809 43.2839 43.5235 43.4847 43.4517C43.6999 43.38 43.9152 43.3082 44.116 43.2364C44.3312 43.1647 44.5464 43.0929 44.7473 43.0068C44.9625 42.935 45.1777 42.8489 45.3786 42.7771C45.5794 42.7054 45.809 42.6193 46.0098 42.5331C46.225 42.447 46.4403 42.3609 46.6411 42.2748C46.842 42.1887 47.0715 42.1025 47.2867 42.0164C47.5019 41.9303 47.7172 41.8298 47.9324 41.7437C48.1476 41.6576 48.3628 41.5571 48.578 41.471C48.7932 41.3849 49.0084 41.2844 49.2236 41.1839C49.4388 41.0835 49.654 40.983 49.8692 40.8825C50.0844 40.782 50.2997 40.6816 50.5149 40.5811C50.7301 40.4806 50.9453 40.3802 51.1605 40.2797C51.3757 40.1792 51.5909 40.0787 51.8061 39.9639C52.0213 39.8491 52.2365 39.7486 52.4517 39.6481C52.6669 39.5477 52.8821 39.4328 53.1117 39.3324C53.3269 39.2175 53.5421 39.1171 53.7717 39.0022C53.9869 38.8874 54.2164 38.7869 54.4317 38.6721C54.6469 38.5573 54.8764 38.4568 55.0916 38.342C55.3068 38.2272 55.5364 38.1267 55.7516 38.0119C55.9668 37.897 56.1964 37.7966 56.4259 37.6817C56.6555 37.5669 56.8707 37.4664 57.1002 37.3516C57.3298 37.2368 57.545 37.1363 57.7745 37.0215C58.0041 36.9067 58.2337 36.8062 58.4489 36.6914C58.6641 36.5765 58.908 36.4761 59.1375 36.3756C59.3671 36.2751 59.5966 36.1603 59.8262 36.0598C60.0558 35.9593 60.2853 35.8589 60.5149 35.744C60.7444 35.6436 60.974 35.5431 61.2035 35.4426C61.4331 35.3422 61.6626 35.2417 61.9065 35.1556C62.1361 35.0551 62.38 34.969 62.6096 34.8685C62.8391 34.7824 63.083 34.6819 63.3126 34.5958C63.5565 34.5097 63.786 34.4235 64.0299 34.3374C64.2738 34.2513 64.5034 34.1795 64.7473 34.0934C64.9912 34.0217 65.2351 33.9355 65.4646 33.8638C65.7085 33.792 65.9525 33.7202 66.1964 33.6628C66.4403 33.5911 66.6842 33.5336 66.9281 33.4762C67.172 33.4188 67.4159 33.3614 67.6741 33.3183C67.9324 33.2753 68.1763 33.2322 68.4202 33.2035C68.6641 33.1748 68.9223 33.1461 69.1662 33.1174C69.4245 33.0887 69.6684 33.06 69.9266 33.0313C70.1849 33.0026 70.4288 32.9882 70.687 32.9595C70.9453 32.9452 71.2035 32.9165 71.4618 32.9021C71.72 32.8878 71.9783 32.8734 72.2365 32.859C72.4948 32.8447 72.753 32.8303 73.0256 32.8303C73.2839 32.816 73.5565 32.816 73.8147 32.8016C74.073 32.8016 74.3456 32.7873 74.6182 32.7873C74.8908 32.7873 75.149 32.7873 75.4216 32.7873C75.6942 32.7873 75.9668 32.7873 76.2394 32.7873C76.512 32.7873 76.7846 32.8016 77.0572 32.8016C77.3298 32.8016 77.6024 32.816 77.8893 32.8303C78.1619 32.8447 78.4489 32.859 78.7215 32.859C79.0084 32.8734 79.281 32.8878 79.5679 32.9021M3.74328 41.4566C4.03022 41.4423 4.30282 41.4279 4.57542 41.4136C4.84801 41.3992 5.13496 41.3992 5.40755 41.3849C5.68015 41.3849 5.95275 41.3705 6.22535 41.3705C6.49794 41.3705 6.77054 41.3705 7.04314 41.3705C7.31573 41.3705 7.57398 41.3705 7.84658 41.3849C8.11918 41.3849 8.37743 41.3992 8.65002 41.4136C8.90827 41.4279 9.18087 41.4279 9.43912 41.4423C9.69737 41.4566 9.95562 41.471 10.2282 41.4854C10.4865 41.4997 10.7447 41.5141 11.003 41.5428C11.2612 41.5571 11.5195 41.5858 11.7777 41.6002C12.036 41.6289 12.2799 41.6432 12.5381 41.6719C12.7964 41.7007 13.0403 41.715 13.2985 41.7437C13.5424 41.7724 13.8007 41.8011 14.0446 41.8298C14.2885 41.8585 14.5467 41.8872 14.7906 41.9159C15.0345 41.9447 15.2784 41.9734 15.5223 42.0164C15.7662 42.0451 16.0101 42.0882 16.254 42.1169C16.4979 42.1456 16.7418 42.1887 16.9857 42.2174C17.2297 42.2461 17.4736 42.2891 17.7031 42.3178C17.9327 42.3465 18.1766 42.3896 18.4205 42.4327C18.6644 42.4757 18.8939 42.5044 19.1235 42.5475C19.353 42.5906 19.5969 42.6193 19.8265 42.6623C20.056 42.7054 20.3 42.7341 20.5295 42.7771C20.7591 42.8202 20.9886 42.8489 21.2182 42.892C21.4477 42.935 21.6773 42.9637 21.9068 43.0068C22.1364 43.0499 22.3659 43.0786 22.5955 43.1216C22.8251 43.1647 23.0546 43.1934 23.2842 43.2364C23.5137 43.2795 23.7433 43.3082 23.9585 43.3369C24.188 43.3656 24.4033 43.4087 24.6328 43.4374C24.8624 43.4661 25.0776 43.5092 25.3071 43.5379C25.5367 43.5666 25.7519 43.6096 25.9814 43.6383C26.1967 43.667 26.4262 43.6958 26.6414 43.7245C26.8566 43.7532 27.0862 43.7819 27.3014 43.8106C27.5166 43.8393 27.7462 43.868 27.9614 43.8967C28.1766 43.9254 28.3918 43.9541 28.6213 43.9685C28.8365 43.9972 29.0517 44.0115 29.267 44.0402C29.4822 44.0689 29.6974 44.0833 29.9126 44.0976C30.1278 44.112 30.343 44.1407 30.5582 44.1551C30.7734 44.1694 30.9886 44.1838 31.2038 44.1981C31.419 44.2125 31.6342 44.2268 31.8494 44.2412C32.0647 44.2555 32.2799 44.2555 32.4951 44.2699C32.7103 44.2842 32.9255 44.2842 33.1407 44.2842C33.3559 44.2842 33.5711 44.2986 33.772 44.2986C33.9872 44.2986 34.2024 44.2986 34.4033 44.2986C34.6185 44.2986 34.8337 44.2842 35.0345 44.2699C35.2497 44.2555 35.4506 44.2268 35.6658 44.2125C35.881 44.1981 36.0819 44.1551 36.2971 44.1264C36.5123 44.0976 36.7132 44.0689 36.9284 44.0259C37.1436 43.9828 37.3444 43.9541 37.5596 43.9111C37.7748 43.868 37.9757 43.8249 38.1909 43.7675C38.4061 43.7245 38.607 43.667 38.8222 43.6096C39.0374 43.5522 39.2383 43.4948 39.4535 43.4374C39.6687 43.38 39.8695 43.3082 40.0847 43.2508C40.3 43.1934 40.5008 43.1073 40.716 43.0355C40.9312 42.9637 41.1321 42.892 41.3473 42.8059C41.5625 42.7341 41.7634 42.648 41.9786 42.5618C42.1938 42.4757 42.3946 42.3896 42.6099 42.3035C42.8251 42.2174 43.0259 42.1312 43.2411 42.0308C43.4563 41.9447 43.6572 41.8442 43.8724 41.7437C44.0876 41.6432 44.2885 41.5428 44.5037 41.4423C44.7189 41.3418 44.9198 41.2413 45.135 41.1265C45.3502 41.026 45.551 40.9112 45.7662 40.8107C45.9814 40.6959 46.1967 40.5954 46.3975 40.4806C46.6127 40.3658 46.8279 40.251 47.0288 40.1361C47.244 40.0213 47.4592 39.9065 47.6744 39.7773C47.8896 39.6625 48.1048 39.5333 48.32 39.4185C48.5352 39.3037 48.7505 39.1745 48.9657 39.0453C49.1809 38.9161 49.3961 38.7869 49.6113 38.6578C49.8265 38.5286 50.0417 38.3994 50.2569 38.2702C50.4721 38.141 50.6873 38.0119 50.9025 37.8683C51.1177 37.7392 51.333 37.5956 51.5482 37.4664C51.7634 37.3373 51.9786 37.1937 52.2081 37.0645C52.4233 36.9354 52.6529 36.7918 52.8681 36.6483C53.0833 36.5048 53.3129 36.3756 53.5281 36.2321C53.7433 36.0885 53.9728 35.9593 54.188 35.8158C54.4033 35.6723 54.6328 35.5431 54.848 35.3996C55.0776 35.256 55.2928 35.1269 55.5223 34.9833C55.7519 34.8398 55.9671 34.7106 56.1967 34.5671C56.4262 34.4235 56.6414 34.2944 56.871 34.1508C57.1005 34.0073 57.3301 33.8781 57.5596 33.7346C57.7892 33.6054 58.0188 33.4619 58.2483 33.3327C58.4779 33.2035 58.7074 33.06 58.937 32.9308C59.1665 32.8016 59.3961 32.6725 59.6256 32.5433C59.8552 32.4141 60.0847 32.2849 60.3287 32.1557C60.5582 32.0266 60.8021 31.9117 61.0317 31.7826C61.2612 31.6677 61.5051 31.5385 61.7347 31.4237C61.9642 31.3089 62.2081 31.1941 62.452 31.0792C62.6959 30.9644 62.9255 30.8639 63.1694 30.7491C63.4133 30.6343 63.6572 30.5482 63.8868 30.4477C64.1163 30.3472 64.3746 30.2611 64.6185 30.1606C64.8624 30.0745 65.1063 29.9884 65.3502 29.9023C65.5941 29.8162 65.838 29.7444 66.0962 29.6726C66.3401 29.6009 66.5984 29.5291 66.8423 29.4717C67.0862 29.4143 67.3444 29.3569 67.5883 29.2994C67.8322 29.242 68.0905 29.2133 68.3487 29.1846C68.607 29.1559 68.8509 29.1272 69.1091 29.1128C69.3674 29.0985 69.6256 29.0698 69.8839 29.0554C70.1421 29.0411 70.4004 29.0267 70.6586 29.0124C70.9169 28.998 71.1751 28.9837 71.4477 28.9837C71.706 28.9693 71.9786 28.9693 72.2368 28.9693C72.4951 28.9693 72.7677 28.9693 73.0403 28.9693C73.3129 28.9693 73.5711 28.9693 73.8437 28.9837C74.1163 28.998 74.3889 28.998 74.6615 28.998C74.9341 29.0124 75.2067 29.0124 75.4793 29.0267C75.7519 29.0411 76.0388 29.0554 76.3114 29.0698C76.584 29.0841 76.871 29.1128 77.1436 29.1272M68.0329 25.7542C68.205 25.9551 68.3772 26.1704 68.5494 26.3857C68.7215 26.601 68.8937 26.8307 69.0659 27.046C69.238 27.2756 69.4102 27.5053 69.568 27.7349C69.7258 27.9646 69.898 28.2086 70.0702 28.4382C70.2423 28.6679 70.4001 28.9119 70.558 29.1559C70.7158 29.3999 70.888 29.6439 71.0458 29.8879C71.2036 30.1319 71.3614 30.3759 71.5192 30.6199C71.6771 30.8639 71.8349 31.1079 71.9927 31.3663C72.1505 31.6103 72.3083 31.8543 72.4518 32.1127C72.6096 32.3567 72.7531 32.6007 72.9109 32.859C73.0687 33.1174 73.2122 33.3471 73.37 33.5911C73.5135 33.8351 73.6713 34.0791 73.8148 34.3231C73.9583 34.5671 74.1161 34.8111 74.2595 35.0551C74.403 35.2991 74.5465 35.5288 74.69 35.7728C74.8334 36.0168 74.9769 36.2464 75.1204 36.4761C75.2638 36.7057 75.4073 36.9497 75.5508 37.1794C75.6943 37.409 75.8377 37.6387 75.9812 37.8683C76.1247 38.098 76.2682 38.3276 76.3973 38.5429C76.5408 38.7726 76.6699 38.9879 76.8133 39.2032C76.9568 39.4185 77.0859 39.6481 77.2294 39.8634C77.3729 40.0787 77.502 40.294 77.6455 40.5093C77.7746 40.7246 77.9181 40.9256 78.0472 41.1409C78.1763 41.3562 78.3198 41.5571 78.4489 41.7581C78.5781 41.959 78.7215 42.16 78.8506 42.3609C78.9798 42.5618 79.1232 42.7628 79.2524 42.9494C79.3815 43.1503 79.525 43.3369 79.6541 43.5235C79.7832 43.7101 79.9123 43.8967 80.0558 44.0976C80.1849 44.2842 80.3141 44.4708 80.4575 44.6574C80.601 44.844 80.7158 45.0163 80.8449 45.2028C80.974 45.3751 81.1032 45.5617 81.2323 45.7339C81.3614 45.9062 81.4905 46.0784 81.6197 46.2506C81.7488 46.4229 81.8779 46.5951 82.007 46.753C82.1362 46.9252 82.2653 47.0831 82.3944 47.241C82.5235 47.3989 82.6527 47.5711 82.7818 47.729C82.9109 47.8869 83.04 48.0448 83.1692 48.2027C83.2983 48.3606 83.4274 48.5184 83.5709 48.662C83.7 48.8199 83.8291 48.9634 83.9726 49.1069C84.1017 49.2505 84.2309 49.4083 84.3743 49.5519C84.5034 49.6954 84.6469 49.8389 84.776 49.9825C84.9052 50.126 85.0487 50.2695 85.1778 50.3987C85.3069 50.5423 85.4504 50.6714 85.5795 50.815C85.7086 50.9585 85.8521 51.0877 85.9956 51.2312C86.139 51.3604 86.2682 51.5039 86.4116 51.6331C86.5551 51.7623 86.6842 51.9058 86.8277 52.035C86.9712 52.1642 87.1146 52.3077 87.2438 52.4369C87.3872 52.5661 87.5307 52.7096 87.6742 52.8531C87.8177 52.9967 87.9611 53.1258 88.1046 53.2694C88.2481 53.4129 88.3915 53.5421 88.535 53.6856C88.6785 53.8291 88.822 53.9727 88.9798 54.1162C89.1233 54.2597 89.2811 54.4033 89.4245 54.5468C89.568 54.6903 89.7258 54.8339 89.8693 54.9918C90.0271 55.1353 90.1706 55.2932 90.3284 55.4511C90.4862 55.609 90.6297 55.7525 90.7875 55.9104C90.9453 56.0683 91.1032 56.2261 91.261 56.384C91.4188 56.5419 91.5766 56.7142 91.7344 56.872C91.8923 57.0443 92.0501 57.2022 92.2079 57.3744C92.3657 57.5466 92.5379 57.7189 92.6957 57.9055C92.8535 58.0777 93.0257 58.2643 93.1835 58.4509C93.3557 58.6375 93.5135 58.8241 93.6857 59.0107C93.8578 59.1973 94.03 59.3982 94.1878 59.5848C94.36 59.7858 94.5321 59.9867 94.7043 60.1876M61.3476 28.1368C61.5341 28.2947 61.7063 28.4526 61.8928 28.6105C62.0793 28.7684 62.2515 28.9406 62.438 29.1128C62.6245 29.2851 62.7967 29.4573 62.9688 29.6439C63.141 29.8305 63.3132 30.0171 63.4853 30.2037C63.6575 30.3903 63.8297 30.5912 64.0018 30.7922C64.174 30.9931 64.3462 31.1941 64.504 31.395C64.6618 31.5959 64.834 31.8112 65.0061 32.0265C65.1783 32.2418 65.3361 32.4571 65.4939 32.6868C65.6518 32.9021 65.8239 33.1317 65.9817 33.3614C66.1396 33.5911 66.2974 33.8207 66.4552 34.0504C66.613 34.28 66.7708 34.524 66.9287 34.7537C67.0865 34.9833 67.2443 35.2273 67.4021 35.4713C67.5599 35.7153 67.7034 35.9593 67.8612 36.2033C68.019 36.4473 68.1625 36.6914 68.3203 36.9354C68.4781 37.1794 68.6216 37.4234 68.7651 37.6674C68.9086 37.9114 69.0664 38.1554 69.2099 38.385C69.3533 38.629 69.5111 38.8587 69.6546 39.1027C69.7981 39.3324 69.9416 39.5764 70.0994 39.806C70.2572 40.0357 70.3863 40.2653 70.5298 40.495C70.6733 40.7246 70.8167 40.9543 70.9602 41.1839C71.1037 41.4136 71.2472 41.6289 71.3906 41.8585C71.5341 42.0882 71.6776 42.3035 71.821 42.5188C71.9645 42.7341 72.108 42.9494 72.2371 43.1647C72.3662 43.38 72.5241 43.5809 72.6532 43.7962C72.7967 43.9972 72.9258 44.2125 73.0693 44.4134C73.2127 44.6144 73.3418 44.8153 73.4853 45.0162C73.6288 45.2172 73.7579 45.4038 73.9014 45.6047C74.0449 45.8057 74.174 45.9923 74.3175 46.1789C74.4609 46.3654 74.5901 46.552 74.7335 46.7386C74.877 46.9252 75.0061 47.0975 75.1496 47.2841C75.2931 47.4563 75.4222 47.6429 75.5657 47.8151C75.7091 47.9874 75.8383 48.1596 75.9817 48.3318C76.1252 48.5041 76.2543 48.662 76.3978 48.8342C76.5413 48.9921 76.6704 49.1643 76.8139 49.3222C76.9573 49.4801 77.0865 49.6236 77.2299 49.7672C77.3734 49.9107 77.5169 50.0542 77.646 50.1834C77.7895 50.3126 77.933 50.4561 78.0764 50.5853C78.2199 50.7145 78.3634 50.8437 78.5068 50.9728C78.6503 51.102 78.7938 51.2312 78.9373 51.346C79.0807 51.4609 79.2242 51.59 79.3677 51.7192C79.5111 51.834 79.6546 51.9632 79.8124 52.078C79.9703 52.1929 80.1137 52.322 80.2572 52.4369C80.4007 52.5517 80.5585 52.6809 80.702 52.7957C80.8454 52.9105 81.0033 53.0397 81.1611 53.1545C81.3189 53.2694 81.4624 53.3985 81.6202 53.5134C81.778 53.6282 81.9215 53.7574 82.0793 53.8722C82.2371 54.0014 82.3949 54.1162 82.5528 54.2454C82.7106 54.3746 82.8684 54.5037 83.0262 54.6329C83.184 54.7621 83.3419 54.8913 83.514 55.0205C83.6718 55.1496 83.844 55.2932 84.0018 55.4224C84.1596 55.5659 84.3318 55.6951 84.4896 55.8386C84.6618 55.9821 84.8196 56.1257 84.9918 56.2835C85.1639 56.4271 85.3218 56.585 85.4939 56.7429C85.6661 56.9007 85.8383 57.0586 86.0104 57.2165C86.1826 57.3744 86.3548 57.5466 86.5269 57.7189C86.6991 57.8911 86.8713 58.0634 87.0578 58.2499C87.2299 58.4365 87.4165 58.6231 87.5886 58.8097C87.7608 58.9963 87.9473 59.1973 88.1338 59.3982M54.6615 32.5146C54.8624 32.615 55.0633 32.7299 55.2785 32.8447C55.4793 32.9595 55.6802 33.0743 55.881 33.2035C56.0819 33.3327 56.2684 33.4619 56.4693 33.5911C56.6701 33.7202 56.8567 33.8638 57.0432 34.0073C57.2297 34.1508 57.4305 34.2944 57.6171 34.4523C57.8036 34.6101 57.9901 34.7537 58.1766 34.9259C58.3631 35.0838 58.5496 35.256 58.7218 35.4283C58.9083 35.6005 59.0805 35.7728 59.267 35.9593C59.4535 36.1316 59.6257 36.3182 59.7978 36.5048C59.97 36.6914 60.1565 36.878 60.3287 37.0789C60.5008 37.2798 60.673 37.4664 60.8452 37.6817C61.0173 37.8827 61.1895 38.0836 61.3617 38.2989C61.5338 38.5142 61.706 38.7152 61.8638 38.9305C62.036 39.1458 62.1938 39.3611 62.366 39.5764C62.5381 39.7917 62.696 40.0213 62.8538 40.2366C63.0116 40.4519 63.1838 40.6816 63.3416 40.9112C63.4994 41.1409 63.6716 41.3705 63.8294 41.5858C63.9872 41.8155 64.145 42.0451 64.3029 42.2748C64.4607 42.5044 64.6185 42.7341 64.7763 42.9637C64.9341 43.1934 65.0919 43.423 65.2498 43.6527C65.4076 43.8823 65.5654 44.112 65.7232 44.3417C65.881 44.5713 66.0389 44.801 66.1967 45.0163C66.3545 45.2459 66.5123 45.4612 66.6558 45.6909C66.8136 45.9062 66.9714 46.1358 67.1149 46.3511C67.2584 46.5664 67.4162 46.7817 67.574 46.9826C67.7318 47.1979 67.8753 47.3989 68.0331 47.5998C68.1909 47.8008 68.3344 47.9874 68.4922 48.174C68.6501 48.3606 68.7935 48.5472 68.9513 48.7194C69.1092 48.906 69.2526 49.0782 69.4105 49.2505C69.5683 49.4227 69.7117 49.5949 69.8696 49.7528C70.0274 49.9107 70.1852 50.0686 70.343 50.2121C70.5008 50.3557 70.6587 50.4992 70.8165 50.6427C70.9743 50.7863 71.1321 50.9154 71.2899 51.0446C71.4478 51.1738 71.6056 51.303 71.7634 51.4178C71.9212 51.5326 72.079 51.6618 72.2512 51.7766C72.409 51.8915 72.5812 52.0063 72.739 52.1068C72.8968 52.2216 73.069 52.3221 73.2412 52.4225C73.4133 52.523 73.5712 52.6378 73.7433 52.7383C73.9155 52.8388 74.0876 52.9392 74.2455 53.0397C74.4176 53.1402 74.5898 53.2407 74.762 53.3411C74.9341 53.4416 75.1063 53.5421 75.2785 53.6426C75.4506 53.743 75.6228 53.8435 75.8093 53.944C75.9958 54.0444 76.168 54.1593 76.3402 54.2597C76.5123 54.3602 76.6988 54.475 76.8853 54.5899C77.0719 54.7047 77.244 54.8195 77.4306 54.9344C77.6171 55.0492 77.8036 55.1784 77.9901 55.2932C78.1766 55.408 78.3631 55.5515 78.564 55.6807C78.7648 55.8099 78.9513 55.9534 79.1379 56.097C79.3244 56.2405 79.5252 56.384 79.7261 56.5419C79.927 56.6998 80.1135 56.8577 80.3143 57.0156C80.5152 57.1878 80.7161 57.3601 80.9169 57.5323C81.1178 57.7189 81.3186 57.9055 81.5338 58.0921M47.9755 37.3229C48.205 37.3947 48.4346 37.4664 48.6498 37.5382C48.8794 37.61 49.0946 37.6817 49.3098 37.7679C49.525 37.8396 49.7402 37.9257 49.9554 38.0119C50.1706 38.098 50.3858 38.1841 50.5867 38.2702C50.7875 38.3563 51.0027 38.4568 51.218 38.5573C51.4188 38.6578 51.634 38.7582 51.8349 38.8731C52.0357 38.9879 52.2366 39.1027 52.4375 39.2175C52.6383 39.3324 52.8392 39.4615 53.0257 39.5907C53.2266 39.7199 53.4131 39.8634 53.6139 39.9926C53.8004 40.1361 54.0013 40.2797 54.1878 40.4232C54.3743 40.5667 54.5608 40.7246 54.7474 40.8825C54.9339 41.0404 55.1204 41.2126 55.3069 41.3705C55.4934 41.5428 55.6799 41.715 55.8521 41.8872C56.0386 42.0595 56.2108 42.2461 56.3973 42.4327C56.5838 42.6193 56.756 42.8058 56.9425 42.9924C57.1147 43.179 57.3012 43.38 57.4733 43.5809C57.6455 43.7819 57.832 43.9828 58.0042 44.1838C58.1763 44.3847 58.3485 44.5856 58.5207 44.8009C58.6928 45.0019 58.865 45.2172 59.0372 45.4325C59.2093 45.6478 59.3815 45.8487 59.5537 46.064C59.7258 46.2793 59.898 46.4946 60.0702 46.6956C60.2423 46.8965 60.4145 47.1262 60.5867 47.3415C60.7588 47.5568 60.931 47.7721 61.1032 47.973C61.2753 48.1883 61.4475 48.3893 61.6053 48.6046C61.7631 48.8199 61.9497 49.0208 62.1075 49.2217C62.2796 49.4227 62.4518 49.5949 62.624 49.7672C62.7961 49.9394 62.9683 50.0973 63.1405 50.2552C63.3126 50.4131 63.4848 50.5566 63.657 50.7145C63.8291 50.858 64.0013 51.0016 64.1735 51.1451C64.3456 51.2886 64.5322 51.4178 64.7043 51.547C64.8765 51.6762 65.063 51.8053 65.2352 51.9202C65.4073 52.035 65.5939 52.1498 65.7804 52.2646C65.9669 52.3795 66.139 52.4799 66.3256 52.5948C66.5121 52.6952 66.6986 52.7957 66.8851 52.8962C67.0716 52.9967 67.2581 53.0828 67.4446 53.1832C67.6311 53.2694 67.8177 53.3698 68.0185 53.456C68.205 53.5421 68.4059 53.6138 68.5924 53.7C68.7789 53.7861 68.9798 53.8578 69.1806 53.9296C69.3815 54.0014 69.5824 54.0875 69.7832 54.1593C69.9841 54.231 70.185 54.3172 70.3858 54.4033C70.5867 54.4894 70.8019 54.5755 71.0027 54.6616C71.2036 54.7478 71.4188 54.8482 71.634 54.9343C71.8492 55.0348 72.0644 55.1353 72.2796 55.2358C72.4949 55.3506 72.7101 55.4654 72.9253 55.5802C73.1405 55.6951 73.37 55.8242 73.5852 55.9678C73.8005 56.1113 74.03 56.2548 74.2596 56.3984C74.4891 56.5563 74.7187 56.7141 74.9482 56.8864M41.2902 41.2557C41.5341 41.3275 41.778 41.3849 42.0076 41.4279C42.2371 41.471 42.481 41.5284 42.7106 41.5858C42.9401 41.6289 43.1697 41.6863 43.3993 41.7294C43.6288 41.7724 43.8584 41.8298 44.0736 41.8729C44.3031 41.9303 44.5183 41.9734 44.7335 42.0308C44.9487 42.0882 45.164 42.1456 45.3792 42.2174C45.5944 42.2748 45.8096 42.3465 46.0248 42.4183C46.24 42.4901 46.4409 42.5762 46.6561 42.648C46.8569 42.7341 47.0721 42.8202 47.273 42.9063C47.4739 43.0068 47.6747 43.0929 47.8756 43.2077C48.0764 43.3082 48.2773 43.423 48.4782 43.5379C48.679 43.6527 48.8799 43.7819 49.0664 43.8967C49.2673 44.0259 49.4538 44.1551 49.6546 44.2986C49.8411 44.4421 50.042 44.5857 50.2285 44.7292C50.415 44.8727 50.6159 45.0306 50.8024 45.1885C50.9889 45.3464 51.1754 45.5043 51.3619 45.6765C51.5485 45.8487 51.735 46.021 51.9215 46.1932C52.108 46.3655 52.2945 46.552 52.481 46.7386C52.6675 46.9252 52.8541 47.1118 53.0262 47.2984C53.2127 47.485 53.3849 47.686 53.5714 47.8725C53.7579 48.0735 53.9301 48.2744 54.1166 48.4754C54.3031 48.6763 54.4753 48.8773 54.6618 49.0782C54.8483 49.2792 55.0205 49.4801 55.207 49.6667C55.3935 49.8533 55.5657 50.0399 55.7522 50.2121C55.9387 50.3844 56.1109 50.571 56.2974 50.7432C56.4839 50.9154 56.6704 51.0733 56.8426 51.2456C57.0291 51.4034 57.2156 51.5613 57.4021 51.7192C57.5886 51.8771 57.7752 52.0206 57.9617 52.1642C58.1482 52.3077 58.3347 52.4512 58.5356 52.5804C58.7364 52.7096 58.9229 52.8388 59.1094 52.968C59.296 53.0971 59.4968 53.212 59.6977 53.3268C59.8985 53.4416 60.085 53.5421 60.2859 53.6569C60.4868 53.7574 60.6876 53.8579 60.8885 53.9583C61.0894 54.0588 61.2902 54.1449 61.5054 54.231C61.7063 54.3172 61.9215 54.4033 62.1367 54.475C62.3519 54.5468 62.5528 54.6186 62.768 54.6903C62.9832 54.7621 63.1984 54.8339 63.4136 54.8913C63.6288 54.9631 63.8584 55.0205 64.0736 55.0779C64.2888 55.1353 64.5183 55.2071 64.7479 55.2645C64.9774 55.3219 65.207 55.3937 65.4366 55.4511C65.6661 55.5085 65.8957 55.5802 66.1396 55.652C66.3691 55.7238 66.613 55.7955 66.8569 55.8817C67.1008 55.9678 67.3447 56.0539 67.5886 56.1544C67.8325 56.2548 68.0764 56.3697 68.3347 56.4845M34.6183 43.2077C34.8622 43.3226 35.1061 43.423 35.3356 43.4948C35.5652 43.5666 35.8091 43.6527 36.0386 43.7245C36.2682 43.7962 36.4978 43.8536 36.7273 43.911C36.9569 43.9685 37.1864 44.0115 37.4016 44.0689C37.6168 44.1263 37.8464 44.155 38.0616 44.1981C38.2768 44.2412 38.492 44.2842 38.7216 44.3273C38.9368 44.3703 39.152 44.4134 39.3672 44.4708C39.5824 44.5282 39.7833 44.5713 39.9985 44.6287C40.2137 44.6861 40.4145 44.7435 40.6154 44.8009C40.8163 44.8584 41.0171 44.9301 41.218 45.0019C41.4188 45.0737 41.6197 45.1454 41.8206 45.2315C42.0214 45.3177 42.2223 45.3894 42.4088 45.4899C42.6097 45.576 42.7962 45.6765 42.997 45.777C43.1835 45.8774 43.3844 45.9779 43.5709 46.0927C43.7574 46.2076 43.9583 46.3224 44.1448 46.4516C44.3313 46.5807 44.5178 46.7099 44.7044 46.8391C44.8909 46.9683 45.0774 47.1118 45.2639 47.2554C45.4504 47.3989 45.6369 47.5568 45.8234 47.7003C46.0099 47.8582 46.1965 48.0161 46.3686 48.1883C46.5408 48.3606 46.7273 48.5328 46.9138 48.705C47.1003 48.8773 47.2725 49.0639 47.459 49.2505C47.6455 49.437 47.8177 49.638 48.0042 49.8533C48.1907 50.0542 48.3629 50.2695 48.5494 50.4705C48.7359 50.6714 48.9081 50.8724 49.0946 51.0733C49.2811 51.2743 49.4533 51.4752 49.6398 51.6762C49.8263 51.8771 49.9985 52.0637 50.185 52.2646C50.3715 52.4512 50.5437 52.6522 50.7302 52.8244C50.9167 53.011 51.1032 53.1976 51.2897 53.3698C51.4762 53.5421 51.6627 53.7287 51.8493 53.8866C52.0358 54.0588 52.2223 54.2167 52.4088 54.3889C52.5953 54.5612 52.7962 54.7047 52.9827 54.8626C53.1692 55.0205 53.3701 55.164 53.5709 55.3075C53.7718 55.4511 53.9583 55.5802 54.1592 55.7238C54.36 55.853 54.5609 55.9821 54.7617 56.097C54.9626 56.2118 55.1635 56.3266 55.3787 56.4414C55.5795 56.5563 55.7947 56.6567 56.0099 56.7572C56.2252 56.8577 56.4404 56.9582 56.6556 57.0443C56.8708 57.1304 57.086 57.2165 57.3155 57.3026C57.5308 57.3888 57.7603 57.4605 57.9899 57.5323C58.2194 57.6041 58.449 57.6758 58.6785 57.7476C58.9081 57.8193 59.1376 57.8768 59.3815 57.9485C59.6254 58.0059 59.855 58.0777 60.0989 58.1351C60.3428 58.1925 60.5867 58.2643 60.8306 58.3361C61.0745 58.4078 61.3328 58.4796 61.5767 58.5514M27.9612 42.691C28.1908 42.8633 28.406 43.0068 28.6355 43.1647C28.8651 43.3226 29.0803 43.4517 29.2955 43.5666C29.5107 43.6957 29.7259 43.8106 29.9411 43.9254C30.1563 44.0402 30.3715 44.1407 30.5724 44.2268C30.7876 44.3273 30.9885 44.4134 31.2037 44.4995C31.4045 44.5856 31.6198 44.6574 31.8206 44.7435C32.0215 44.8153 32.2223 44.8871 32.4232 44.9588C32.6241 45.0306 32.8249 45.088 33.0114 45.1598C33.1979 45.2315 33.3988 45.289 33.5997 45.3464C33.8005 45.4038 33.987 45.4756 34.1736 45.533C34.3601 45.5904 34.5466 45.6621 34.7331 45.7339C34.9196 45.8057 35.1061 45.8918 35.2926 45.9636C35.4791 46.0497 35.6657 46.1214 35.8378 46.2076C36.0243 46.2937 36.1965 46.3798 36.383 46.4803C36.5695 46.5808 36.7417 46.6669 36.9139 46.7817C37.086 46.8965 37.2725 46.997 37.4447 47.0975C37.6169 47.2123 37.8034 47.3271 37.9756 47.4563C38.1477 47.5855 38.3199 47.7003 38.4921 47.8438C38.6642 47.973 38.8364 48.1165 39.0086 48.2601C39.1807 48.4036 39.3529 48.5471 39.5251 48.705C39.6972 48.8629 39.8694 49.0208 40.0416 49.1787C40.2137 49.3366 40.3859 49.5232 40.5437 49.7241C40.7159 49.9251 40.8737 50.1404 41.0459 50.3413C41.218 50.5566 41.3758 50.7575 41.548 50.9728C41.7202 51.1881 41.878 51.4034 42.0502 51.6187C42.2223 51.834 42.3802 52.0637 42.5523 52.279C42.7245 52.4943 42.8823 52.7239 43.0545 52.9392C43.2266 53.1545 43.3845 53.3842 43.5566 53.5995C43.7288 53.8148 43.8866 54.0444 44.0588 54.2597C44.2309 54.475 44.3888 54.6903 44.5609 54.9056C44.7331 55.1209 44.9053 55.3362 45.0774 55.5372C45.2496 55.7525 45.4218 55.9534 45.5939 56.1687C45.7661 56.384 45.9383 56.5706 46.1104 56.7716C46.2826 56.9725 46.4691 57.1735 46.6413 57.36C46.8134 57.5466 47 57.7476 47.1865 57.9198C47.373 58.1064 47.5451 58.2787 47.7317 58.4652C47.9182 58.6375 48.1047 58.8097 48.2912 58.982C48.4777 59.1542 48.6642 59.3121 48.8651 59.47C49.0659 59.6279 49.2525 59.7857 49.4533 59.9293C49.6542 60.0728 49.8407 60.2163 50.0416 60.3599C50.2424 60.4891 50.4433 60.6326 50.6441 60.7474C50.845 60.8766 51.0602 60.9914 51.2611 61.1062C51.4619 61.2211 51.6771 61.3359 51.8923 61.4364C52.1076 61.5368 52.3228 61.6373 52.538 61.7378C52.7532 61.8383 52.9827 61.9244 53.2123 62.0105C53.4418 62.0966 53.6714 62.1827 53.901 62.2689C54.1305 62.355 54.3601 62.4267 54.604 62.5129M21.3042 41.2988C21.505 41.4853 21.7059 41.6719 21.9067 41.8442C22.1076 42.0164 22.3085 42.1887 22.5093 42.3465C22.7102 42.5044 22.8967 42.6623 23.0976 42.8058C23.2984 42.9494 23.4849 43.0929 23.6715 43.2364C23.858 43.3656 24.0445 43.5092 24.2453 43.624C24.4462 43.7388 24.6184 43.868 24.8049 43.9828C24.9914 44.0976 25.1779 44.2125 25.3501 44.3129C25.5222 44.4134 25.7088 44.5282 25.8953 44.6287C26.0674 44.7292 26.2539 44.8297 26.4261 44.9301C26.5983 45.0306 26.7848 45.1167 26.957 45.2172C27.1291 45.3177 27.3013 45.4038 27.4735 45.5043C27.6456 45.5904 27.8178 45.6909 27.99 45.777C28.1621 45.8631 28.3343 45.9636 28.4921 46.0497C28.6499 46.1358 28.8221 46.2363 28.9943 46.3367C29.1664 46.4372 29.3242 46.5233 29.4821 46.6238C29.6399 46.7243 29.8121 46.8248 29.9699 46.9252C30.1277 47.0257 30.2855 47.1262 30.4577 47.241C30.6155 47.3558 30.7733 47.4563 30.9311 47.5711C31.089 47.686 31.2468 47.8008 31.4046 47.93C31.5624 48.0591 31.7202 48.1883 31.8781 48.3175C32.0359 48.4467 32.1937 48.5902 32.3515 48.7337C32.5093 48.8773 32.6671 49.0352 32.8106 49.193C32.9684 49.3509 33.1263 49.5232 33.2697 49.6954C33.4276 49.8676 33.571 50.0542 33.7288 50.2265C33.8867 50.4131 34.0301 50.5997 34.188 50.7863C34.3458 50.9729 34.4892 51.1738 34.6327 51.3747C34.7762 51.5757 34.934 51.791 35.0775 52.0063C35.221 52.2216 35.3788 52.4369 35.5222 52.6665C35.6657 52.8962 35.8235 53.1115 35.967 53.3411C36.1105 53.5708 36.2683 53.8004 36.4118 54.0301C36.5552 54.2597 36.7131 54.5037 36.8565 54.7334C37 54.9631 37.1578 55.2071 37.3013 55.4511C37.4448 55.6951 37.6026 55.9391 37.7461 56.1687C37.8895 56.4127 38.0474 56.6567 38.1908 56.9007C38.3343 57.1448 38.4921 57.3888 38.6499 57.6328C38.8078 57.8768 38.9512 58.1208 39.109 58.3504C39.2669 58.5801 39.4103 58.8241 39.5682 59.0681C39.726 59.3121 39.8838 59.5417 40.0416 59.7714C40.1994 60.001 40.3572 60.2307 40.5151 60.4604C40.6729 60.69 40.8307 60.9197 41.0029 61.135C41.175 61.3503 41.3329 61.5799 41.4907 61.7952C41.6485 62.0105 41.8207 62.2258 41.9928 62.4411C42.165 62.6564 42.3372 62.8573 42.495 63.0583C42.6671 63.2592 42.8393 63.4602 43.0115 63.6468C43.1836 63.8477 43.3702 64.0343 43.5423 64.2209C43.7145 64.4075 43.901 64.5797 44.0875 64.7663C44.274 64.9386 44.4605 65.1108 44.6471 65.283C44.8336 65.4409 45.0201 65.6132 45.221 65.7567C45.4218 65.9002 45.6083 66.0581 45.8092 66.2017C46.01 66.3452 46.2109 66.4887 46.4118 66.6179C46.6126 66.7471 46.8135 66.8763 47.0287 67.0054C47.2296 67.1346 47.4448 67.2494 47.66 67.3643M14.6612 39.7917C14.8477 39.9926 15.0199 40.1936 15.2064 40.3801C15.3929 40.5667 15.5651 40.7533 15.7373 40.9399C15.9094 41.1265 16.0959 41.2988 16.2681 41.471C16.4403 41.6432 16.6124 41.8011 16.7846 41.9734C16.9568 42.1456 17.1289 42.2891 17.3011 42.447C17.4733 42.6049 17.6311 42.7484 17.8033 42.892C17.9754 43.0355 18.1332 43.179 18.3054 43.3226C18.4776 43.4661 18.6354 43.5953 18.7932 43.7245C18.951 43.8536 19.1089 43.9828 19.281 44.112C19.4388 44.2412 19.5967 44.3704 19.7545 44.4852C19.9123 44.6 20.0701 44.7292 20.2279 44.8584C20.3858 44.9875 20.5436 45.1024 20.687 45.2172C20.8305 45.332 20.9883 45.4468 21.1462 45.5617C21.304 45.6765 21.4474 45.7913 21.6053 45.9061C21.7487 46.021 21.9066 46.1358 22.05 46.2506C22.1935 46.3655 22.3513 46.4803 22.4948 46.5951C22.6383 46.7099 22.7817 46.8248 22.9396 46.9396C23.083 47.0544 23.2265 47.1692 23.37 47.2841C23.5134 47.3989 23.6569 47.5281 23.8004 47.6429C23.9439 47.7577 24.0873 47.8869 24.2308 48.0161C24.3743 48.1453 24.5177 48.2601 24.6612 48.3893C24.8047 48.5184 24.9482 48.6476 25.0773 48.7912C25.2208 48.9203 25.3642 49.0639 25.4934 49.2074C25.6368 49.3509 25.766 49.4945 25.9094 49.6524C26.0529 49.8102 26.182 49.9681 26.3255 50.1404C26.469 50.3126 26.5981 50.4705 26.7272 50.6427C26.8563 50.815 26.9998 50.9872 27.1289 51.1594C27.2581 51.3317 27.4015 51.5183 27.5307 51.7049C27.6598 51.8915 27.8033 52.078 27.9324 52.2646C28.0615 52.4512 28.205 52.6522 28.3341 52.8388C28.4632 53.0397 28.5924 53.2263 28.7358 53.4273C28.8649 53.6282 28.9941 53.8291 29.1375 54.0444C29.2667 54.2454 29.3958 54.4607 29.5393 54.676C29.6684 54.8913 29.7975 55.1066 29.941 55.3219C30.0701 55.5372 30.1992 55.7525 30.3427 55.9821C30.4862 56.2118 30.601 56.4271 30.7444 56.6567C30.8879 56.8864 31.0027 57.116 31.1462 57.3457C31.2896 57.5753 31.4044 57.8194 31.5479 58.049C31.677 58.293 31.8205 58.5227 31.9496 58.7667C32.0787 59.0107 32.2222 59.2547 32.3513 59.4987C32.4804 59.7427 32.6239 59.9867 32.753 60.2451C32.8822 60.5034 33.0256 60.7474 33.1548 61.0058C33.2982 61.2641 33.4274 61.5081 33.5708 61.7665C33.7143 62.0249 33.8434 62.2832 33.9869 62.5416C34.1304 62.7999 34.2595 63.0583 34.403 63.3166C34.5464 63.575 34.6899 63.8334 34.8334 64.0917C34.9769 64.3501 35.1203 64.5941 35.2638 64.8524C35.4073 65.1108 35.5507 65.3548 35.7086 65.5988C35.852 65.8428 36.0099 66.0868 36.1533 66.3308C36.3111 66.5748 36.4546 66.8045 36.6124 67.0485C36.7703 67.2925 36.9281 67.5078 37.0859 67.7375C37.2437 67.9671 37.4015 68.1824 37.5594 68.4121C37.7172 68.6274 37.8893 68.8427 38.0472 69.058C38.205 69.2732 38.3771 69.4742 38.5493 69.6751C38.7215 69.8761 38.8936 70.077 39.0658 70.2636C39.238 70.4502 39.4101 70.6368 39.5823 70.8234C39.7545 70.9956 39.941 71.1822 40.1132 71.3401C40.2997 71.5124 40.4718 71.6702 40.6584 71.8281M8.00417 38.8013C8.17633 39.0022 8.3485 39.2032 8.50632 39.3898C8.66414 39.5764 8.83631 39.7773 9.00847 39.9639C9.18064 40.1505 9.33846 40.3371 9.49628 40.5093C9.6541 40.6959 9.82626 40.8682 9.98408 41.0404C10.1419 41.2126 10.2997 41.3849 10.4575 41.5571C10.6154 41.7293 10.7732 41.8872 10.931 42.0595C11.0888 42.2174 11.2466 42.3896 11.3901 42.5475C11.5479 42.7054 11.6914 42.8633 11.8492 43.0211C12.007 43.179 12.1505 43.3226 12.3083 43.4804C12.4518 43.624 12.6096 43.7819 12.7531 43.9254C12.8966 44.0689 13.0544 44.2125 13.1979 44.356C13.3413 44.4995 13.4848 44.6431 13.6283 44.7722C13.7717 44.9014 13.9152 45.045 14.0587 45.1885C14.2022 45.332 14.3456 45.4612 14.4891 45.5904C14.6326 45.7196 14.776 45.8631 14.9052 45.9923C15.0486 46.1214 15.1778 46.265 15.3212 46.3942C15.4647 46.5233 15.5938 46.6525 15.7373 46.796C15.8808 46.9252 16.0099 47.0544 16.1534 47.1979C16.2969 47.3415 16.426 47.4563 16.5551 47.5998C16.6842 47.7434 16.8277 47.8582 16.9568 48.0017C17.0859 48.1453 17.2294 48.2744 17.3585 48.4036C17.4877 48.5328 17.6311 48.6763 17.7603 48.8199C17.8894 48.9634 18.0185 49.0926 18.162 49.2361C18.3055 49.3796 18.4202 49.5232 18.5494 49.6667C18.6785 49.8102 18.8076 49.9538 18.9367 50.1116C19.0659 50.2552 19.195 50.4131 19.3241 50.571C19.4532 50.7288 19.5824 50.8724 19.7115 51.0303C19.8406 51.1881 19.9697 51.346 20.0989 51.5039C20.228 51.6618 20.3571 51.834 20.4719 51.9919C20.601 52.1642 20.7301 52.322 20.8449 52.4943C20.974 52.6665 21.0888 52.8388 21.2179 53.011C21.3471 53.1832 21.4618 53.3698 21.591 53.5421C21.7201 53.7287 21.8349 53.9009 21.964 54.0875C22.0931 54.2741 22.2079 54.4607 22.337 54.6473C22.4661 54.8339 22.5809 55.0205 22.7101 55.2214C22.8392 55.4224 22.954 55.6089 23.0831 55.8099C23.2122 56.0108 23.327 56.2118 23.4561 56.4127C23.5852 56.6137 23.7 56.8146 23.8291 57.0299C23.9583 57.2309 24.073 57.4462 24.2022 57.6615C24.3313 57.8768 24.4461 58.0921 24.5752 58.3074C24.7043 58.5227 24.8191 58.738 24.9482 58.9676C25.0773 59.1829 25.1921 59.4126 25.3212 59.6422C25.4504 59.8719 25.5795 60.1015 25.6943 60.3312C25.8234 60.5608 25.9525 60.7905 26.0673 61.0345C26.1964 61.2641 26.3255 61.5081 26.4547 61.7378C26.5838 61.9674 26.7129 62.2114 26.842 62.4554C26.9712 62.6995 27.1003 62.9435 27.2294 63.1875C27.3585 63.4315 27.4877 63.6755 27.6168 63.9338C27.7459 64.1778 27.875 64.4362 28.0185 64.6802C28.1476 64.9386 28.2911 65.1826 28.4202 65.4409C28.5494 65.6993 28.6928 65.9433 28.822 66.2016C28.9511 66.46 29.0946 66.7184 29.238 66.9767C29.3815 67.2351 29.5106 67.4934 29.6541 67.7518C29.7976 68.0102 29.941 68.2685 30.0845 68.5269C30.228 68.7852 30.3715 69.0436 30.5149 69.3019C30.6584 69.5603 30.8019 69.8187 30.9597 70.0627C31.1032 70.321 31.261 70.565 31.4045 70.8234C31.5479 71.0674 31.7057 71.3258 31.8636 71.5698C32.0214 71.8138 32.1792 72.0578 32.3227 72.2874C32.4805 72.5314 32.6383 72.7611 32.7961 72.9907C32.954 73.2204 33.1261 73.45 33.2839 73.6653C33.4418 73.8806 33.6139 74.0959 33.7861 74.3112M1.33301 38.7726C1.61995 38.7439 1.89255 38.7295 2.16515 38.7152C2.43774 38.7008 2.72469 38.6865 2.99728 38.6721C3.26988 38.6578 3.54248 38.6578 3.81507 38.6434C4.08767 38.6434 4.36027 38.6434 4.63286 38.6434C4.90546 38.6434 5.16371 38.6434 5.43631 38.6578C5.7089 38.6721 5.96715 38.6721 6.23975 38.6865C6.498 38.7008 6.7706 38.7152 7.02885 38.7295C7.2871 38.7439 7.54535 38.7582 7.81794 38.7869C8.09054 38.8156 8.33444 38.83 8.59269 38.8587C8.85094 38.8874 9.10919 38.9161 9.36744 38.9448C9.62569 38.9735 9.86959 39.0022 10.1278 39.0453C10.3861 39.074 10.63 39.1171 10.8882 39.1458C11.1321 39.1888 11.3904 39.2175 11.6343 39.2606C11.8782 39.3037 12.1365 39.3467 12.3804 39.3754C12.6243 39.4185 12.8682 39.4615 13.1121 39.5046C13.356 39.5477 13.5999 39.5907 13.8438 39.6338C14.0877 39.6768 14.3316 39.7343 14.5755 39.7773C14.8194 39.8204 15.0489 39.8778 15.2928 39.9208C15.5367 39.9639 15.7663 40.0213 16.0102 40.0787C16.2541 40.1361 16.4837 40.1792 16.7132 40.2366C16.9428 40.294 17.1867 40.3371 17.4162 40.3945C17.6458 40.4519 17.8897 40.495 18.1192 40.5524C18.3488 40.6098 18.5783 40.6529 18.8079 40.7103C19.0375 40.7677 19.267 40.8251 19.4966 40.8682C19.7261 40.9256 19.9557 40.983 20.1852 41.026C20.4148 41.0835 20.6443 41.1265 20.8739 41.1839C21.1035 41.2413 21.333 41.2844 21.5482 41.3418C21.7634 41.3992 21.993 41.4423 22.2225 41.4997C22.4521 41.5571 22.6673 41.6002 22.8969 41.6576C23.1264 41.715 23.3416 41.7581 23.5568 41.8155C23.772 41.8585 24.0016 41.9159 24.2168 41.959C24.432 42.0021 24.6616 42.0595 24.8768 42.1025C25.092 42.1456 25.3215 42.1887 25.5367 42.2461C25.7519 42.2891 25.9672 42.3322 26.1967 42.3752C26.4119 42.4183 26.6271 42.4614 26.8423 42.5044C27.0575 42.5475 27.2728 42.5905 27.488 42.6193C27.7032 42.6623 27.9184 42.691 28.1336 42.7341C28.3488 42.7628 28.564 42.8058 28.7792 42.8346C28.9944 42.8633 29.2096 42.892 29.4248 42.9207C29.64 42.9494 29.8552 42.9781 30.0705 43.0068C30.2857 43.0355 30.5009 43.0499 30.7161 43.0786C30.9313 43.1073 31.1465 43.1216 31.3474 43.136C31.5626 43.1503 31.7778 43.1647 31.9786 43.179C32.1938 43.1934 32.3947 43.2077 32.6099 43.2077C32.8251 43.2221 33.026 43.2221 33.2412 43.2364C33.4564 43.2364 33.6573 43.2508 33.8725 43.2508C34.0877 43.2508 34.2885 43.2508 34.5037 43.2508C34.719 43.2508 34.9198 43.2077 35.135 43.179C35.3502 43.1503 35.5511 43.1216 35.7663 43.0786C35.9815 43.0355 36.1824 43.0068 36.3976 42.9637C36.6128 42.9207 36.8136 42.8776 37.0289 42.8202C37.2441 42.7628 37.4449 42.7197 37.6601 42.648C37.8753 42.5905 38.0762 42.5331 38.2914 42.4614C38.5066 42.3896 38.7075 42.3322 38.9227 42.2461C39.1379 42.1743 39.3387 42.1025 39.554 42.0164C39.7692 41.9303 39.97 41.8585 40.1852 41.7724C40.4004 41.6863 40.6013 41.6002 40.8165 41.4997C41.0317 41.3992 41.2326 41.3131 41.4478 41.2126C41.663 41.1122 41.8639 41.0117 42.0791 40.9112C42.2943 40.8107 42.4951 40.6959 42.7103 40.5811C42.9255 40.4663 43.1264 40.3514 43.3416 40.2366C43.5568 40.1218 43.772 40.007 43.9729 39.8778C44.1881 39.763 44.4033 39.6338 44.6042 39.5046C44.8194 39.3754 45.0346 39.2462 45.2498 39.1171C45.465 38.9879 45.6802 38.8587 45.8954 38.7152C46.1106 38.586 46.3258 38.4425 46.541 38.2989C46.7563 38.1554 46.9715 38.0119 47.1867 37.8683C47.4019 37.7248 47.6171 37.5813 47.8323 37.4377C48.0475 37.2942 48.2627 37.1363 48.4779 36.9928C48.6931 36.8492 48.9083 36.6914 49.1235 36.5335C49.3388 36.3756 49.554 36.2321 49.7835 36.0742C49.9987 35.9163 50.2283 35.7584 50.4435 35.6005C50.6587 35.4426 50.8882 35.2847 51.1035 35.1269C51.3187 34.969 51.5482 34.8111 51.7634 34.6388C51.9786 34.481 52.2082 34.3087 52.4377 34.1508C52.6673 33.9929 52.8825 33.8207 53.1121 33.6628C53.3416 33.5049 53.5568 33.3327 53.7864 33.1748C54.0159 33.0169 54.2311 32.8447 54.4607 32.6868C54.6903 32.5289 54.9198 32.3567 55.1494 32.1988C55.3789 32.0409 55.6085 31.8687 55.838 31.7108C56.0676 31.5529 56.2971 31.3807 56.5267 31.2228C56.7563 31.0649 56.9858 30.907 57.2154 30.7491C57.4449 30.5912 57.6745 30.4333 57.9184 30.2755C58.1479 30.1176 58.3918 29.9597 58.6214 29.8162C58.8509 29.6583 59.0948 29.5147 59.3244 29.3712C59.5683 29.2277 59.7979 29.0841 60.0418 28.9406C60.2857 28.7971 60.5152 28.6535 60.7591 28.5244C61.003 28.3808 61.2469 28.2516 61.4765 28.1225C61.706 27.9933 61.9643 27.8641 62.2082 27.7349C62.4521 27.6057 62.696 27.4909 62.9399 27.3761C63.1838 27.2613 63.4277 27.1464 63.686 27.046C63.9442 26.9455 64.1881 26.845 64.432 26.7446C64.6759 26.6441 64.9342 26.558 65.1781 26.4718C65.4363 26.3857 65.6802 26.314 65.9385 26.2422C66.1967 26.1704 66.4406 26.0987 66.6989 26.0412C66.9571 25.9838 67.2154 25.9264 67.4736 25.8834C67.7319 25.8403 67.9901 25.8116 68.2484 25.7829C68.5066 25.7542 68.7649 25.7398 69.0375 25.7111C69.2957 25.6968 69.5683 25.6824 69.8266 25.6681C70.0848 25.6537 70.3574 25.6394 70.63 25.6394C70.9026 25.625 71.1608 25.625 71.4334 25.625C71.706 25.625 71.9786 25.625 72.2512 25.625C72.5238 25.625 72.7964 25.6394 73.069 25.6394C73.3416 25.6537 73.6142 25.6537 73.9012 25.6681C74.1738 25.6824 74.4607 25.6968 74.7333 25.7111C74.9055 25.9408 75.0776 26.1704 75.2498 26.4001C75.422 26.6297 75.5941 26.8737 75.7663 27.1177C75.9385 27.3617 76.1106 27.6057 76.2684 27.8354C76.4406 28.0794 76.5984 28.3234 76.7706 28.5674C76.9428 28.8114 77.1006 29.0554 77.2584 29.2994C77.4162 29.5434 77.5884 29.7874 77.7462 30.0458C77.904 30.2898 78.0619 30.5338 78.2197 30.7922C78.3775 31.0362 78.5353 31.2802 78.6931 31.5242C78.851 31.7682 79.0088 32.0122 79.1522 32.2562C79.3101 32.5002 79.4535 32.7442 79.6113 32.9882C79.7692 33.2322 79.9126 33.4619 80.0705 33.7059C80.2283 33.9499 80.3718 34.1795 80.5152 34.4092C80.6587 34.6388 80.8165 34.8829 80.96 35.1125C81.1035 35.3422 81.2469 35.5718 81.3904 35.8015C81.5339 36.0311 81.6773 36.2608 81.8208 36.4761C81.9643 36.7057 82.1078 36.921 82.2512 37.1363C82.3947 37.3516 82.5382 37.5813 82.6673 37.7966C82.8108 38.0119 82.9542 38.2272 83.0834 38.4425C83.2268 38.6578 83.356 38.8587 83.4994 39.074C83.6429 39.2749 83.772 39.4902 83.9155 39.6912C84.059 39.8921 84.1881 40.0931 84.3172 40.294C84.4464 40.495 84.5898 40.6959 84.719 40.8825C84.8481 41.0835 84.9916 41.27 85.1207 41.4566C85.2498 41.6432 85.3933 41.8442 85.5224 42.0308C85.6515 42.2174 85.795 42.404 85.9241 42.5905C86.0532 42.7771 86.1824 42.9494 86.3258 43.136C86.455 43.3226 86.5841 43.4948 86.7276 43.667C86.871 43.8393 86.9858 44.0115 87.1293 44.1838C87.2584 44.356 87.3875 44.5282 87.5167 44.7005C87.6458 44.8727 87.7749 45.0306 87.904 45.2028C88.0332 45.3751 88.1623 45.533 88.2914 45.6908C88.4205 45.8487 88.5497 46.021 88.6788 46.1789C88.8079 46.3367 88.937 46.4946 89.0662 46.6525C89.1953 46.8104 89.3244 46.9683 89.4535 47.1118C89.5827 47.2554 89.7118 47.4132 89.8409 47.5711C89.97 47.729 90.0992 47.8725 90.2426 48.0161C90.3861 48.1596 90.5009 48.3175 90.6444 48.461C90.7878 48.6046 90.9026 48.7481 91.0461 48.8916C91.1752 49.0352 91.3187 49.1787 91.4478 49.3222C91.5769 49.4658 91.7204 49.6236 91.8495 49.7672C91.9786 49.9251 92.1221 50.0686 92.2512 50.2265C92.3804 50.3844 92.5238 50.5279 92.653 50.6714C92.7964 50.815 92.9256 50.9728 93.069 51.1164C93.2125 51.2599 93.3416 51.4178 93.4851 51.5613C93.6286 51.7049 93.7577 51.8627 93.9012 52.0063C94.0446 52.1642 94.1881 52.3077 94.3316 52.4656C94.4751 52.6235 94.6185 52.767 94.762 52.9249C94.9055 53.0828 95.0489 53.2263 95.1924 53.3842C95.3359 53.5421 95.4794 53.7 95.6228 53.8579C95.7663 54.0157 95.9098 54.1736 96.0676 54.3315C96.2254 54.4894 96.3689 54.6473 96.5124 54.8195C96.6558 54.9918 96.8136 55.1496 96.9715 55.3075C97.1293 55.4798 97.2728 55.6377 97.4306 55.8099C97.5884 55.9821 97.7462 56.1544 97.8897 56.3123C98.0475 56.4845 98.2053 56.6567 98.3631 56.829C98.521 57.0012 98.6788 57.1735 98.8366 57.36C98.9944 57.5323 99.1522 57.7189 99.3244 57.9055C99.4822 58.0921 99.6544 58.2643 99.8122 58.4509C99.9844 58.6375 100.142 58.8241 100.314 59.0107C100.487 59.1973 100.659 59.3839 100.817 59.5704C100.974 59.757 101.161 59.958 101.333 60.1446C101.06 60.1733 100.773 60.1876 100.501 60.2163C100.228 60.245 99.9557 60.2451 99.6831 60.2594C99.4105 60.2738 99.1379 60.2881 98.8797 60.2881C98.6071 60.3025 98.3488 60.3025 98.0762 60.3025C97.8036 60.3025 97.5453 60.3025 97.2871 60.3025C97.0288 60.3025 96.7563 60.2881 96.498 60.2881C96.2398 60.2738 95.9815 60.2738 95.7233 60.2594C95.465 60.2451 95.2068 60.2307 94.9485 60.2163C94.6903 60.202 94.432 60.1876 94.1881 60.1589C93.9442 60.1302 93.686 60.1159 93.4277 60.0872C93.1695 60.0585 92.9256 60.0441 92.6817 60.0154C92.4377 59.9867 92.1795 59.958 91.9356 59.9293C91.6917 59.9006 91.4478 59.8719 91.2039 59.8432C90.96 59.8145 90.7161 59.7714 90.4722 59.7427C90.2283 59.714 89.9844 59.6709 89.7548 59.6422C89.5109 59.5992 89.2814 59.5704 89.0375 59.5274C88.7936 59.4843 88.564 59.4556 88.3201 59.4126C88.0905 59.3695 87.8466 59.3264 87.6171 59.2834C87.3875 59.2403 87.1436 59.1973 86.9141 59.1542C86.6845 59.1111 86.455 59.0681 86.2254 59.025C85.9959 58.982 85.7663 58.9389 85.5367 58.8958C85.3072 58.8528 85.0776 58.8097 84.8481 58.7667C84.6185 58.7236 84.389 58.6805 84.1738 58.6231C83.9586 58.5657 83.729 58.537 83.4994 58.4796C83.2699 58.4365 83.0547 58.3935 82.8251 58.3361C82.5956 58.293 82.3804 58.2499 82.1508 58.1925C81.9356 58.1495 81.706 58.1064 81.4908 58.0634C81.2756 58.0203 81.0461 57.9772 80.8309 57.9342C80.6157 57.8911 80.3861 57.8481 80.1709 57.805C79.9557 57.7619 79.7405 57.7189 79.5109 57.6758C79.2957 57.6328 79.0805 57.5897 78.8653 57.5466C78.6501 57.5036 78.4349 57.4605 78.2197 57.4318C78.0045 57.4031 77.7893 57.36 77.5741 57.317C77.3588 57.2739 77.1436 57.2452 76.9284 57.2022C76.7132 57.1591 76.498 57.1304 76.2828 57.1017C76.0676 57.073 75.8524 57.0299 75.6515 57.0012C75.4363 56.9725 75.2211 56.9438 75.0202 56.9151C74.805 56.8864 74.6042 56.8577 74.389 56.829C74.1738 56.8003 73.9729 56.7716 73.7577 56.7572C73.5425 56.7285 73.3416 56.7142 73.1264 56.6854C72.9112 56.6567 72.7103 56.6424 72.4951 56.628C72.2799 56.6137 72.0791 56.5993 71.8639 56.5706C71.6487 56.5563 71.4478 56.5419 71.2326 56.5276C71.0174 56.5132 70.8165 56.4989 70.6013 56.4989C70.3861 56.4845 70.1852 56.4845 69.97 56.4845C69.7548 56.4845 69.554 56.4845 69.3388 56.4845C69.1379 56.4845 68.9227 56.4845 68.7218 56.4845C68.521 56.4845 68.3058 56.4989 68.0905 56.5276C67.8753 56.5563 67.6745 56.585 67.4593 56.6137C67.2441 56.6424 67.0432 56.6854 66.828 56.7285C66.6128 56.7716 66.4119 56.8146 66.1967 56.8577C65.9815 56.9007 65.7806 56.9582 65.5654 57.0156C65.3502 57.073 65.1494 57.1304 64.9342 57.2022C64.719 57.2739 64.5037 57.3313 64.3029 57.4031C64.0877 57.4749 63.8725 57.5466 63.6716 57.6328C63.4564 57.7045 63.2412 57.7906 63.026 57.8768C62.8108 57.9629 62.5956 58.049 62.3804 58.1351C62.1652 58.2212 61.9499 58.3217 61.7347 58.4222C61.5195 58.5227 61.3043 58.6231 61.0891 58.7236C60.8739 58.8241 60.6587 58.9389 60.4435 59.0394C60.2283 59.1542 60.0131 59.2547 59.7979 59.3695C59.5827 59.4843 59.3674 59.5992 59.1522 59.714C58.937 59.8288 58.7218 59.958 58.4923 60.0728C58.2627 60.1876 58.0475 60.3168 57.8323 60.446C57.6171 60.5752 57.3875 60.7044 57.1723 60.8335C56.9571 60.9627 56.7276 61.1062 56.5124 61.2354C56.2971 61.379 56.0676 61.5081 55.8524 61.6517C55.6372 61.7952 55.4076 61.9387 55.1781 62.0823C54.9485 62.2258 54.7333 62.3693 54.5037 62.5272C54.2742 62.6707 54.059 62.8286 53.8294 62.9865C53.5999 63.1444 53.3847 63.2879 53.1551 63.4458C52.9256 63.6037 52.696 63.7616 52.4664 63.9195C52.2369 64.0774 52.0073 64.2353 51.7778 64.3931C51.5482 64.551 51.3187 64.7089 51.0891 64.8812C50.8596 65.039 50.63 65.2113 50.4004 65.3692C50.1709 65.527 49.9413 65.6993 49.7118 65.8572C49.4822 66.0151 49.2527 66.1873 49.0088 66.3452C48.7792 66.5031 48.5353 66.6753 48.3057 66.8332C48.0762 66.9911 47.8323 67.1633 47.6027 67.3212C47.3732 67.4791 47.1293 67.6513 46.8997 67.8092C46.6702 67.9671 46.4263 68.1393 46.1824 68.2972C45.9385 68.4551 45.7089 68.6273 45.465 68.7852C45.2211 68.9431 44.9916 69.101 44.7476 69.2589C44.5037 69.4168 44.2598 69.5747 44.0159 69.7325C43.772 69.8904 43.5281 70.0483 43.2842 70.1919C43.0403 70.3497 42.7964 70.4933 42.5525 70.6368C42.3086 70.7803 42.0647 70.9239 41.8208 71.0674C41.5769 71.2109 41.333 71.3545 41.0748 71.4836C40.8309 71.6272 40.5726 71.7564 40.3287 71.8855C40.0848 72.0147 39.8266 72.1439 39.5827 72.2731C39.3388 72.4023 39.0805 72.5171 38.8366 72.6319C38.5927 72.7467 38.3344 72.8616 38.0762 72.962C37.8179 73.0625 37.574 73.163 37.3158 73.2635C37.0575 73.3639 36.8136 73.45 36.5554 73.5362C36.2971 73.6223 36.0532 73.694 35.795 73.7658C35.5367 73.8376 35.2785 73.895 35.0346 73.9524C34.7763 74.0098 34.5181 74.0672 34.2598 74.0959C34.0016 74.1246 33.7433 74.1677 33.4851 74.1964C33.2268 74.2251 32.9686 74.2395 32.7103 74.2538C32.4521 74.2682 32.1938 74.2825 31.9356 74.2969C31.6773 74.3112 31.4191 74.3112 31.1465 74.3112C30.8882 74.3112 30.6157 74.3112 30.3574 74.3112C30.0992 74.3112 29.8266 74.2969 29.5683 74.2969C29.2957 74.2825 29.0375 74.2825 28.7649 74.2538C28.4923 74.2395 28.234 74.2251 27.9614 74.1964C27.6888 74.1821 27.4162 74.1534 27.1436 74.1246C26.9715 73.895 26.8136 73.651 26.6558 73.4213C26.498 73.1773 26.3258 72.9333 26.168 72.6893C26.0102 72.4453 25.8524 72.2013 25.6946 71.9429C25.5367 71.6989 25.3789 71.4406 25.2354 71.1966C25.092 70.9526 24.9342 70.6942 24.7763 70.4359C24.6185 70.1775 24.475 69.9335 24.3316 69.6751C24.1881 69.4168 24.0446 69.1584 23.8868 68.9144C23.729 68.6704 23.5999 68.3977 23.4564 68.1537C23.3129 67.8953 23.1695 67.6513 23.026 67.393C22.8825 67.1346 22.739 66.8906 22.6099 66.6322C22.4664 66.3882 22.3373 66.1299 22.1938 65.8859C22.0504 65.6419 21.9212 65.3979 21.7921 65.1539C21.663 64.9099 21.5195 64.6659 21.3904 64.4218C21.2613 64.1778 21.1178 63.9482 20.9887 63.7042C20.8596 63.4602 20.7304 63.2305 20.587 63.0009C20.4435 62.7712 20.3287 62.5416 20.1996 62.3119C20.0705 62.0823 19.9413 61.8526 19.8122 61.6373C19.6831 61.422 19.554 61.1924 19.4248 60.9627C19.2957 60.7331 19.1666 60.5178 19.0375 60.3025C18.9083 60.0872 18.7792 59.8719 18.6501 59.6566C18.521 59.4413 18.3918 59.2403 18.2771 59.025C18.1479 58.8241 18.0188 58.6088 17.904 58.4078C17.7893 58.2069 17.6458 58.0059 17.531 57.805C17.4019 57.6041 17.2728 57.4175 17.158 57.2165C17.0432 57.0156 16.9141 56.829 16.7849 56.6424C16.6558 56.4558 16.541 56.2692 16.4119 56.0826C16.2828 55.896 16.168 55.7094 16.0389 55.5372C15.9098 55.3649 15.795 55.1784 15.6659 55.0061C15.5367 54.8339 15.422 54.6616 15.2928 54.4894C15.1637 54.3172 15.0489 54.1449 14.9198 53.9727C14.7907 53.8004 14.6616 53.6426 14.5468 53.4703C14.432 53.2981 14.2885 53.1402 14.1738 52.9823C14.059 52.8244 13.9155 52.6665 13.8007 52.5086C13.6716 52.3508 13.5425 52.1929 13.4134 52.035C13.2842 51.8771 13.1551 51.7336 13.026 51.5757C12.8969 51.4178 12.7677 51.2743 12.6386 51.1307C12.5095 50.9872 12.3804 50.8293 12.2512 50.6858C12.1221 50.5423 11.993 50.3987 11.8639 50.2552C11.7347 50.1117 11.6056 49.9681 11.4765 49.8246C11.3474 49.6811 11.2039 49.5375 11.0748 49.4083C10.9456 49.2648 10.8165 49.1069 10.673 48.9634C10.5439 48.8199 10.4004 48.662 10.2713 48.5184C10.1422 48.3749 9.99872 48.217 9.86959 48.0735C9.74047 47.93 9.597 47.7721 9.46787 47.6285C9.33875 47.485 9.19528 47.3271 9.0518 47.1836C8.90833 47.0401 8.77921 46.8822 8.63573 46.7386C8.49226 46.5951 8.36314 46.4372 8.21967 46.2937C8.07619 46.1502 7.93272 45.9923 7.8036 45.8487C7.66012 45.6909 7.51665 45.5473 7.37318 45.3894C7.22971 45.2315 7.08624 45.088 6.94276 44.9301C6.79929 44.7722 6.65582 44.6144 6.51235 44.4565C6.36888 44.2986 6.2254 44.1407 6.06759 43.9828C5.92411 43.8249 5.76629 43.667 5.62282 43.4948C5.47935 43.3226 5.32153 43.1647 5.16371 43.0068C5.00589 42.8346 4.86242 42.6767 4.7046 42.5044C4.54678 42.3322 4.38896 42.16 4.24549 41.9877C4.08767 41.8155 3.92985 41.6432 3.77203 41.471C3.61421 41.2988 3.45639 41.1122 3.29857 40.9399C3.14076 40.7677 2.98294 40.5811 2.81077 40.3945C2.6386 40.2079 2.48078 40.0357 2.32296 39.8491C2.1508 39.6625 1.99298 39.4759 1.82081 39.2893C1.67734 39.1601 1.50517 38.9592 1.33301 38.7726Z" stroke="#C8C8C8" stroke-linecap="round" stroke-linejoin="round"/>
</svg>
