<svg width="101" height="100" viewBox="0 0 101 100" fill="none" xmlns="http://www.w3.org/2000/svg">
<path d="M95.6726 50.0004H89.0054M95.4433 54.5681L88.8096 53.9009M94.7046 59.325L88.1805 57.951M93.4822 63.9058L87.1407 61.8478M91.7979 68.2943L85.7069 65.583M89.672 72.4661L83.8945 69.1386M87.0817 76.4523L81.69 72.5303M84.1413 80.0827L79.1771 75.6322M80.7954 83.4332L76.3268 78.4851M77.1562 86.3872L73.2146 81.0099M73.1893 88.9718L69.8406 83.2066M68.9987 91.1132L66.2647 85.0324M64.5974 92.8061L62.5154 86.4723M60.0369 94.0267L58.6381 87.5079M55.3721 94.7608L54.6793 88.1297M50.4918 95.0036L50.5176 88.3364M45.8035 94.7436L46.4962 88.1125M41.144 93.9931L42.5428 87.4744M36.5924 92.7575L38.6744 86.4237M32.2026 91.0519L34.9366 84.971M28.0259 88.9003L31.3746 83.1351M24.0748 86.3089L28.0164 80.9317M20.4523 83.3513L24.9209 78.4032M17.1235 80.001L22.0878 75.5505M14.1557 76.3132L19.5616 72.411M11.6252 72.395L17.4027 69.0675M9.51321 68.2332L15.6042 65.5219M7.80344 63.743L14.1527 61.7088M6.62661 59.2918L13.1507 57.9178M5.89321 54.5517L12.5269 53.8845M5.66699 49.6462L12.334 49.6976M5.92781 45.1163L12.5562 45.8346M6.70132 40.3597L13.2147 41.7834M7.95837 35.7834L14.2842 37.8892M9.66485 31.4293L15.7355 34.1859M11.7852 27.3293L17.538 30.6993M14.4364 23.3028L19.7993 27.2641M17.3134 19.7884L22.2452 24.275M20.7199 16.4087L25.1524 21.3891M24.4799 13.3981L28.3624 18.8182M28.3124 10.9344L31.6185 16.7242M32.4131 8.85422L35.1017 14.9553M37.0764 7.087L39.0866 13.4439M41.3903 5.95479L42.7394 12.4841M46.2572 5.21061L46.8989 11.8468M51.1995 5L51.1223 11.6667M55.5954 5.26325L54.8516 11.8888M60.4336 6.05972L58.9851 12.5676M65.0244 7.33586L62.8947 13.6538M69.3628 9.05192L66.5836 15.1122M73.4428 11.1765L70.0517 16.9169M77.486 13.8562L73.5053 19.2045M80.9902 16.7439L76.4858 21.6593M84.369 20.1728L79.3725 24.5871M87.3653 23.9426L81.931 27.8053M89.8318 27.8134L84.03 31.0982M92.0027 32.1735L85.8818 34.8164M93.6346 36.5732L87.2701 38.5594M94.7699 40.9906L88.2355 42.3147M95.4779 45.7894L88.8393 46.4055" stroke="#C8C8C8" stroke-linecap="round" stroke-linejoin="round"/>
</svg>
