<svg width="101" height="102" viewBox="0 0 101 102" fill="none" xmlns="http://www.w3.org/2000/svg">
<path d="M36.4063 7.12925C34.7214 10.2571 30.5131 19.1068 30.0944 30.1615C29.4091 48.2828 42.4671 55.5541 42.4671 55.5541M36.4063 7.12925L29.9421 1.87561M36.4063 7.12925L37.0743 5.86449L40.132 6.76789M29.9421 1.87561C29.9421 1.87561 21.7951 16.7229 20.1201 31.6082C17.8739 51.5948 25.7163 62.8635 25.7163 62.8635M29.9421 1.87561L26.7894 1C23.8707 6.23287 17.7137 19.6805 16.435 31.6082C14.8367 46.5177 17.4079 57.984 22.3419 65.9062M25.7163 62.8635L68.0119 97.9258M25.7163 62.8635L22.3419 65.9062M68.0119 97.9258C68.0119 97.9258 64.2049 91.6824 63.0248 84.6775C61.8446 77.6727 62.1111 71.8198 62.1111 71.8198M68.0119 97.9258L64.7324 101L22.3419 65.9062M62.1111 71.8198L42.4671 55.5541M62.1111 71.8198L77.2411 84.3218L79.8818 80.7081L74.5309 76.2606M42.4671 55.5541L45.066 52.0076M45.066 52.0076C41.4324 50.346 34.1076 43.595 33.8777 30.1615C33.6229 26.8343 34.4614 17.5532 40.132 6.76789M45.066 52.0076L74.5309 76.2606M40.132 6.76789L47.3592 12.7443M47.3592 12.7443L47.8457 11.7019L50.9034 12.6053M47.3592 12.7443C45.7841 15.5302 43.1042 21.5698 43.6066 29.492C44.1091 37.4142 48.4711 40.8193 50.8339 42.4177M50.9034 12.6053L76.5462 33.6616C74.6699 36.6498 71.5427 43.46 73.28 51.7297M50.9034 12.6053C46.2891 21.189 46.9886 28.5515 47.9152 31.1598C50.9173 39.3878 57.2735 40.9351 60.0764 40.6803M73.28 51.7297L85.3718 61.8756L83.9124 65.7672M73.28 51.7297L60.0764 40.6803M83.9124 65.7672L58.4086 44.7804M83.9124 65.7672C77.7276 65.6282 75.0868 62.779 68.763 57.4976M58.4086 44.7804L60.0764 40.6803M58.4086 44.7804C56.296 44.7804 52.7102 43.5295 50.8339 42.4177M74.5309 76.2606C72.4229 74.2557 68.346 67.6435 68.763 57.4976M68.763 57.4976L50.8339 42.4177" stroke="#C8C8C8" stroke-linecap="round" stroke-linejoin="round"/>
</svg>
