<svg width="100" height="100" viewBox="0 0 100 100" fill="none" xmlns="http://www.w3.org/2000/svg">
<path d="M88.0929 50.7943C88.0929 35.7028 79.3436 22.657 66.6457 16.4628M88.0929 50.7943C86.1187 50.7943 84.5173 52.3963 84.5173 54.3726C84.5173 56.3488 86.1176 57.9509 88.0918 57.9509C90.066 57.9509 91.6663 56.3488 91.6663 54.3726C91.6663 52.3963 90.0671 50.7943 88.0929 50.7943ZM49.9645 12.6257C31.7717 12.6257 16.555 25.3807 12.7511 42.4449M66.6457 16.4628C65.6981 18.1965 63.526 18.8333 61.7941 17.8848C60.0622 16.9362 59.4264 14.7618 60.374 13.028C61.3216 11.2943 63.4937 10.6579 65.2256 11.6065C66.9575 12.555 67.5933 14.7291 66.6457 16.4628ZM12.5052 57.9509C15.8515 75.61 31.3503 88.9629 49.9645 88.9629C63.4866 88.9629 75.3647 81.9163 82.1342 71.2914M75.0577 51.7207C75.0577 66.2132 63.3216 77.9616 48.8444 77.9616C34.3672 77.9616 22.6312 66.2132 22.6312 51.7207C22.6312 40.5947 29.5482 31.0859 39.3123 27.2687M48.8444 25.4798C60.0595 25.4798 69.6295 32.5302 73.373 42.4449M15.3849 46.7571C14.9259 48.6792 12.9973 49.8649 11.0773 49.4054C9.15721 48.9459 7.97278 47.0153 8.43178 45.0932C8.89078 43.1711 10.8194 41.9854 12.7395 42.4449C14.6595 42.9044 15.8439 44.835 15.3849 46.7571ZM65.5256 51.7207C65.5256 60.9432 58.0572 68.4195 48.8444 68.4195C39.6317 68.4195 32.1633 60.9432 32.1633 51.7207C32.1633 42.4983 39.6317 35.022 48.8444 35.022C58.0572 35.022 65.5256 42.4983 65.5256 51.7207Z" stroke="#C8C8C8" stroke-linecap="round" stroke-linejoin="round"/>
</svg>
