<svg width="101" height="100" viewBox="0 0 101 100" fill="none" xmlns="http://www.w3.org/2000/svg">
<path d="M72.9164 20.4167L72.3232 21.2083M28.5038 79.6831L29.2928 78.6303M28.4163 20.4168L29.0175 21.2165M72.8691 79.6075L72.3922 78.9701M50.7497 36.1667C55.3981 36.1667 59.1664 37.1741 59.1664 38.4167C59.1664 39.6594 55.3981 40.6667 50.7497 40.6667M50.7497 36.1667C50.6769 36.1667 50.6043 36.1666 50.5318 36.1662M50.7497 36.1667C50.6769 36.1667 50.6042 36.167 50.5318 36.1675M50.7497 36.1667C56.6509 36.1667 61.651 34.9051 63.3658 33.1616M50.7497 64.0001C55.3981 64.0001 59.1664 62.9927 59.1664 61.7501C59.1664 60.5074 55.3981 59.5001 50.7497 59.5001M50.7497 64.0001C50.6769 64.0001 50.6042 63.9998 50.5318 63.9993M50.7497 64.0001C50.6769 64.0001 50.6043 64.0003 50.5318 64.0006M50.7497 64.0001C56.8292 64.0001 61.9525 65.3134 63.5122 67.1038M50.7497 40.6667C53.9254 40.6667 56.4997 41.3756 56.4997 42.2501C56.4997 42.2785 56.497 42.3067 56.4916 42.3348M50.7497 40.6667C50.6769 40.6667 50.6042 40.6665 50.5318 40.666M50.7497 40.6667C50.6767 40.6667 50.6041 40.6671 50.5318 40.6679M50.7497 59.5001C53.9254 59.5001 56.4997 58.7539 56.4997 57.8334C56.4997 57.8121 56.4983 57.7909 56.4956 57.7699M50.7497 59.5001C50.6769 59.5001 50.6042 59.5003 50.5318 59.5008M50.7497 59.5001C50.6767 59.5001 50.6041 59.4997 50.5318 59.4989M50.5318 59.5008V59.4989M50.5318 59.5008C45.9841 59.5317 42.333 60.5269 42.333 61.7501C42.333 62.9732 45.9841 63.9684 50.5318 63.9993M50.5318 59.4989C47.4571 59.4657 44.9997 58.7327 44.9997 57.8334C44.9997 57.7495 45.0211 57.6671 45.0623 57.5866M45.0623 57.5866L33.1297 73.5518M45.0623 57.5866L45.2238 57.3711M45.0623 57.5866C45.1 57.5131 45.1542 57.4411 45.2238 57.3711M33.1297 73.5518C34.1615 72.3308 36.4668 71.2711 39.5756 70.5192M33.1297 73.5518C33.044 73.6533 32.967 73.756 32.8991 73.8597M33.1297 73.5518L32.8991 73.8597M39.5756 70.5192C38.2806 69.8627 37.4997 69.0844 37.4997 68.2501C37.4997 65.9262 43.3145 64.038 50.5318 64.0006M39.5756 70.5192C41.9236 71.7096 46.0332 72.5001 50.7497 72.5001C55.4578 72.5001 59.5924 71.7124 61.9426 70.5256M39.5756 70.5192C42.649 69.7759 46.591 69.3334 50.781 69.3334C54.9858 69.3334 58.8605 69.7783 61.9426 70.5256M50.5318 64.0006V63.9993M45.2238 57.3711C45.896 56.6949 48.0056 56.1952 50.5318 56.1679C50.6041 56.1671 50.6767 56.1667 50.7497 56.1667C53.1465 56.1667 55.2008 56.5918 56.0643 57.196M45.2238 57.3711L50.5318 50.2879L50.7012 50.0618M56.0643 57.196L50.7012 50.0618M56.0643 57.196L56.4956 57.7699M56.0643 57.196C56.3184 57.3739 56.4694 57.5672 56.4956 57.7699M50.7012 50.0618L50.8 49.93L56.1424 42.8007M50.7012 50.0618L50.6353 49.9741L50.5318 49.8364L29.0175 21.2165M63.5122 67.1038L56.4956 57.7699M63.5122 67.1038C63.5965 67.2005 63.6703 67.2987 63.7334 67.3981M63.5122 67.1038L63.7334 67.3981M29.2928 78.6303C30.1588 77.8713 31.5271 77.1741 33.235 76.5676M29.2928 78.6303L32.8991 73.8597M29.2928 78.6303C28.5619 79.2708 28.1664 79.9555 28.1664 80.6668C28.1664 84.2566 38.24 87.1667 50.6664 87.1668C63.0928 87.1668 73.1664 84.2566 73.1664 80.6668C73.1664 80.0798 72.8971 79.511 72.3922 78.9701M33.235 76.5676C32.7766 76.0698 32.531 75.5439 32.531 75.0001C32.531 74.6094 32.6577 74.228 32.8991 73.8597M33.235 76.5676C35.4149 78.9348 42.4079 80.6667 50.6977 80.6667C58.9538 80.6667 65.9799 78.9488 68.2099 76.5965M33.235 76.5676C37.3606 75.1026 43.6195 74.1667 50.6664 74.1668C57.7595 74.1668 64.0859 75.1149 68.2099 76.5965M68.3182 73.4971C67.2693 72.3022 64.9945 71.2656 61.9426 70.5256M68.3182 73.4971L63.7334 67.3981M68.3182 73.4971C68.4164 73.6278 68.5044 73.7537 68.5813 73.877M61.9426 70.5256C63.2453 69.8677 63.9997 69.0871 63.9997 68.2501C63.9997 67.9583 63.908 67.6733 63.7334 67.3981M63.7334 67.3981L68.5813 73.877M68.2099 76.5965C70.1294 77.2861 71.5718 78.0912 72.3922 78.9701M68.2099 76.5965C68.6899 76.0901 68.9477 75.5544 68.9477 75.0001C68.9477 74.6086 68.8168 74.2549 68.5813 73.877M72.3922 78.9701L68.5813 73.877M56.1424 42.8007C55.3301 43.4037 53.2222 43.8334 50.7497 43.8334C50.6767 43.8334 50.6041 43.833 50.5318 43.8323C47.4571 43.8008 44.9997 43.1044 44.9997 42.2501C44.9997 41.3957 47.4571 40.6994 50.5318 40.6679M56.1424 42.8007C56.3396 42.6544 56.4604 42.4978 56.4916 42.3348M56.1424 42.8007L56.4916 42.3348M33.1528 23.5501C31.2771 22.8705 29.854 22.0796 29.0175 21.2165M33.1528 23.5501C32.7271 24.0382 32.4997 24.5524 32.4997 25.0834C32.4997 26.9123 35.1975 28.5418 39.4022 29.595M33.1528 23.5501C35.2729 21.1188 42.3109 19.3334 50.6664 19.3334C59.0219 19.3334 66.0599 21.1188 68.18 23.5501M33.1528 23.5501C37.2774 25.0444 43.5905 26.0001 50.6664 26.0001C57.7423 26.0001 64.0553 25.0444 68.18 23.5501M29.0175 21.2165C28.4631 20.6445 28.1664 20.0408 28.1664 19.4167C28.1664 15.7809 38.24 12.8334 50.6664 12.8334C63.0928 12.8334 73.1664 15.7809 73.1664 19.4167C73.1664 20.0378 72.8725 20.6387 72.3232 21.2083M50.5318 40.6679V40.666M50.5318 40.666C45.9841 40.6351 42.333 39.6399 42.333 38.4167C42.333 37.1936 45.9841 36.1984 50.5318 36.1675M50.5318 36.1675V36.1662M50.5318 36.1662C43.3145 36.1281 37.4997 34.2028 37.4997 31.8334C37.4997 31.0143 38.1946 30.2483 39.4022 29.595M39.4022 29.595C42.4983 30.3704 46.4115 30.8334 50.6664 30.8334C54.9733 30.8334 58.9302 30.359 62.0439 29.5663M39.4022 29.595C41.7227 28.3394 45.9365 27.5001 50.7497 27.5001C55.5263 27.5001 59.7125 28.3267 62.0439 29.5663M63.3658 33.1616L56.4916 42.3348M63.3658 33.1616C63.5543 32.9699 63.7031 32.7723 63.8091 32.57M63.3658 33.1616L63.8091 32.57M72.3232 21.2083C71.4878 22.0746 70.0616 22.8684 68.18 23.5501M72.3232 21.2083L63.8091 32.57M68.18 23.5501C68.6056 24.0382 68.8331 24.5524 68.8331 25.0834C68.8331 26.8958 66.1837 28.5124 62.0439 29.5663M62.0439 29.5663C63.2843 30.2259 63.9997 31.0023 63.9997 31.8334C63.9997 32.0845 63.9344 32.3306 63.8091 32.57M50.7012 4.91675V95.1668M50.7012 4.91675L51.9512 6.16675M50.7012 4.91675L49.4512 6.16675M50.7012 95.1668L51.9512 93.9168M50.7012 95.1668L49.4512 93.9168M91.0683 39.2332L50.7007 50.0497M91.0683 39.2332L90.1844 40.7642M91.0683 39.2332L89.5374 38.3494M50.7007 50.0497L10.333 60.8662M50.7007 50.0497L10.333 39.2332M50.7007 50.0497L91.0683 60.8662M10.333 60.8662L11.8639 61.7501M10.333 60.8662L11.2169 59.3353M10.333 39.2332L11.2169 40.7642M10.333 39.2332L11.864 38.3494M91.0683 60.8662L89.5374 61.7501M91.0683 60.8662L90.1845 59.3353" stroke="#C8C8C8" stroke-linecap="round" stroke-linejoin="round"/>
</svg>
