<svg width="121" height="100" viewBox="0 0 121 100" fill="none" xmlns="http://www.w3.org/2000/svg">
<path d="M60.9163 50C60.9163 50 39.7505 81.0833 26.082 81.0833C12.4135 81.0833 1.33301 67.1668 1.33301 50C1.33301 32.8331 12.4135 18.9166 26.082 18.9166C39.7505 18.9166 60.9163 50 60.9163 50ZM60.9163 50C60.9163 50 82.0822 81.0833 95.7507 81.0833C109.419 81.0833 120.5 67.1668 120.5 50C120.5 32.8331 109.419 18.9166 95.7507 18.9166C82.0822 18.9166 60.9163 50 60.9163 50ZM60.9163 50C60.9163 50 42.4375 81.0833 30.5042 81.0833C18.5709 81.0833 8.89704 67.1668 8.89704 50C8.89704 32.8331 18.5709 18.9166 30.5042 18.9166C42.4375 18.9166 60.9163 50 60.9163 50ZM60.9163 50C60.9163 50 79.3952 81.0833 91.3285 81.0833C103.262 81.0833 112.936 67.1668 112.936 50C112.936 32.8331 103.262 18.9166 91.3285 18.9166C79.3952 18.9166 60.9163 50 60.9163 50ZM60.9163 50C60.9163 50 45.2187 81.0833 35.0815 81.0833C24.9443 81.0833 16.7265 67.1668 16.7265 50C16.7265 32.8331 24.9443 18.9166 35.0815 18.9166C45.2187 18.9166 60.9163 50 60.9163 50ZM60.9163 50C60.9163 50 76.614 81.0833 86.7512 81.0833C96.8884 81.0833 105.106 67.1668 105.106 50C105.106 32.8331 96.8884 18.9166 86.7512 18.9166C76.614 18.9166 60.9163 50 60.9163 50ZM60.9163 50C60.9163 50 48.4714 81.0833 40.4347 81.0833C32.398 81.0833 25.8829 67.1668 25.8829 50C25.8829 32.8331 32.398 18.9166 40.4347 18.9166C48.4714 18.9166 60.9163 50 60.9163 50ZM60.9163 50C60.9163 50 73.3613 81.0833 81.398 81.0833C89.4347 81.0833 95.9498 67.1668 95.9498 50C95.9498 32.8331 89.4347 18.9166 81.398 18.9166C73.3613 18.9166 60.9163 50 60.9163 50ZM60.9163 50C60.9163 50 51.6298 81.0833 45.6327 81.0833C39.6356 81.0833 34.774 67.1668 34.774 50C34.774 32.8331 39.6356 18.9166 45.6327 18.9166C51.6298 18.9166 60.9163 50 60.9163 50ZM60.9163 50C60.9163 50 70.2029 81.0833 76.2 81.0833C82.1971 81.0833 87.0587 67.1668 87.0587 50C87.0587 32.8331 82.1971 18.9166 76.2 18.9166C70.2029 18.9166 60.9163 50 60.9163 50ZM60.9163 50C60.9163 50 54.7881 81.0833 50.8307 81.0833C46.8732 81.0833 43.665 67.1668 43.665 50C43.665 32.8331 46.8732 18.9166 50.8307 18.9166C54.7881 18.9166 60.9163 50 60.9163 50ZM60.9163 50C60.9163 50 67.0446 81.0833 71.002 81.0833C74.9595 81.0833 78.1676 67.1668 78.1676 50C78.1676 32.8331 74.9595 18.9166 71.002 18.9166C67.0446 18.9166 60.9163 50 60.9163 50ZM60.9163 50C60.9163 50 57.9465 81.0833 56.0287 81.0833C54.1108 81.0833 52.5561 67.1668 52.5561 50C52.5561 32.8331 54.1108 18.9166 56.0287 18.9166C57.9465 18.9166 60.9163 50 60.9163 50ZM60.9163 50C60.9163 50 63.8862 81.0833 65.804 81.0833C67.7219 81.0833 69.2766 67.1668 69.2766 50C69.2766 32.8331 67.7219 18.9166 65.804 18.9166C63.8862 18.9166 60.9163 50 60.9163 50ZM60.9163 50C60.9163 67.1668 60.9287 81.0833 60.9439 81.0833C60.9591 81.0833 60.9827 50 60.9827 50M60.9163 50C60.9163 32.8331 60.9287 18.9166 60.9439 18.9166C60.9591 18.9166 60.9827 50 60.9827 50M60.9827 50C60.9827 50 61.0063 81.0833 61.0215 81.0833C61.0367 81.0833 61.049 67.1668 61.049 50C61.049 32.8331 61.0367 18.9166 61.0215 18.9166C61.0063 18.9166 60.9827 50 60.9827 50Z" stroke="#C8C8C8" stroke-miterlimit="10" stroke-linecap="round" stroke-linejoin="round"/>
</svg>
