<svg width="100" height="100" viewBox="0 0 100 100" fill="none" xmlns="http://www.w3.org/2000/svg">
<path d="M91.6663 25.8918L75.1412 35.4335M91.6663 25.8918L75.1412 16.3501L67.1827 20.8025M91.6663 25.8918V45.7898L84.4608 49.9503M49.9997 98.0673L32.8166 88.1457V78.8671M49.9997 98.0673L67.1827 88.1457V78.8671M49.9997 98.0673V77.9884M8.33301 25.8918L24.8582 35.4335M8.33301 25.8918L24.8582 16.3501L32.8166 20.8025M8.33301 25.8918V45.7898L15.5385 49.9503M49.9997 49.9503L32.8166 40.0287M49.9997 49.9503L67.1827 40.0287M49.9997 49.9503V69.8483M24.8582 83.5505L8.33301 74.0088V54.1108M24.8582 83.5505V63.5807M24.8582 83.5505L32.8166 78.8671M24.8582 35.4335L41.9135 25.8918M24.8582 35.4335V55.3315M32.8166 40.0287L41.9135 34.9394M32.8166 40.0287V51.0356M67.1827 40.0287L58.0858 34.9394M67.1827 40.0287V51.0356M75.1412 83.5505L91.6663 74.0088C91.6663 74.0088 91.6663 61.8814 91.6663 54.1108M75.1412 83.5505V63.5807M75.1412 83.5505L67.1827 78.8671M75.1412 35.4335L58.0858 25.8918M75.1412 35.4335V55.3315M67.1827 11.7548L49.9997 1.83325L32.8166 11.7548M67.1827 11.7548V20.8025M67.1827 11.7548L49.9997 21.3679M32.8166 11.7548V20.8025M32.8166 11.7548L49.9997 21.3679M49.9997 77.9884L67.1827 68.1414M49.9997 77.9884L32.8166 68.1414M91.6663 54.1108C85.2129 57.809 75.1412 63.5807 75.1412 63.5807M91.6663 54.1108C88.8524 52.486 84.4608 49.9503 84.4608 49.9503M49.9997 69.8483L59.6013 64.3043M49.9997 69.8483L40.3981 64.3043M8.33301 54.1108L24.8582 63.5807M8.33301 54.1108L15.5385 49.9503M24.8582 63.5807L32.8166 59.9267M32.8166 59.9267L40.3981 64.3043M32.8166 59.9267V51.0356M75.1412 63.5807L67.1827 59.9267M67.1827 59.9267L59.6013 64.3043M67.1827 59.9267V51.0356M67.1827 68.1414L59.6013 64.3043M67.1827 68.1414V78.8671M32.8166 68.1414L40.3981 64.3043M32.8166 68.1414V78.8671M41.9135 25.8918V34.9394M41.9135 25.8918L32.8166 20.8025M41.9135 34.9394L49.9997 30.4156M58.0858 25.8918V34.9394M58.0858 25.8918L67.1827 20.8025M58.0858 34.9394L49.9997 30.4156M75.1412 55.3315L67.1827 51.0356M75.1412 55.3315L84.4608 49.9503M24.8582 55.3315L32.8166 51.0356M24.8582 55.3315L15.5385 49.9503M49.9997 30.4156V21.3679" stroke="#C8C8C8" stroke-linecap="round" stroke-linejoin="round"/>
</svg>
