<svg width="17" height="16" viewBox="0 0 17 16" fill="none" xmlns="http://www.w3.org/2000/svg">
<path d="M13.9623 5.80875C13.9244 5.71738 13.8604 5.63928 13.7782 5.58432C13.6959 5.52936 13.5993 5.50002 13.5004 5.5H3.50039C3.40145 5.49992 3.3047 5.5292 3.2224 5.58414C3.14011 5.63908 3.07596 5.71719 3.03808 5.8086C3.00021 5.90002 2.9903 6.00061 3.00963 6.09765C3.02895 6.1947 3.07664 6.28382 3.14664 6.35375L8.14664 11.3538C8.19308 11.4002 8.24822 11.4371 8.30892 11.4623C8.36962 11.4874 8.43469 11.5004 8.50039 11.5004C8.5661 11.5004 8.63117 11.4874 8.69186 11.4623C8.75256 11.4371 8.80771 11.4002 8.85414 11.3538L13.8541 6.35375C13.924 6.28379 13.9716 6.19466 13.9909 6.09765C14.0101 6.00064 14.0002 5.9001 13.9623 5.80875Z" fill="#C8C8C8"/>
</svg>
