<svg width="22" height="22" viewBox="0 0 22 22" fill="none" xmlns="http://www.w3.org/2000/svg">
<path d="M0 11C0 4.92487 4.92487 0 11 0C17.0751 0 22 4.92487 22 11C22 17.0751 17.0751 22 11 22C4.92487 22 0 17.0751 0 11Z" fill="white"/>
<path d="M9.36599 14.9462C9.08411 15.5625 8.14349 17 5.50036 17C5.36775 17 5.24058 16.9473 5.14681 16.8535C5.05304 16.7598 5.00036 16.6326 5.00036 16.5C5.00036 13.8569 6.43786 12.9162 7.05411 12.6344C7.11386 12.6071 7.1784 12.5919 7.24403 12.5896C7.30966 12.5873 7.3751 12.5979 7.43662 12.6209C7.49814 12.6439 7.55453 12.6788 7.60257 12.7235C7.65061 12.7683 7.68936 12.8221 7.71661 12.8819C7.74386 12.9416 7.75907 13.0061 7.76138 13.0718C7.76369 13.1374 7.75305 13.2028 7.73007 13.2644C7.70709 13.3259 7.67221 13.3823 7.62744 13.4303C7.58266 13.4784 7.52886 13.5171 7.46911 13.5444C7.06724 13.7275 6.18036 14.3169 6.02411 15.9762C7.68349 15.82 8.27411 14.9331 8.45599 14.5312C8.48323 14.4715 8.52199 14.4177 8.57003 14.3729C8.61807 14.3281 8.67446 14.2933 8.73598 14.2703C8.7975 14.2473 8.86294 14.2366 8.92857 14.239C8.9942 14.2413 9.05873 14.2565 9.11849 14.2837C9.17824 14.311 9.23204 14.3497 9.27681 14.3978C9.32159 14.4458 9.35646 14.5022 9.37944 14.5637C9.40243 14.6252 9.41307 14.6907 9.41076 14.7563C9.40845 14.8219 9.39323 14.8865 9.36599 14.9462ZM16.991 5.94623C16.9762 5.70243 16.8726 5.47249 16.6999 5.29978C16.5272 5.12707 16.2973 5.02354 16.0535 5.00873C15.2672 4.96185 13.2579 5.03373 11.591 6.7006L8.50036 9.79373C8.45395 9.84022 8.39883 9.87712 8.33815 9.90232C8.27748 9.92751 8.21244 9.94051 8.14674 9.94057C8.01406 9.94068 7.88676 9.88809 7.79286 9.79435C7.69896 9.70061 7.64614 9.57341 7.64602 9.44073C7.6459 9.30805 7.6985 9.18076 7.79224 9.08685L9.45224 7.42623C9.48699 7.39127 9.51063 7.34682 9.52019 7.29846C9.52975 7.2501 9.5248 7.2 9.50596 7.15445C9.48713 7.10889 9.45525 7.06993 9.41433 7.04244C9.37341 7.01496 9.32528 7.00018 9.27599 6.99998H7.64724C7.51551 6.99928 7.38496 7.02478 7.26318 7.075C7.1414 7.12521 7.03081 7.19914 6.93786 7.29248L4.79411 9.43748C4.66264 9.56886 4.57039 9.73428 4.5277 9.91517C4.48502 10.0961 4.4936 10.2853 4.55247 10.4616C4.61134 10.6379 4.71818 10.7943 4.861 10.9132C5.00381 11.0322 5.17695 11.109 5.36099 11.135L7.76536 11.4706L10.5285 14.2337L10.8641 16.6394C10.8899 16.8234 10.9667 16.9966 11.0858 17.1392C11.2048 17.2819 11.3614 17.3885 11.5379 17.4469C11.6406 17.4812 11.7483 17.4987 11.8566 17.4987C11.9878 17.499 12.1178 17.4733 12.239 17.4231C12.3602 17.3729 12.4703 17.2992 12.5629 17.2062L14.7079 15.0625C14.8009 14.9693 14.8747 14.8587 14.9249 14.737C14.9751 14.6152 15.0007 14.4848 15.0004 14.3531V12.7244C15.0003 12.6749 14.9855 12.6266 14.958 12.5856C14.9305 12.5445 14.8914 12.5126 14.8458 12.4937C14.8001 12.4748 14.7498 12.4699 14.7014 12.4796C14.6529 12.4893 14.6084 12.5131 14.5735 12.5481L12.9129 14.2081C12.8643 14.2567 12.8062 14.2948 12.7423 14.32C12.6783 14.3452 12.6099 14.3569 12.5412 14.3544C12.4725 14.3519 12.4051 14.3354 12.3431 14.3057C12.2811 14.276 12.2259 14.2338 12.181 14.1819C12.099 14.0826 12.0573 13.9562 12.0642 13.8277C12.0712 13.6991 12.1263 13.5779 12.2185 13.4881L15.2979 10.4087C16.966 8.74123 17.0379 6.73185 16.991 5.94498V5.94623Z" fill="#6200FF"/>
</svg>
